<svg width="23" height="22" viewBox="0 0 23 22" fill="none" xmlns="http://www.w3.org/2000/svg">
<path fill-rule="evenodd" clip-rule="evenodd" d="M7.8584 0H16.1084C19.9048 0 22.9834 3.07862 22.9834 6.875V15.125C22.9834 18.9214 19.9048 22 16.1084 22H7.8584C4.06202 22 0.983398 18.9214 0.983398 15.125V6.875C0.983398 3.07862 4.06202 0 7.8584 0ZM16.1084 19.9375C18.7621 19.9375 20.9209 17.7787 20.9209 15.125V6.875C20.9209 4.22125 18.7621 2.0625 16.1084 2.0625H7.8584C5.20465 2.0625 3.0459 4.22125 3.0459 6.875V15.125C3.0459 17.7787 5.20465 19.9375 7.8584 19.9375H16.1084Z" fill="white"/>
<path fill-rule="evenodd" clip-rule="evenodd" d="M6.4834 11C6.4834 7.96263 8.94602 5.5 11.9834 5.5C15.0208 5.5 17.4834 7.96263 17.4834 11C17.4834 14.0374 15.0208 16.5 11.9834 16.5C8.94602 16.5 6.4834 14.0374 6.4834 11ZM8.5459 11C8.5459 12.8948 10.0886 14.4375 11.9834 14.4375C13.8781 14.4375 15.4209 12.8948 15.4209 11C15.4209 9.10388 13.8781 7.5625 11.9834 7.5625C10.0886 7.5625 8.5459 9.10388 8.5459 11Z" fill="white"/>
<circle cx="17.896" cy="5.08737" r="0.732875" fill="white"/>
</svg>
