<svg width="24" height="25" viewBox="0 0 24 25" fill="none" xmlns="http://www.w3.org/2000/svg">
<g id="material-symbols:search">
<path id="Vector" d="M19.6 21.0029L13.3 14.7029C12.8 15.1029 12.225 15.4196 11.575 15.6529C10.925 15.8863 10.2333 16.0029 9.5 16.0029C7.68333 16.0029 6.146 15.3736 4.888 14.1149C3.63 12.8563 3.00067 11.3189 3 9.50293C3 7.68626 3.62933 6.14893 4.888 4.89093C6.14667 3.63293 7.684 3.0036 9.5 3.00293C11.3167 3.00293 12.854 3.63226 14.112 4.89093C15.37 6.1496 15.9993 7.68693 16 9.50293C16 10.2363 15.8833 10.9279 15.65 11.5779C15.4167 12.2279 15.1 12.8029 14.7 13.3029L21 19.6029L19.6 21.0029ZM9.5 14.0029C10.75 14.0029 11.8127 13.5653 12.688 12.6899C13.5633 11.8146 14.0007 10.7523 14 9.50293C14 8.25293 13.5623 7.19026 12.687 6.31493C11.8117 5.4396 10.7493 5.00226 9.5 5.00293C8.25 5.00293 7.18733 5.4406 6.312 6.31593C5.43667 7.19126 4.99933 8.2536 5 9.50293C5 10.7529 5.43767 11.8156 6.313 12.6909C7.18833 13.5663 8.25067 14.0036 9.5 14.0029Z" fill="#626262"/>
</g>
</svg>
