<svg width="1238" height="174" viewBox="0 0 1238 174" fill="none" xmlns="http://www.w3.org/2000/svg">
<path opacity="0.1" d="M193.567 168.503C133.059 157.143 53.8341 146.342 25.8256 129.422C-1.37163 112.992 -4.49987 93.4816 36.0159 77.8686C101.808 52.5151 321.982 41.7401 400.501 70.3851C413.661 75.1862 439.53 122.156 376.986 112.459C288.228 98.698 349.156 62.672 401.285 49.0985C458.857 34.108 683.978 6.50088 765.771 27.8119C789.758 34.0617 776.25 44.7498 764.987 51.4267C762.773 52.7393 734.529 64.9346 731.282 57.081C720.678 31.431 879.148 5.74512 985.246 4.86235C1133.42 3.62951 1249.11 23.3134 1230.59 54.7527" stroke="white" stroke-width="9" stroke-linecap="round"/>
</svg>
