<svg width="23" height="18" viewBox="0 0 23 18" fill="none" xmlns="http://www.w3.org/2000/svg">
<path d="M22.9834 2.11613C22.1653 2.475 21.2935 2.71288 20.3846 2.82838C21.3196 2.27013 22.0333 1.39287 22.3688 0.3355C21.497 0.85525 20.5345 1.22238 19.5088 1.42725C18.681 0.545875 17.5013 0 16.2143 0C13.7173 0 11.707 2.02675 11.707 4.51137C11.707 4.86888 11.7373 5.21263 11.8115 5.53988C8.0619 5.357 4.74402 3.55988 2.51515 0.82225C2.12602 1.49738 1.89777 2.27012 1.89777 3.102C1.89777 4.664 2.70215 6.04862 3.90115 6.85025C3.17652 6.8365 2.46565 6.62613 1.8634 6.29475C1.8634 6.3085 1.8634 6.32638 1.8634 6.34425C1.8634 8.536 3.42677 10.3565 5.4769 10.7759C5.10977 10.8763 4.70965 10.9244 4.2944 10.9244C4.00565 10.9244 3.71415 10.9079 3.44052 10.8474C4.0249 12.6335 5.68315 13.9466 7.6549 13.9893C6.1204 15.1896 4.17202 15.9129 2.06277 15.9129C1.6929 15.9129 1.33815 15.8964 0.983398 15.851C2.98127 17.1394 5.34902 17.875 7.9024 17.875C16.2019 17.875 20.7394 11 20.7394 5.04075C20.7394 4.84137 20.7325 4.64887 20.7229 4.45775C21.618 3.8225 22.3701 3.02913 22.9834 2.11613Z" fill="white"/>
</svg>
