<svg width="314" height="317" viewBox="0 0 314 317" fill="none" xmlns="http://www.w3.org/2000/svg">
<g clip-path="url(#clip0_3275_6205)">
<path d="M227.159 68.7974C227.159 68.7974 224.188 77.2003 222.744 80.3841C221.301 83.5679 221.329 90.1315 221.422 93.9875C221.515 97.8435 227.839 101.616 227.839 101.616C227.839 101.616 230.093 88.8804 230.885 86.3969C232.192 83.2121 233.659 80.0959 235.281 77.0603C235.281 77.0603 232.832 70.0858 227.159 68.7974Z" fill="#C1592B"/>
<path d="M227.223 184.132C227.223 184.132 225.165 186.373 222.417 189.062C219.875 191.546 219.083 192.264 216.727 194.571C215.348 195.924 216.484 197.166 219.111 197.063C222.674 196.701 226.186 195.94 229.58 194.795C232.298 193.645 234.918 192.274 237.413 190.696C238.529 190.038 239.359 188.985 239.741 187.746V183.6L227.223 184.132Z" fill="#2D2D2D"/>
<path d="M264.872 180.444C263.66 182.104 262.3 183.651 260.811 185.066C258.749 187.028 256.878 189.182 255.222 191.499C254.71 192.181 254.412 194.113 257.039 194.011C260.037 193.689 262.98 192.976 265.794 191.891C269.138 190.696 271.96 187.316 273.906 186.084C275.216 185.078 276.19 183.697 276.701 182.125L275.359 178.036L264.872 180.444Z" fill="#2D2D2D"/>
<path d="M263.782 113.165C264.713 97.9464 256.377 89.945 256.377 89.945C257.048 84.8192 233.316 91.9897 233.316 91.9897C233.316 91.9897 228.24 119.561 226.088 134.079C223.648 150.577 225.157 184.179 225.157 184.179C225.157 184.179 225.464 187.774 231.593 187.746C236.296 187.746 239.77 183.6 239.77 183.6L240.255 145.32L245.703 118.244C245.703 118.244 250.947 140.288 252.614 148.196C254.384 156.599 261.165 181.509 261.165 181.509C261.165 181.509 265.561 186.56 271.01 183.834C276.458 181.108 275.387 178.045 275.387 178.045C275.387 178.045 274.316 160.39 267.312 144.583C266.734 132.576 263.335 120.149 263.782 113.165Z" fill="#6F2E25"/>
<path d="M238.382 51.1697C238.382 51.1697 234.405 49.6478 230.465 57.0331C228.128 61.5928 226.175 66.3398 224.625 71.2247C224.625 71.2247 229.729 71.9529 235.28 77.0787C242.871 70.1977 244.11 54.3815 238.382 51.1697Z" fill="#E59D0C"/>
<path d="M237.75 50.9925C235.583 54.5487 233.951 58.4058 232.907 62.4392C231.156 69.1709 231.78 100.467 231.78 100.467C231.78 100.467 239.017 105.593 251.125 104.594C255.259 104.338 259.144 102.528 262.004 99.5242C262.004 99.5242 266.661 66.4913 266.093 62.1031C265.525 57.7149 255.978 49.8255 255.978 49.8255C255.978 49.8255 245.052 48.1075 237.75 50.9925Z" fill="#FFBE2A"/>
<path d="M244.856 47.7617L243.449 55.9779C243.449 55.9779 247.622 60.6462 251.711 57.1637C255.8 53.6811 256.368 52.0379 256.368 52.0379L254.356 40.834L244.856 47.7617Z" fill="#C1592B"/>
<path d="M250.621 28.491C247.129 25.83 238.867 24.9711 235.849 33.5327C232.682 42.5145 240.786 53.7278 245.107 51.8231C247.529 50.7588 252.614 46.9681 254.049 42.2438C255.66 36.9219 253.332 30.5637 250.621 28.491Z" fill="#D87745"/>
<path d="M235.131 36.39C236.566 37.8558 238.671 39.4897 243.002 38.7801C245.151 38.4167 247.214 37.6536 249.084 36.53L249.81 41.2917C250.245 41.2054 250.663 41.051 251.049 40.8342C251.124 38.9669 251.794 38.36 252.828 38.9202C253.862 39.4804 254.048 42.244 254.048 42.244C255.119 41.079 255.89 39.6703 256.296 38.1396C256.701 36.6089 256.729 35.0022 256.377 33.4583C255.641 30.1158 251.133 23.5148 244.855 24.1217C238.578 24.7285 234.917 28.874 234.144 32.5246C233.994 33.2013 234.005 33.9041 234.176 34.5757C234.348 35.2473 234.675 35.8689 235.131 36.39Z" fill="#2D2D2D"/>
<path d="M221.775 77.4246C221.356 77.1827 220.923 76.9645 220.48 76.771L208.465 83.7268L209.163 85.1459C209.108 85.7528 209.07 86.3784 209.07 87.0132C209.07 87.0786 209.07 87.1346 209.07 87.2L223.712 78.769C223.098 78.2767 222.45 77.8275 221.775 77.4246Z" fill="#E59D0C"/>
<path d="M221.776 111.363C221.943 111.466 222.111 111.54 222.279 111.624L223.499 114.089L233.148 108.487C233.817 107.013 234.227 105.433 234.359 103.819L221.58 111.223L221.776 111.363Z" fill="#E59D0C"/>
<path d="M213.43 76.7897L206.91 80.5243L207.795 82.317L218.553 76.0894C216.819 75.6447 214.981 75.8959 213.43 76.7897Z" fill="#E59D0C"/>
<path d="M221.095 103.371L233.845 95.9856C233.597 94.7967 233.286 93.6218 232.914 92.4657L223.302 98.0676L221.765 97.1806L232.271 90.9998C231.853 89.9307 231.38 88.8837 230.856 87.8627L218.589 94.9585L217.052 94.0249L230.092 86.4622C229.525 85.4669 228.903 84.5037 228.229 83.5772L213.951 91.8401L212.414 90.9064L227.316 82.2981C226.584 81.3804 225.784 80.519 224.923 79.7212L209.387 88.7123L209.107 88.5536C209.648 96.7978 214.267 105.798 220.135 110.196L234.432 101.914C234.432 101.83 234.432 101.746 234.432 101.653C234.425 100.26 234.304 98.8706 234.069 97.4981L222.585 104.258L221.095 103.371Z" fill="#E59D0C"/>
<path d="M206.268 83.213L207.804 84.1L208.456 83.7265L207.776 82.3447L206.268 83.213Z" fill="#FFD884"/>
<path d="M218.533 76.1172L207.775 82.3447L208.465 83.7265L220.48 76.7707C219.855 76.4863 219.203 76.2673 218.533 76.1172Z" fill="#FFD884"/>
<path d="M207.879 87.9185L209.136 88.6467C209.136 88.1705 209.08 87.713 209.08 87.2275L207.879 87.9185Z" fill="#FFD884"/>
<path d="M224.953 79.8143C224.543 79.4409 224.134 79.0861 223.714 78.7593L209.082 87.2276C209.082 87.6944 209.082 88.1612 209.138 88.6467L209.417 88.8055L224.953 79.8143Z" fill="#FFD884"/>
<path d="M214.016 91.8869L228.295 83.624C227.987 83.1945 227.671 82.7931 227.363 82.3916L212.461 90.9999L214.016 91.8869Z" fill="#FFD884"/>
<path d="M218.618 94.9584L230.885 87.8626C230.652 87.3958 230.401 86.9289 230.149 86.5088L217.109 94.0714L218.618 94.9584Z" fill="#FFD884"/>
<path d="M223.218 98.0302L232.831 92.4282C232.663 91.9427 232.495 91.4946 232.3 90.9624L221.682 97.1059L223.218 98.0302Z" fill="#FFD884"/>
<path d="M221.096 103.371L222.623 104.304L234.135 97.5912C234.052 97.0591 233.958 96.5175 233.837 95.9854L221.096 103.371Z" fill="#FFD884"/>
<path d="M215.191 113.165L216.728 114.052L221.581 111.251C221.096 110.961 220.649 110.644 220.165 110.317L215.191 113.165Z" fill="#FFD884"/>
<path d="M221.58 111.241L234.359 103.838C234.424 103.259 234.452 102.642 234.461 101.97L220.164 110.289C220.63 110.635 221.095 110.952 221.58 111.241Z" fill="#FFD884"/>
<path d="M224.161 115.415L229.517 112.306C231.144 111.517 232.433 110.169 233.149 108.506L223.5 114.108L224.161 115.415Z" fill="#FFD884"/>
<path d="M202.719 90.7007C202.719 100.037 208.4 110.97 215.414 115.023C222.427 119.075 228.118 114.78 228.118 105.406C228.118 96.0319 222.427 85.1361 215.414 81.1307C208.4 77.1253 202.719 81.3268 202.719 90.7007Z" fill="#FFBE2A"/>
<path d="M219.597 113.949C218.031 113.902 216.506 113.435 215.182 112.595C209.295 109.104 204.443 99.8417 204.368 91.9522C204.322 87.7134 205.672 84.4829 208.094 83.1011C210.096 81.9341 212.658 82.1675 215.303 83.7267C221.189 87.2092 226.042 96.4711 226.126 104.37C226.126 108.609 224.813 111.839 222.4 113.221C221.546 113.706 220.579 113.958 219.597 113.949ZM210.879 83.1385C210.026 83.1257 209.186 83.3452 208.448 83.7734C206.287 85.0245 205.067 88.0122 205.104 91.9709C205.179 99.6362 209.873 108.609 215.564 111.979C217.967 113.408 220.221 113.622 222.028 112.605C224.189 111.354 225.399 108.366 225.362 104.407C225.288 96.7419 220.593 87.7601 214.912 84.3896C213.696 83.6081 212.294 83.1665 210.851 83.1105L210.879 83.1385Z" fill="#E59D0C"/>
<path d="M257.467 75.79C257.467 75.79 257.281 86.3031 257.094 90.5979C257.038 91.6809 256.778 93.6603 254.132 95.5276C251.841 97.1522 239.556 103.305 237.833 103.585C234.61 104.117 230.177 104.192 228.957 103.641C227.094 102.782 226.637 104.173 228.249 105.508C228.81 105.864 229.449 106.079 230.112 106.134C228.319 107.345 226.406 108.365 224.402 109.178C221.524 110.177 221.99 113.435 226.488 114.023C230.577 114.565 236.119 111.708 237.749 110.97C238.15 110.793 258.408 103.501 260.606 102.399C263.167 101.102 265.999 95.3782 267.06 90.7006C268.021 86.0926 268.708 81.4318 269.119 76.7424L257.467 75.79Z" fill="#D87745"/>
<path d="M262.785 55.5205C259.637 54.5121 257.485 61.1878 256.34 66.3323C255.667 70.1105 255.554 73.9676 256.005 77.7789C258.157 78.7039 260.494 79.1131 262.832 78.974C266.138 78.7126 271.289 76.7519 271.289 76.7519C271.289 76.7519 273.571 58.975 262.785 55.5205Z" fill="#E59D0C"/>
<path d="M202.077 87.5827C200.279 88.1615 200.074 94.7252 202.635 96.3404C205.197 97.9556 206.091 93.6701 205.644 91.3546C205.197 89.0392 204.387 86.8264 202.077 87.5827Z" fill="#C1592B"/>
<path d="M133.72 13.142C133.797 13.1461 133.873 13.1652 133.944 13.198C133.974 13.173 134.012 13.1592 134.051 13.1592C134.09 13.1592 134.128 13.173 134.158 13.198C135.462 14.6452 138.06 15.999 138.135 18.1371C138.135 19.0147 136.086 20.4806 135.778 21.3769C135.387 22.5253 136.663 23.1695 137.101 23.6643C137.744 24.4113 139.336 25.9518 135.471 28.3326C132.863 29.9572 135.797 32.31 132.518 32.9076C127.07 33.9159 124.043 30.2747 123.726 24.8968C123.447 20.0137 128.439 12.7592 133.72 13.142Z" fill="#2D2D2D"/>
<path d="M130.75 26.3623C132.861 26.1081 134.997 26.5331 136.851 27.576C139.831 29.3033 147.385 41.833 148.959 44.466C150.533 47.0989 159.121 52.8689 159.121 60.4315C159.121 61.748 153.886 60.1234 153.886 60.1234C153.886 60.1234 144.367 52.178 140.064 47.0242C138.773 45.6341 137.732 44.0291 136.99 42.2812C136.031 40.6379 130.75 26.3623 130.75 26.3623Z" fill="#FFC3B1"/>
<path d="M140.995 81.7563C140.995 81.7563 145.447 105.835 146.583 108.832C147.72 111.83 146.779 113.501 145.251 120.214C143.724 126.927 142.457 138.504 141.954 143.378C141.498 147.915 141.6 153.023 143.286 154.685C144.972 156.346 153.643 160.286 152.032 161.556C150.421 162.826 145.726 164.357 143.286 162.285C140.846 160.212 138.527 159.736 136.878 158.858C135.015 157.878 134.27 156.281 135.732 150.287C136.999 145.124 133.702 130.353 133.693 122.763C133.822 119.447 134.268 116.152 135.025 112.922C134.81 108.851 128.616 99.916 140.995 81.7563Z" fill="#FFC3B1"/>
<path d="M126.092 108.328C126.092 108.328 124.919 127.048 124.006 130.465C123.093 133.883 119.629 152.136 119.293 155.142C118.846 159.297 119.507 163.302 119.293 166.346C119.144 168.69 118.492 177.774 112.988 175.085C109.215 173.218 111.553 166.029 112.699 162.378C113.812 159.566 114.356 156.561 114.301 153.536C113.919 146.132 113.267 143.023 113.789 136.32C113.982 132.348 113.905 128.367 113.556 124.406C112.848 116.834 111.469 108.534 112.429 106.825C114.087 103.894 126.092 108.328 126.092 108.328Z" fill="#FFC3B1"/>
<path d="M114.72 73.2417C112.716 77.0729 111.232 81.1547 110.305 85.3793C108.833 91.6161 112.121 102.419 112.121 105.845C112.121 109.272 112.494 116.9 112.494 116.9C114.476 118.548 116.999 119.4 119.572 119.29C122.646 119.29 125.915 116.489 125.915 116.489L128.709 92.7739C128.709 92.7739 131.271 103.744 131.979 105.78C132.8 107.971 133.732 110.118 134.773 112.213C134.773 112.213 137.381 113.268 141.954 111.849C143.537 111.354 146.518 108.543 146.518 108.543L139.56 76.1267C139.56 76.1267 123.587 79.2358 114.72 73.2417Z" fill="#2D2D2D"/>
<path d="M127.229 38.8922C123.652 37.6317 121.138 31.9271 120.188 29.4062C120.238 29.3229 120.282 29.2355 120.318 29.1448C121.473 25.989 120.69 21.4141 120.69 21.4141L128.617 23.5802C128.71 25.3915 128.738 27.1374 129.688 28.1924C130.051 28.5467 130.482 28.8231 130.955 29.0047C132.177 31.3791 133.172 33.8644 133.926 36.4273C134.531 38.7335 130.75 40.1059 127.229 38.8922Z" fill="#FF9E8A"/>
<path d="M138.973 38.6213C139.979 40.7407 141.051 43.4203 138.629 47.6592C137.576 52.2248 138.145 53.7933 138.21 59.2646C138.275 64.7358 141.051 74.1378 141.051 74.1378C141.051 74.1378 139.234 78.9648 131.494 79.4596C123.754 79.9545 112.82 75.1835 112.82 75.1835C112.82 75.1835 118.911 62.7471 117.784 58.1722C115.446 48.6488 114.655 46.5761 114.114 45.0356C112.846 41.4448 112.497 37.5926 113.099 33.8317C113.099 33.8317 119.34 31.0307 120.55 28.8366C121.482 31.3481 123.549 37.0901 127.126 38.3412C130.703 39.5923 132.77 37.2115 132.165 34.9054C131.709 33.1968 130.47 31.4228 129.697 29.6862C129.269 28.7191 128.975 27.6983 128.821 26.6518C129.296 26.5865 129.548 26.1943 130.274 26.2783C130.768 26.3437 131.373 26.2783 131.802 26.2783C132.379 27.3521 136.952 34.4105 138.973 38.6213Z" fill="#EB2E41"/>
<path d="M114.172 72.2331C114.172 72.2331 124.007 75.5569 128.143 75.4262C131.613 75.1673 135.058 74.6335 138.444 73.8297V70.9073C134.872 71.5831 131.26 72.026 127.631 72.2331C124.045 72.2331 115.327 69.4321 115.327 69.4321L114.172 72.2331Z" fill="white"/>
<path d="M117.049 64.4652C117.049 64.4652 124.901 66.3325 128.226 66.6779C131.662 66.807 135.104 66.7072 138.527 66.3792V64.0824C135.097 64.2956 131.659 64.3299 128.226 64.1851C124.655 63.7911 121.117 63.1484 117.636 62.2617L117.049 64.4652Z" fill="white"/>
<path d="M117.785 58.2282C117.785 58.2282 127.369 58.5736 130.927 58.3589C133.358 58.2165 135.776 57.9046 138.164 57.4252L138.033 54.2788C135.584 54.9575 133.048 55.2721 130.508 55.2125H117.049L117.785 58.2282Z" fill="white"/>
<path d="M117.625 48.8917C117.625 48.8917 126.762 47.3885 130.925 47.5939C135.089 47.7993 138.628 47.6593 138.628 47.6593C139.185 46.6908 139.608 45.6512 139.886 44.5688C137.827 44.5688 134.455 45.0637 130.357 44.8116C126.259 44.5595 118.025 45.7453 118.025 45.7453L117.625 48.8917Z" fill="white"/>
<path d="M117.737 40.9369L126.735 38.2199L124.788 36.8008L117.318 38.9389L117.737 40.9369Z" fill="white"/>
<path d="M132.213 35.54L131.766 37.4074L138.965 38.6398L137.755 36.1002L132.213 35.54Z" fill="white"/>
<path d="M132.547 8.19328C136.272 12.124 134.801 25.7181 129.259 26.605C125.664 27.1839 120.616 23.9815 118.79 17.6886C117.262 12.4134 125.412 0.752009 132.547 8.19328Z" fill="#FFC3B1"/>
<path d="M111.6 20.966C112.224 19.9857 111.731 18.6225 111.461 17.7355C110.65 15.1306 110.818 13.8702 113.323 12.2176C114.609 11.368 115.186 6.21418 115.661 5.33654C117.012 3.00239 118.102 0.546863 121.781 2.53556C122.656 0.360131 125.804 -0.685568 130.908 1.68593C132.333 2.34883 133.33 4.32819 133.814 5.73801C134.746 8.4643 135.677 9.27658 138.471 9.97683C138.024 10.9105 136.45 13.0392 134.289 12.0122C131.663 10.7611 126.596 13.4127 123.709 12.9459C122.898 13.7488 122.656 14.9626 122.2 16.167C119.117 14.197 118.781 17.6328 120.514 19.5002C121.184 23.3468 122.805 29.537 121.445 31.1149C118.008 35.1763 117.72 32.282 114.469 33.197C112.718 33.6825 111.358 33.6544 111.228 31.2176C111.116 29.1635 114.162 27.9498 112.522 25.709C111.796 24.7193 110.855 25.3169 110.371 23.8417C109.887 22.3665 111.433 21.2368 111.6 20.966Z" fill="#2D2D2D"/>
<path d="M148.874 65.2026L147.058 79.2822H137.297L135.48 65.2026H148.874Z" fill="#FF6666"/>
<path d="M137.27 79.2728C137.27 80.7107 139.458 81.8777 142.15 81.8777C144.842 81.8777 147.031 80.7107 147.031 79.2728C147.031 77.835 144.851 76.6772 142.15 76.6772C139.449 76.6772 137.27 77.835 137.27 79.2728Z" fill="#FF6666"/>
<path d="M135.48 65.2028C135.48 67.1728 138.48 68.7694 142.177 68.7694C145.875 68.7694 148.874 67.1728 148.874 65.2028C148.874 63.2328 145.875 61.6362 142.177 61.6362C138.48 61.6362 135.48 63.2328 135.48 65.2028Z" fill="#FF8A8A"/>
<path d="M137.028 66.6779C136.791 66.5074 136.594 66.287 136.451 66.0322C136.308 65.7774 136.222 65.4943 136.199 65.2027C136.199 63.5782 138.872 62.2617 142.179 62.2617C145.485 62.2617 148.168 63.5782 148.168 65.2027C148.145 65.4943 148.059 65.7774 147.916 66.0322C147.773 66.287 147.576 66.5074 147.339 66.6779C145.791 65.7143 144.005 65.2036 142.183 65.2036C140.362 65.2036 138.576 65.7143 137.028 66.6779Z" fill="#FF6666"/>
<path d="M137.027 66.6775C138.575 65.7138 140.361 65.2031 142.183 65.2031C144.005 65.2031 145.79 65.7138 147.338 66.6775C145.788 67.636 144.003 68.1436 142.183 68.1436C140.362 68.1436 138.577 67.636 137.027 66.6775Z" fill="white"/>
<path d="M107.809 60.8143C107.809 59.9553 108.628 54.5214 108.908 45.3622C109.103 39.1534 110.035 34.9986 112.168 33.29C113.093 33.5232 114.067 33.4711 114.962 33.1406C116.219 34.7745 117.756 39.116 118.017 43.0654C118.212 45.8352 117.896 48.6173 117.085 51.2723C116.825 52.206 116.35 59.1804 116.154 61.2625C119.386 62.8497 124.155 65.2025 125.3 65.8374C127.806 67.2192 137.409 72.5317 140.566 72.233C147.375 71.5794 149.563 75.7249 145.288 78.5819C141.982 80.7946 138.163 79.861 133.869 75.9956C130.706 74.5028 127.433 73.2543 124.08 72.261C118.622 70.6364 111.394 68.7317 108.815 65.3332C108.088 64.3902 107.809 61.8693 107.809 60.8143Z" fill="#FFC3B1"/>
<path d="M135.015 152.985C135.015 152.985 135.742 156.057 140.715 158.587C144.543 160.548 146.611 161.015 148.735 160.268L150.858 159.521C152.003 159.982 153.091 160.574 154.1 161.286C155.413 162.294 154.482 162.873 150.374 163.909C146.267 164.946 143.202 163.134 140.762 161.286C138.322 159.437 136.105 159.773 135.062 158.587C133.32 156.608 135.015 152.985 135.015 152.985Z" fill="#2D2D2D"/>
<path d="M119.331 166.383C119.331 166.383 119.135 172.545 117.263 174.487C115.391 176.429 111.6 175.664 110.622 172.312C109.644 168.96 111.311 167.644 111.311 167.644C111.311 167.644 112.569 171.556 114.795 171.378C117.021 171.201 119.331 166.383 119.331 166.383Z" fill="#2D2D2D"/>
<path d="M70.6836 57.3415C72.7932 57.0812 74.9307 57.5032 76.7843 58.5459C79.7648 60.2826 87.3185 72.8123 88.8925 75.4359C90.4666 78.0594 99.4733 85.9769 99.4733 85.9769L93.8197 91.1027C93.8197 91.1027 84.3007 83.1479 79.9511 77.9754C78.6628 76.5863 77.6231 74.9849 76.8774 73.2418C75.9833 71.6172 70.6836 57.3415 70.6836 57.3415Z" fill="#FFC3B1"/>
<path d="M81.0411 113.436C81.0411 113.436 85.4094 137.066 86.5643 139.97C87.7193 142.874 86.7599 144.517 85.2511 151.174C83.7422 157.831 82.4568 169.128 82.0191 173.909C81.572 178.362 81.6745 183.376 83.3324 185.001C84.9903 186.625 93.494 190.453 91.9106 191.742C90.3272 193.03 85.7261 194.459 83.3324 192.461C80.9387 190.462 78.6754 189.958 77.0454 189.099C75.1826 188.166 74.484 186.569 75.9184 180.696C77.1572 175.627 73.9252 161.09 73.9159 153.686C74.0416 150.433 74.4782 147.2 75.2199 144.032C75.0243 140.026 68.9422 131.259 81.0411 113.436Z" fill="#FFC3B1"/>
<path d="M66.4837 139.513C66.4837 139.513 65.3287 157.887 64.4346 161.23C63.5404 164.572 60.1408 182.499 59.7776 185.449C59.3398 189.52 59.9825 193.45 59.7776 196.476C59.6285 198.782 58.9952 207.679 53.5837 205.056C49.8581 203.254 52.1773 196.167 53.3043 192.591C54.398 189.83 54.9331 186.879 54.8784 183.908C54.5058 176.645 53.8631 173.638 54.3661 167.019C54.5647 163.122 54.49 159.216 54.1426 155.329C53.4533 147.86 52.1028 139.774 53.0342 138.075C54.6921 135.162 66.4837 139.513 66.4837 139.513Z" fill="#FFC3B1"/>
<path d="M67.4149 71.3742C63.9035 70.1417 61.4353 64.5398 60.5039 62.0376C60.5505 61.9535 60.597 61.8695 60.6343 61.7855C61.7613 58.6857 60.9975 54.1948 60.9975 54.1948L68.7934 56.3609C68.8865 58.1349 68.9052 59.8528 69.8366 60.8892C70.1994 61.2343 70.6267 61.504 71.094 61.6828C72.287 64.0141 73.2599 66.4523 73.9999 68.9653C74.596 71.2248 70.8425 72.5693 67.4149 71.3742Z" fill="#FF9E8A"/>
<path d="M72.7977 41.2449C76.5233 45.1102 75.0052 58.4429 69.5658 59.3206C66.0451 59.8901 61.09 56.7437 59.3203 50.5722C57.8021 45.3904 65.7936 33.953 72.7977 41.2449Z" fill="#FFC3B1"/>
<path d="M75.2198 183.339C75.2198 183.339 75.937 186.345 80.8082 188.857C84.5338 190.78 86.5922 191.247 88.6786 190.509L90.7556 189.772C91.8773 190.227 92.943 190.809 93.9317 191.508C95.2263 192.498 94.3136 193.058 90.2061 194.076C86.0986 195.094 83.174 193.32 80.7803 191.508C78.3866 189.697 76.1233 190.015 75.1919 188.857C73.5619 186.896 75.2198 183.339 75.2198 183.339Z" fill="#2D2D2D"/>
<path d="M59.8323 196.475C59.8323 196.475 59.6367 202.525 57.8019 204.439C55.967 206.353 52.2134 205.588 51.282 202.301C50.3506 199.015 51.962 197.745 51.962 197.745C51.962 197.745 53.1914 201.582 55.3802 201.423C57.569 201.265 59.8323 196.475 59.8323 196.475Z" fill="#2D2D2D"/>
<path d="M81.1239 104.369C80.2577 101.456 78.3949 93.9685 78.3297 91.3916C78.2645 86.0137 78.5718 85.7056 79.5964 81.224C81.9808 77.0599 81.9528 73.8948 80.9562 71.8221C79.7268 69.2358 76.6159 63.8859 74.2781 61.6358C73.5423 60.9262 72.2476 58.9562 71.2603 58.5454C70.6355 59.0444 69.8611 59.3174 69.0622 59.3203C69.5931 61.8599 72.1172 65.0344 72.7133 67.5459C73.2628 69.824 70.6735 71.9528 67.2646 70.7577C63.8557 69.5626 62.0022 62.4948 61.0615 60.0299C57.2055 61.6638 55.0167 63.0176 52.8279 65.2024C51.6032 68.7082 51.6032 72.5271 52.8279 76.0329C53.1818 77.0319 55.1098 80.4304 56.4883 84.2397C57.2217 86.6338 57.6933 89.1007 57.8947 91.597C58.7609 98.4033 53.6475 101.083 51.5612 114.77C49.4748 128.458 50.844 139.232 51.5612 147.038C51.8126 149.773 52.1014 160.585 52.1014 160.585C52.1014 160.585 61.1173 164.955 67.6558 161.967C74.1942 158.979 77.6591 154.74 82.7538 153.984C86.249 153.579 89.6213 152.447 92.6547 150.66C92.6547 150.66 85.576 119.28 81.1239 104.369Z" fill="#6EBC4D"/>
<path d="M75.3787 44.1392C71.9343 45.6849 68.131 46.2471 64.3881 45.7638C63.5499 46.5947 63.2984 47.8552 62.8234 49.1156C59.6193 47.0616 59.2654 50.6375 61.063 52.5795C61.5753 53.5131 60.8767 54.8203 60.8767 54.8203C60.8767 54.8203 55.8471 50.8055 56.6295 44.9982C56.5457 43.7937 56.5457 42.1972 57.6541 41.2635C57.831 38.724 59.5169 38.2291 61.063 38.2291C61.9292 36.3618 63.8572 36.3618 65.6548 36.3618C68.2772 36.4974 70.85 37.131 73.2365 38.2291C76.4591 39.7323 75.3787 44.1392 75.3787 44.1392Z" fill="#2D2D2D"/>
<path d="M68.4202 38.2481C68.4202 38.2481 68.4854 33.477 66.0451 32.1793C65.4283 31.7915 64.7149 31.5858 63.9867 31.5858C63.2586 31.5858 62.5452 31.7915 61.9283 32.1793C61.9283 32.1793 60.7827 28.7154 59.0689 28.4446C57.3552 28.1739 55.6693 30.2186 55.6693 30.2186C55.6693 30.2186 53.7413 29.3876 52.5398 30.2186C50.5 31.6284 52.5398 34.6255 52.5398 34.6255C52.5398 34.6255 48.749 34.4014 48.4509 37.9026C48.2553 40.1901 48.4509 40.7969 47.5195 41.6372C48.4509 42.739 50.8819 42.2161 50.8819 42.2161C50.8819 42.2161 49.6804 44.2888 50.1647 45.4466C50.6471 46.2699 51.373 46.9225 52.2417 47.3139C52.2417 47.3139 51.3662 45.0638 52.754 44.1021C53.9555 46.5763 57.8581 47.566 57.9792 47.0711C58.1003 46.5763 68.4202 38.2481 68.4202 38.2481Z" fill="#2D2D2D"/>
<path d="M57.9494 95.6959L56.543 99.0104C59.5967 101.446 63.3887 102.764 67.2914 102.745C71.641 102.566 75.9295 101.654 79.9771 100.047L78.9898 95.6772C78.9898 95.6772 71.3523 99.4119 66.0433 98.9917C63.0503 98.846 60.1959 97.6837 57.9494 95.6959Z" fill="white"/>
<path d="M52.0559 156.944C52.0559 156.944 59.06 160.894 63.6239 158.811C68.1878 156.729 75.8812 150.931 79.9794 149.727C84.0775 148.523 91.8361 147.047 91.8361 147.047L91.1655 144.125C91.1655 144.125 86.7041 145.32 79.9887 147.514C73.2733 149.708 66.7627 156.468 62.1896 156.701C57.6164 156.935 52 155.058 52 155.058L52.0559 156.944Z" fill="white"/>
<path d="M156.14 89.3187L78.4141 134.312V88.4691L156.14 43.4854V89.3187Z" fill="#408922"/>
<path d="M153.579 81.112V54.6614C151.456 54.8855 149.76 53.6531 148.922 51.3096L85.5867 87.9744C84.7885 91.2212 83.1868 94.2139 80.9297 96.6761V123.127C83.0533 122.903 84.7484 124.135 85.5867 126.479L148.922 89.8137C149.72 86.5669 151.322 83.5742 153.579 81.112Z" fill="#6EBC4D"/>
<path d="M127.843 80.356C127.843 88.152 123.121 97.1619 117.281 100.588C111.441 104.015 106.719 100.383 106.719 92.5776C106.719 84.7722 111.45 75.725 117.281 72.3545C123.111 68.984 127.843 72.5599 127.843 80.356Z" fill="#408922"/>
<path d="M99.5002 99.188C99.5002 102.923 97.209 107.348 94.3868 108.982C91.5647 110.616 89.2734 108.879 89.2734 105.107C89.2734 101.335 91.5647 96.9472 94.3868 95.3133C97.209 93.6794 99.5002 95.416 99.5002 99.188Z" fill="#408922"/>
<path d="M97.8521 100.168C97.8521 102.689 96.3153 105.621 94.4339 106.704C92.5524 107.787 91.0156 106.629 91.0156 104.108C91.0156 101.587 92.5431 98.6649 94.4339 97.5725C96.3246 96.4801 97.8521 97.6472 97.8521 100.168Z" fill="#B4EA9B"/>
<path d="M145.141 72.7744C145.141 76.5091 142.85 80.9346 140.027 82.5685C137.205 84.2024 134.914 82.4658 134.914 78.6938C134.914 74.9218 137.205 70.5336 140.027 68.8997C142.85 67.2658 145.141 69.0024 145.141 72.7744Z" fill="#408922"/>
<path d="M143.444 73.755C143.444 76.2759 141.907 79.2076 140.026 80.2906C138.144 81.3737 136.607 80.2159 136.607 77.6951C136.607 75.1742 138.135 72.2518 140.026 71.1594C141.916 70.0671 143.444 71.2341 143.444 73.755Z" fill="#B4EA9B"/>
<path d="M78.4137 134.312L74.2969 131.829V86.2007L78.4137 88.4695V134.312Z" fill="#337216"/>
<path d="M74.2969 86.2005L78.4137 88.4692L156.139 43.4855L152.088 41.1514L74.2969 86.2005Z" fill="#B4EA9B"/>
<path d="M84.7461 93.9409V96.3965L104.017 85.1832V82.7837L84.7461 93.9409Z" fill="#408922"/>
<path d="M129.055 68.3023V70.7578L148.316 59.5445V57.145L129.055 68.3023Z" fill="#408922"/>
<path d="M86.2188 121.148V123.603L146.639 88.8712V86.4717L86.2188 121.148Z" fill="#408922"/>
<path d="M55.1758 64.5211C49.4383 64.3344 50.4536 74.3619 51.6178 79.7585C52.7355 84.9309 54.3189 94.3049 56.5449 97.8901C59.9632 102.924 63.8896 107.592 68.262 111.82C72.7327 115.938 73.6082 117.236 76.3652 119.29C81.7953 123.332 83.5929 120.643 83.5743 118.141C83.5556 115.639 79.7928 114.985 78.4236 113.473C78.2094 113.24 81.6463 112.67 80.985 111.858C80.6217 111.41 75.9926 110.541 74.8377 109.626C69.566 105.481 63.4653 93.6046 62.4687 91.7467C61.1647 89.2631 60.6617 64.6985 55.1758 64.5211Z" fill="#FFC3B1"/>
<path d="M157.015 57.855C156.004 58.6468 155.174 59.6465 154.581 60.7867C153.989 61.927 153.646 63.1813 153.578 64.4653C153.429 68.7601 156.372 68.9749 158.347 66.6781C160.321 64.3813 159.483 58.051 157.015 57.855Z" fill="#FFC3B1"/>
<path d="M166.888 267.013L166.869 193.992L225.073 160.259V233.206L166.888 267.013Z" fill="#854032"/>
<path d="M166.888 267.013L166.869 193.992L108.666 160.259V233.206L166.888 267.013Z" fill="#AB5145"/>
<path d="M113.396 160.259L166.868 191.247L166.887 191.237V129.28L113.396 160.259Z" fill="#AB5145"/>
<path d="M166.887 129.28V191.237L220.34 160.259L166.887 129.28Z" fill="#854032"/>
<path d="M191.355 165.87C191.215 165.409 191.047 164.957 190.852 164.516L177.319 161.426L176.872 162.948C176.416 163.358 175.941 163.797 175.521 164.283L175.4 164.423L191.868 168.157C191.753 167.383 191.582 166.619 191.355 165.87Z" fill="#E59D0C"/>
<path d="M185.702 159.727L178.344 158.037L177.785 159.96L189.893 162.761C188.946 161.239 187.441 160.15 185.702 159.727Z" fill="#E59D0C"/>
<path d="M171.004 189.594L175.968 186.615L173.761 186.111L173.239 184.421L177.896 185.476C179.392 184.599 180.895 183.734 182.404 182.881L178.446 181.947L177.915 180.248L184.435 181.732C185.962 180.88 187.499 180.055 189.045 179.258L177.179 176.56L176.657 174.861L191.178 178.166L191.401 178.054C191.644 176.98 191.839 175.897 191.97 174.833L175.856 171.201L175.335 169.501L192.1 173.311C192.184 172.139 192.184 170.963 192.1 169.791L174.608 165.804L174.506 165.496C169.327 171.91 166.607 181.667 167.939 188.884L171.004 189.594Z" fill="#E59D0C"/>
<path d="M176.053 159.568L176.574 161.267L177.31 161.426L177.748 159.951L176.053 159.568Z" fill="#FFD884"/>
<path d="M189.866 162.714L177.758 159.913L177.32 161.388L190.854 164.479C190.581 163.86 190.251 163.269 189.866 162.714Z" fill="#FFD884"/>
<path d="M174.041 164.115L174.469 165.497C174.777 165.123 175.084 164.768 175.401 164.423L174.041 164.115Z" fill="#FFD884"/>
<path d="M192.063 169.791C192.016 169.24 191.96 168.699 191.867 168.176L175.4 164.441C175.083 164.787 174.776 165.142 174.469 165.515L174.571 165.823L192.063 169.791Z" fill="#FFD884"/>
<path d="M175.857 171.201L191.942 174.861C191.998 174.338 192.044 173.824 192.082 173.311L175.316 169.501L175.857 171.201Z" fill="#FFD884"/>
<path d="M189.019 179.286L191.151 178.194L176.631 174.936L177.152 176.635L189.019 179.286Z" fill="#FFD884"/>
<path d="M182.404 182.881C183.075 182.498 183.736 182.125 184.407 181.761L177.887 180.276L178.418 181.976L182.404 182.881Z" fill="#FFD884"/>
<path d="M162.305 187.615L162.826 189.305L168.294 190.556C168.134 190.006 168.003 189.448 167.902 188.885L162.305 187.615Z" fill="#FFD884"/>
<path d="M184.211 164.227C181.818 156.468 174.73 155.759 168.377 162.64C162.212 169.315 159.063 180.697 161.038 188.446C162.901 189.716 164.764 190.939 166.552 192.265C171.684 189.193 176.797 186.075 182.004 183.115C184.854 176.85 185.86 169.567 184.211 164.227Z" fill="#FFBE2A"/>
<path d="M182.32 166.075C181.445 163.125 179.712 161.22 177.458 160.707C174.757 160.09 171.581 161.538 168.74 164.675C163.441 170.519 160.721 180.622 162.686 187.185C163.074 188.648 163.831 189.985 164.884 191.069C165.294 191.349 165.695 191.648 166.095 191.938C166.27 192.04 166.451 192.134 166.635 192.218L167.427 191.742C165.564 191.2 164.148 189.529 163.394 186.971C161.531 180.631 164.139 170.846 169.28 165.17C171.944 162.238 174.869 160.875 177.291 161.435C178.121 161.632 178.885 162.044 179.507 162.63C180.521 163.644 181.248 164.911 181.612 166.299C183.252 171.808 181.473 179.903 177.617 185.663C178.073 185.383 178.548 185.113 179.004 184.842C182.432 179.016 183.903 171.388 182.32 166.075Z" fill="#E59D0C"/>
<path d="M166.04 159.063C165.867 158.613 165.668 158.174 165.444 157.747L151.733 155.6L151.389 157.14C150.944 157.593 150.524 158.07 150.131 158.569L150.02 158.709L166.71 161.323C166.536 160.556 166.312 159.801 166.04 159.063Z" fill="#E59D0C"/>
<path d="M159.94 153.321L152.489 152.145L152.051 154.106L164.327 156.029C163.268 154.593 161.696 153.623 159.94 153.321Z" fill="#E59D0C"/>
<path d="M150.308 163.788L167.269 166.439C167.268 165.264 167.181 164.091 167.008 162.929L149.312 160.128L149.2 159.82C145.338 165.572 143.397 172.405 143.658 179.333C146.645 181.201 149.644 183.068 152.655 184.935L160.544 186.168C160.6 186.102 160.665 186.046 160.721 185.972C161.587 184.882 162.362 183.723 163.041 182.508L149.898 180.454L149.256 178.792L163.814 181.07C164.343 179.987 164.809 178.874 165.211 177.737L154.239 176.019L153.596 174.366L165.704 176.234C166.049 175.132 166.338 174.011 166.571 172.891L152.6 170.706L151.957 169.044L166.859 171.379C167.044 170.247 167.165 169.106 167.223 167.961L150.932 165.412L150.308 163.788Z" fill="#E59D0C"/>
<path d="M150.348 153.826L150.981 155.478L151.726 155.6L152.061 154.096L150.348 153.826Z" fill="#FFD884"/>
<path d="M164.336 156.02L152.06 154.097L151.734 155.6L165.445 157.747C165.133 157.136 164.762 156.558 164.336 156.02Z" fill="#FFD884"/>
<path d="M148.65 158.494L149.172 159.848C149.442 159.465 149.731 159.082 150.02 158.709L148.65 158.494Z" fill="#FFD884"/>
<path d="M167.008 162.929C166.934 162.378 166.831 161.846 166.71 161.323L150.019 158.709C149.731 159.082 149.442 159.465 149.172 159.848L149.284 160.156L167.008 162.929Z" fill="#FFD884"/>
<path d="M150.942 165.441L167.232 167.99C167.232 167.476 167.232 166.953 167.232 166.44L150.309 163.788L150.942 165.441Z" fill="#FFD884"/>
<path d="M152.601 170.734L166.572 172.919C166.674 172.415 166.758 171.911 166.842 171.406L151.939 169.072L152.601 170.734Z" fill="#FFD884"/>
<path d="M154.257 176.019L165.211 177.737C165.388 177.251 165.555 176.756 165.714 176.261L153.605 174.394L154.257 176.019Z" fill="#FFD884"/>
<path d="M149.229 178.811L149.871 180.472L163.013 182.527C163.283 182.06 163.544 181.593 163.786 181.089L149.229 178.811Z" fill="#FFD884"/>
<path d="M155.899 187.073L159.27 187.605C159.68 187.185 160.09 186.728 160.491 186.233L152.602 185L155.899 187.073Z" fill="#FFD884"/>
<path d="M153.105 185.206C153.216 185.066 153.337 184.945 153.458 184.804C159.326 177.503 161.72 165.45 158.805 157.878C155.889 150.306 148.755 150.082 142.887 157.374C139.086 162.374 136.821 168.376 136.367 174.646C141.872 178.344 147.516 181.77 153.105 185.206Z" fill="#FFBE2A"/>
<path d="M138.639 176.159C138.629 170.301 140.5 164.595 143.976 159.885C146.425 156.776 149.238 155.217 151.706 155.6C152.561 155.732 153.364 156.09 154.035 156.636C155.117 157.578 155.928 158.793 156.382 160.156C158.701 166.355 156.736 176.29 151.995 182.312C151.593 182.811 151.164 183.288 150.71 183.74L151.362 184.142C151.791 183.708 152.195 183.249 152.573 182.769C157.463 176.57 159.484 166.309 157.081 159.894C156 157.009 154.147 155.226 151.856 154.862C149.117 154.433 146.053 156.094 143.426 159.418C139.955 164.138 138.044 169.829 137.959 175.692L138.639 176.159Z" fill="#E59D0C"/>
<path d="M166.897 126.535L108.666 160.258L166.869 193.992L225.082 160.258L166.897 126.535ZM166.897 191.247L113.435 160.258L166.888 129.28L220.341 160.258L166.888 191.237L166.897 191.247Z" fill="#D26D62"/>
<path d="M108.667 160.259L93.2891 137.59L151.511 103.856L166.889 126.535L108.667 160.259Z" fill="#854032"/>
<path d="M225.118 160.259L240.496 137.59L182.264 103.856L166.887 126.535L225.118 160.259Z" fill="#AB5145"/>
<path d="M166.869 193.992L184.296 191.546L242.499 157.598L225.119 160.259L166.869 193.992Z" fill="#AB5145"/>
<path d="M166.738 193.992L149.321 191.546L91.1172 157.598L108.497 160.259L166.738 193.992Z" fill="#854032"/>
<path d="M303.321 157.822L227.598 201.657V156.991L303.321 113.165V157.822Z" fill="#408922"/>
<path d="M300.823 149.83V124.052C298.755 124.266 297.097 123.071 296.324 120.784L234.6 156.506C233.836 159.668 232.285 162.585 230.092 164.983V190.808C232.169 190.593 233.817 191.789 234.6 194.076L296.324 158.354C297.08 155.177 298.628 152.244 300.823 149.83Z" fill="#6EBC4D"/>
<path d="M275.75 149.092C275.75 156.683 271.149 165.506 265.458 168.801C259.767 172.097 255.166 168.596 255.166 160.996C255.166 153.396 259.776 144.582 265.458 141.286C271.14 137.991 275.75 141.492 275.75 149.092Z" fill="#408922"/>
<path d="M248.107 167.467C248.107 171.136 245.881 175.412 243.124 176.999C240.367 178.587 238.141 176.906 238.141 173.265C238.141 169.623 240.376 165.319 243.124 163.723C245.871 162.126 248.107 163.732 248.107 167.467Z" fill="#408922"/>
<path d="M246.523 168.4C246.523 170.855 245.033 173.712 243.198 174.777C241.363 175.841 239.873 174.711 239.873 172.256C239.873 169.8 241.363 166.943 243.198 165.879C245.033 164.815 246.523 165.935 246.523 168.4Z" fill="#B4EA9B"/>
<path d="M292.599 141.697C292.599 145.376 290.373 149.652 287.616 151.239C284.859 152.826 282.643 151.146 282.643 147.504C282.643 143.863 284.869 139.559 287.616 137.962C290.364 136.366 292.599 138.028 292.599 141.697Z" fill="#408922"/>
<path d="M290.951 142.659C290.951 145.114 289.47 147.962 287.626 149.026C285.782 150.091 284.301 148.961 284.301 146.506C284.301 144.05 285.791 141.202 287.626 140.138C289.461 139.074 290.951 140.203 290.951 142.659Z" fill="#B4EA9B"/>
<path d="M227.596 201.657L223.582 199.239V154.778L227.596 156.991V201.657Z" fill="#337216"/>
<path d="M223.582 154.778L227.596 156.991L303.319 113.165L299.37 110.887L223.582 154.778Z" fill="#B4EA9B"/>
<path d="M233.764 162.322V164.712L252.531 153.788V151.454L233.764 162.322Z" fill="#408922"/>
<path d="M276.934 137.346V139.737L295.701 128.813V126.469L276.934 137.346Z" fill="#408922"/>
<path d="M235.197 188.829V191.219L294.062 157.383V155.04L235.197 188.829Z" fill="#408922"/>
<path d="M303.33 120.046C303.33 120.046 305.193 122.221 305.286 127.394C305.286 129.261 303.656 131.362 303.656 136.394C303.656 144.368 304.41 155.59 304.634 157.243C304.979 159.857 297.919 159.624 297.919 159.624L293.541 146.244L303.33 120.046Z" fill="#FFC3B1"/>
<path d="M288.453 290.784C285.491 289.3 282.678 287.479 283.582 285.789C283.84 285.422 284.178 285.118 284.57 284.9C284.962 284.682 285.398 284.555 285.845 284.529C288.574 285.462 289.934 286.041 289.934 286.041C289.934 286.041 289.655 270.169 288.481 263.559C288.099 261.383 298.456 261.299 298.456 261.299C298.829 262.821 299.155 276.191 298.456 284.323C298.258 286.263 298.296 288.219 298.568 290.149C297.86 290.458 296.407 291.083 295.327 291.587C293.846 292.269 291.415 292.269 288.453 290.784Z" fill="#FFC3B1"/>
<path d="M298.689 294.444C297.702 296.806 295.42 296.582 290.8 294.92C287.096 293.674 283.596 291.884 280.415 289.608C277.5 287.451 277.472 287.162 277.09 285.705C276.55 283.66 279.531 282.512 284.476 284.052L285.845 284.491C285.398 284.517 284.962 284.644 284.57 284.862C284.178 285.08 283.841 285.385 283.582 285.752C282.651 287.442 285.492 289.262 288.453 290.747C291.415 292.231 293.846 292.231 295.327 291.55C296.408 291.055 297.861 290.42 298.568 290.112C298.866 292.138 299.332 293.062 298.689 294.444Z" fill="#2D2D2D"/>
<path d="M274.045 299.159C271.083 297.674 268.271 295.863 269.165 294.164C269.425 293.799 269.763 293.497 270.155 293.28C270.546 293.064 270.981 292.938 271.428 292.913C274.166 293.846 275.526 294.425 275.526 294.425C275.526 294.425 274.064 268.731 272.89 262.139C272.508 259.973 283.611 264.007 283.611 264.007C283.983 265.528 284.747 284.594 284.049 292.735C283.85 294.675 283.888 296.631 284.16 298.561C283.452 298.869 281.999 299.495 280.919 299.999C279.438 300.653 276.979 300.653 274.045 299.159Z" fill="#FFC3B1"/>
<path d="M284.283 302.847C283.296 305.209 281.014 304.985 276.394 303.323C272.688 302.079 269.188 300.289 266.009 298.011C263.093 295.854 263.066 295.564 262.674 294.108C262.143 292.063 265.115 290.915 270.07 292.455C270.563 292.605 271.001 292.754 271.43 292.894C270.983 292.92 270.548 293.045 270.156 293.262C269.764 293.478 269.426 293.78 269.166 294.145C268.235 295.844 271.085 297.656 274.047 299.14C277.009 300.625 279.44 300.634 280.921 299.953C282.001 299.458 283.454 298.823 284.162 298.515C284.432 300.522 284.879 301.446 284.283 302.847Z" fill="#2D2D2D"/>
<path d="M298.998 192.46C300.888 195.772 302.152 199.406 302.723 203.179C303.095 206.79 302.992 210.434 302.416 214.019C301.708 219.779 299.221 235.063 299.622 239.806C300.423 249.012 298.635 263.68 298.635 263.68C297.181 264.665 295.467 265.191 293.712 265.191C291.958 265.191 290.243 264.665 288.79 263.68C287.616 258.078 287.709 244.073 287.551 240.973C287.393 237.874 287.97 218.444 287.97 218.444C287.97 218.444 283.136 241.506 283.313 245.343C283.555 252.644 283.807 271.131 283.714 270.085C283.714 270.085 277.771 275.575 273.608 271.093C272.285 262.457 270.292 247.92 270.394 242.458C270.497 236.996 270.553 207.259 272.816 196.428C273.803 191.667 276.048 184.926 276.048 184.926L298.998 192.46Z" fill="#2D2D2D"/>
<path d="M283.583 115.966C282.41 116.778 277.995 117.786 276.803 127.468C275.713 136.039 277.595 138.28 279.336 139.008C280.778 139.293 282.245 139.421 283.714 139.391L283.583 146.636C286.266 147.604 289.2 147.604 291.882 146.636L295.943 144.956C294.844 142.629 294.387 140.05 294.621 137.486C294.956 131.595 297.033 123.211 295.552 120.092C292.898 114.434 286.769 113.744 283.583 115.966Z" fill="#FFC3B1"/>
<path d="M276.662 182.489C277.212 178.12 275.824 168.783 275.824 168.783C275.824 168.783 273.579 159.521 276.625 153.406C279.671 147.29 281.98 145.283 284.896 144.293C287.969 143.247 297.004 142.743 297.004 142.743C297.004 142.743 305.321 150.455 303.254 159.624C299.789 174.88 297.926 177.737 299.006 184.926L302.248 198.408C302.939 201.589 303.177 204.852 302.956 208.099C302.956 208.099 294.806 213.701 284.598 212.497C279.584 211.896 274.739 210.309 270.338 207.829C270.338 207.829 273.253 188.53 276.662 182.489Z" fill="#FF4C4C"/>
<path d="M276.485 124.145C276.802 127.469 279.522 128.458 281.943 130.998C284.365 133.537 285.669 135.965 290.941 139.746C292.878 141.128 292.394 151.884 296.082 159.465C300.012 167.579 297.721 169.063 297.721 169.063C297.721 169.063 308.898 165.431 304.362 152.892C302.695 148.317 296.296 144.573 296.082 139.746C295.979 137.524 298.941 135.293 299.891 131.082C302.881 117.861 296.762 114.099 290.978 112.875C280.639 110.691 275.852 117.32 276.485 124.145Z" fill="#2D2D2D"/>
<path d="M279.402 149.979C281.888 149.736 284.478 154.283 284.226 159.96C283.9 167.233 262.916 181.014 262.916 181.014C257.83 184.02 240.32 178.913 236.641 178.484C232.962 178.054 224.607 179.324 222.67 176.878C220.732 174.432 231.555 166.916 235.048 169.156C237.684 170.846 237.004 172.966 239.109 173.274C248.525 174.674 259.814 173.031 259.814 173.031C259.814 173.031 274.614 150.427 279.402 149.979Z" fill="#FFC3B1"/>
<path d="M279.336 128.897C279.336 128.897 281.869 124.546 282.968 128.897C283.295 129.952 283.219 131.09 282.754 132.091C282.289 133.092 281.469 133.884 280.454 134.312L279.336 128.897Z" fill="#FFC3B1"/>
<path d="M297.07 137.188C297.07 137.188 297.219 139.989 296.642 140.577C295.869 141.417 292.916 142.36 291.882 141.94C290.725 141.229 289.875 140.111 289.498 138.803C292.073 138.539 294.611 137.997 297.07 137.188Z" fill="#EB2E41"/>
<path d="M95.2167 200.742C95.2167 200.742 102.565 195.625 104.996 192.815C108.722 188.511 109.374 182.76 110.175 181.742C110.976 180.724 110.175 178.39 110.175 176.14C110.175 173.535 106.654 172.872 105.127 174.917C102.416 178.539 106.375 179.221 106.058 182.087C105.863 183.955 104.624 186.102 102.482 188.147C100.339 190.192 92.5156 194.682 92.5156 194.682L95.2167 200.742Z" fill="#FFC3B1"/>
<path d="M88.0536 206.073C88.0536 206.073 95.0671 202.824 96.4363 201.919C97.8054 201.013 99.3702 195.196 96.8927 192.853C96.4828 192.451 94.6945 190.341 94.6945 190.341L86.4609 194.076L88.0536 206.073Z" fill="#EB2E41"/>
<path d="M86.6838 201.274C87.1402 201.423 92.887 202.926 95.2155 207.315C97.544 211.703 93.0174 216.745 93.0174 216.745L86.125 212.076L86.6838 201.274Z" fill="#EB2E41"/>
<path d="M83.4166 209.061L82.6994 197.979C82.6994 197.979 78.4056 199.538 77.0458 203.011C75.6859 206.484 77.0458 212.684 77.0458 212.684L83.4166 209.061Z" fill="#EB2E41"/>
<path d="M86.0426 180.229C90.1222 180.426 94.9282 181.658 96.4837 188.166C98.8308 197.988 91.2957 200.107 91.2957 200.107V207.959H82.4102L82.5592 201.918L86.0426 180.229Z" fill="#FFC3B1"/>
<path d="M91.3138 200.145C91.3138 200.145 88.948 200.406 88.0445 201.956C87.1411 203.506 86.9082 207.997 86.9082 207.997L91.3231 207.016L91.3138 200.145Z" fill="#FF9E8A"/>
<path d="M87.337 303.66C88.1846 305.676 90.1312 305.527 94.071 304.07C97.2346 303.006 100.223 301.477 102.938 299.533C105.425 297.665 105.453 297.451 105.779 296.2C106.235 294.454 103.776 293.753 99.4732 294.79C93.4656 296.237 88.0448 300.233 87.4394 299.972C87.188 301.661 86.834 302.446 87.337 303.66Z" fill="#2D2D2D"/>
<path d="M72.6306 294.827C73.4689 296.844 75.4248 296.694 79.3647 295.228C82.5269 294.166 85.515 292.64 88.2316 290.7C90.7185 288.833 90.7371 288.609 91.0724 287.367C91.5288 285.621 89.0606 284.921 84.7575 285.957C78.7592 287.404 73.3292 291.391 72.7331 291.13C72.4723 292.829 72.1183 293.613 72.6306 294.827Z" fill="#2D2D2D"/>
<path d="M77.6586 228.49C75.6768 234.198 74.3579 240.116 73.728 246.127C73.4579 249.003 74.2869 254.763 73.728 261.392C72.452 276.583 71.8652 289.402 71.8652 289.402C71.8652 289.402 73.104 293.352 75.358 294.239C79.7728 295.975 83.424 291.438 83.424 291.438L84.7093 253.69L85.6407 254.222L86.5162 297.31C86.7361 298.365 87.1836 299.359 87.8272 300.221C88.4708 301.084 89.2949 301.796 90.2418 302.305C92.9243 303.669 96.119 301.53 98.1681 299.813C100.608 286.022 98.4847 275.976 98.7642 265.538C98.8666 261.803 98.9318 257.471 98.9877 256.547C99.5093 248.032 99.2764 236.324 99.1088 232.01C93.9209 232.906 77.6586 228.49 77.6586 228.49Z" fill="#6F2E25"/>
<path d="M82.5772 201.918C86.6381 200.107 91.5373 199.257 94.1825 191.947C96.0453 186.709 95.6355 182.451 90.5407 180.005C86.1538 177.904 80.2394 180.257 77.7526 186.354C75.0422 193.002 80.9193 196.942 82.5772 201.918Z" fill="#2D2D2D"/>
<path d="M122.974 150.259C122.557 150.019 122.128 149.801 121.688 149.605L109.664 156.571L110.363 157.98C110.307 158.597 110.269 159.222 110.269 159.848C110.269 159.904 110.269 159.969 110.269 160.034L124.911 151.594C124.297 151.105 123.649 150.659 122.974 150.259Z" fill="#E59D0C"/>
<path d="M122.973 184.207C123.141 184.31 123.308 184.375 123.476 184.468L124.696 186.933L134.345 181.331C135.012 179.856 135.425 178.277 135.566 176.663L122.777 184.067L122.973 184.207Z" fill="#E59D0C"/>
<path d="M114.627 149.634L108.107 153.368L109.039 155.161L119.797 148.933C118.049 148.478 116.192 148.729 114.627 149.634Z" fill="#E59D0C"/>
<path d="M122.254 176.215L135.005 168.83C134.767 167.638 134.456 166.463 134.073 165.31L124.461 170.912L122.924 169.978L133.542 163.834C133.124 162.762 132.651 161.712 132.127 160.688L119.86 167.793L118.323 166.86L131.363 159.297C130.796 158.299 130.174 157.332 129.5 156.403L115.222 164.665L113.685 163.778L128.587 155.179C127.849 154.264 127.046 153.403 126.184 152.603L110.649 161.594L110.369 161.435C110.909 169.67 115.529 178.68 121.397 183.068L135.694 174.796C135.694 174.702 135.694 174.618 135.694 174.525C135.685 173.133 135.567 171.744 135.34 170.37L123.809 177.046L122.254 176.215Z" fill="#E59D0C"/>
<path d="M107.473 156.057L109 156.944L109.652 156.57L108.972 155.188L107.473 156.057Z" fill="#FFD884"/>
<path d="M119.74 148.961L108.982 155.189L109.662 156.571L121.687 149.606C121.059 149.331 120.408 149.115 119.74 148.961Z" fill="#FFD884"/>
<path d="M109.076 160.763L110.334 161.491C110.334 161.015 110.287 160.557 110.278 160.072L109.076 160.763Z" fill="#FFD884"/>
<path d="M126.148 152.659C125.747 152.285 125.328 151.93 124.909 151.604L110.258 160.072C110.258 160.539 110.258 161.005 110.314 161.491L110.593 161.65L126.148 152.659Z" fill="#FFD884"/>
<path d="M115.214 164.721L129.492 156.458C129.185 156.038 128.868 155.627 128.561 155.235L113.658 163.834L115.214 164.721Z" fill="#FFD884"/>
<path d="M119.814 167.803L132.08 160.697C131.847 160.24 131.596 159.764 131.344 159.353L118.305 166.916L119.814 167.803Z" fill="#FFD884"/>
<path d="M124.416 170.874L134.028 165.272C133.86 164.778 133.692 164.292 133.497 163.807L122.879 169.95L124.416 170.874Z" fill="#FFD884"/>
<path d="M122.254 176.215L123.781 177.102L135.312 170.426C135.219 169.894 135.126 169.362 135.005 168.83L122.254 176.215Z" fill="#FFD884"/>
<path d="M116.396 186L117.924 186.933L122.777 184.132C122.302 183.843 121.845 183.516 121.361 183.199L116.396 186Z" fill="#FFD884"/>
<path d="M122.777 184.086L135.565 176.682C135.621 176.103 135.649 175.487 135.658 174.814L121.361 183.087C121.827 183.469 122.302 183.796 122.777 184.086Z" fill="#FFD884"/>
<path d="M125.357 188.259L130.712 185.15C132.337 184.358 133.625 183.01 134.345 181.35L124.695 186.952L125.357 188.259Z" fill="#FFD884"/>
<path d="M103.916 163.545C103.916 172.882 109.598 183.805 116.611 187.82C123.625 191.835 129.315 187.568 129.315 178.194C129.315 168.82 123.625 157.934 116.611 153.919C109.598 149.904 103.916 154.171 103.916 163.545Z" fill="#FFBE2A"/>
<path d="M120.792 186.793C119.226 186.741 117.701 186.271 116.377 185.43C110.491 181.947 105.638 172.685 105.564 164.787C105.517 160.557 106.877 157.317 109.289 155.945C111.292 154.778 113.853 155.011 116.498 156.57C122.385 160.053 127.247 169.315 127.321 177.214C127.321 181.443 126.008 184.683 123.596 186.065C122.741 186.55 121.774 186.801 120.792 186.793ZM112.074 155.982C111.223 155.971 110.384 156.187 109.643 156.608C107.482 157.859 106.262 160.847 106.299 164.815C106.374 172.48 111.068 181.452 116.759 184.823C119.162 186.242 121.416 186.466 123.223 185.449C125.384 184.197 126.604 181.21 126.557 177.251C126.483 169.576 121.798 160.604 116.107 157.233C114.913 156.464 113.538 156.023 112.121 155.954L112.074 155.982Z" fill="#E59D0C"/>
<path d="M93.4941 206.073C93.4941 206.073 101.029 203.496 103.665 201.274C106.301 199.052 109.766 196.606 113.156 194.094C116.546 191.583 119.816 189.958 121.539 187.055C123.262 184.151 122.405 180.855 123.551 181.453C124.696 182.05 124.966 184.3 124.482 185.794C123.998 187.288 126.345 184.571 130.368 183.992C134.392 183.413 133.489 184.198 131.719 188.474C131.239 189.613 130.434 190.584 129.405 191.265C128.376 191.946 127.168 192.307 125.935 192.302C123.374 192.405 120.551 195.784 118.484 198.203C115.041 201.8 111.356 205.156 107.456 208.249C104.187 210.826 97.0428 213.776 97.0428 213.776L93.4941 206.073Z" fill="#FFC3B1"/>
<path d="M78.0963 239.601C81.291 242.141 87.3638 243.681 91.136 243.905C94.9081 244.129 93.6973 240.049 93.4738 236.707C93.2502 233.364 89.18 236.427 86.4696 236.651C83.7592 236.875 81.7195 236.427 81.7567 234.391C81.794 232.356 83.9828 234.615 89.1241 234.391C94.2655 234.167 93.5669 228.192 94.7125 225.857C96.3704 222.608 95.4577 221.479 93.4272 222.832C91.3967 224.186 90.1766 225.587 90.2046 222.907C90.2325 220.228 92.5237 220.582 95.1782 218.08C97.8327 215.578 100.888 212.413 104.315 210.2C106.597 208.725 108.581 205.046 109.662 202.731C108.947 201.15 107.745 199.842 106.234 198.996C106.234 198.996 101.726 200.639 96.92 202.964C92.1139 205.289 91.285 205.289 91.285 205.289C91.285 205.289 83.6009 207.987 82.5018 203.683C80.639 203.487 77.1183 203.58 76.4198 207.913C75.7212 212.245 77.3512 224.886 74.9668 236.548C75.9192 237.655 76.9664 238.677 78.0963 239.601Z" fill="#FF4C4C"/>
<path d="M85.3721 247.64C91.0071 250.021 96.7724 248.966 99.3431 246.249C100.489 234.018 97.2568 219.173 98.6166 217.389C101.411 213.851 108.909 211.395 109.616 207.959C109.985 207.142 110.185 206.258 110.204 205.361C110.223 204.464 110.061 203.573 109.728 202.74C108.648 205.046 106.664 208.725 104.382 210.21C100.954 212.422 97.8622 215.587 95.2449 218.09C92.6277 220.592 90.2899 220.237 90.2712 222.917C90.2526 225.596 91.4634 224.205 93.4939 222.842C95.5244 221.479 96.4371 222.618 94.7792 225.867C93.587 228.201 94.2856 234.177 89.1908 234.401C84.096 234.625 81.8514 232.356 81.8234 234.401C81.7955 236.445 83.8259 236.894 86.5363 236.66C89.2467 236.427 93.3169 233.374 93.5405 236.716C93.764 240.059 94.9562 244.139 91.2026 243.915C87.4491 243.691 81.367 242.15 78.163 239.61C77.0447 238.7 76.007 237.694 75.0614 236.604C75.0614 236.763 75.0055 236.912 74.9683 237.071C74.8658 241.412 77.0174 244.111 85.3721 247.64Z" fill="#EB2E41"/>
<path d="M105.938 178.801C105.938 178.801 106.608 177.139 106.869 176C107.13 174.861 107.521 174.618 107.521 174.618C107.758 174.905 107.923 175.244 108.002 175.608C108.082 175.972 108.073 176.35 107.977 176.71C107.698 178.045 108.667 179.24 108.592 180.229C108.517 181.219 105.938 178.801 105.938 178.801Z" fill="#FFC3B1"/>
<path d="M56.768 149.26C55.0615 148.926 53.3345 148.707 51.5987 148.606C51.9896 147.92 52.2368 147.161 52.3252 146.375C52.7071 144.564 52.3252 143.257 51.5987 144.713C50.4807 147.206 48.455 149.176 45.9358 150.222C42.117 152.014 30.7818 145.395 30.7818 145.395L30.1019 146.328C29.0774 154.619 35.4389 154.04 35.4389 154.04C35.4389 154.04 41.3533 155.618 45.2372 155.45C48.7902 155.378 52.3289 154.978 55.8086 154.255C61.4995 152.911 59.2828 149.774 56.768 149.26Z" fill="#C1592B"/>
<path d="M22.6326 266.285C25.4827 264.857 28.221 263.111 27.2896 261.486C27.0418 261.135 26.7179 260.843 26.3421 260.635C25.9663 260.426 25.5483 260.306 25.1195 260.282C22.4929 261.141 21.1796 261.729 21.1796 261.729C21.1796 261.729 21.459 246.454 22.5767 240.124C22.9493 238.042 12.9926 237.958 12.9926 237.958C12.6387 239.424 12.3313 252.262 12.9926 260.076C13.188 261.941 13.1536 263.822 12.8901 265.678C13.5701 265.977 14.9672 266.612 16.0103 267.06C17.454 267.714 19.7825 267.714 22.6326 266.285Z" fill="#C1592B"/>
<path d="M12.7956 269.842C13.727 272.111 15.9438 271.896 20.3773 270.3C23.9369 269.101 27.3012 267.383 30.3619 265.202C33.1561 263.12 33.1561 262.849 33.5566 261.467C34.0782 259.507 31.2095 258.405 26.45 259.889C25.9843 260.029 25.5186 260.17 25.1461 260.31C25.5806 260.323 26.0062 260.436 26.3905 260.64C26.7747 260.844 27.1073 261.133 27.3628 261.486C28.229 263.111 25.5 264.856 22.7058 266.285C19.9116 267.713 17.5272 267.713 16.1114 267.06C15.0683 266.584 13.6712 265.977 12.9912 265.678C12.628 267.592 12.2275 268.479 12.7956 269.842Z" fill="#2D2D2D"/>
<path d="M36.483 274.342C39.3331 272.914 42.0714 271.168 41.14 269.543C40.8913 269.192 40.5673 268.901 40.1919 268.691C39.8164 268.481 39.3989 268.357 38.9699 268.33C36.3433 269.198 35.03 269.786 35.03 269.786C35.03 269.786 35.7565 245.81 36.8928 239.48C37.2654 237.398 27.2714 240.535 27.2714 240.535C26.9175 241.991 26.1817 260.319 26.8523 268.134C27.0458 269.998 27.0083 271.88 26.7405 273.736C27.4205 274.034 28.8176 274.669 29.8607 275.117C31.3044 275.771 33.6329 275.771 36.483 274.342Z" fill="#D87745"/>
<path d="M26.6465 277.899C27.5779 280.168 29.7946 279.953 34.2281 278.357C37.7888 277.156 41.1533 275.435 44.2128 273.25C47.007 271.177 47.007 270.897 47.4075 269.515C47.9197 267.554 45.0603 266.453 40.3009 267.928L38.9969 268.348C39.426 268.376 39.8435 268.499 40.2189 268.709C40.5944 268.919 40.9183 269.21 41.1671 269.562C42.0333 271.186 39.3043 272.932 36.5101 274.361C33.7159 275.789 31.3315 275.789 29.9064 275.136C28.8632 274.66 27.4661 274.053 26.7862 273.754C26.4323 275.649 26.0783 276.527 26.6465 277.899Z" fill="#2D2D2D"/>
<path d="M63.0192 128.355C62.6022 128.115 62.1732 127.897 61.7339 127.702L49.7188 134.657L50.4173 136.077C50.3614 136.683 50.3335 137.309 50.3335 137.944V138.131L64.9658 129.662C64.3475 129.183 63.6971 128.746 63.0192 128.355Z" fill="#E59D0C"/>
<path d="M63.0179 162.303L63.5208 162.555L64.741 165.02L74.3903 159.418C75.0594 157.943 75.472 156.364 75.6104 154.75L62.8223 162.145L63.0179 162.303Z" fill="#E59D0C"/>
<path d="M54.6819 127.72L48.1621 131.455L49.0935 133.248L59.8512 127.02C58.1031 126.566 56.247 126.817 54.6819 127.72Z" fill="#E59D0C"/>
<path d="M62.3004 154.302L75.0513 146.926C74.8113 145.735 74.5002 144.56 74.1199 143.406L64.5078 149.008L62.971 148.074L73.5983 141.931C73.1766 140.862 72.701 139.815 72.1733 138.794L59.9067 145.89L58.3699 145.003L71.4095 137.44C70.8433 136.444 70.2214 135.481 69.5467 134.555L55.3056 142.818L53.7688 141.931L68.6712 133.323C67.9306 132.409 67.1276 131.548 66.2682 130.746L50.6486 139.746L50.3691 139.578C50.9094 147.822 55.5291 156.823 61.397 161.22L75.694 152.939C75.694 152.855 75.694 152.771 75.694 152.677C75.6856 151.285 75.5672 149.896 75.3401 148.522L63.8186 155.189L62.3004 154.302Z" fill="#E59D0C"/>
<path d="M47.5195 134.144L49.047 135.04L49.699 134.658L49.0191 133.276L47.5195 134.144Z" fill="#FFD884"/>
<path d="M59.785 127.048L49.0273 133.276L49.7073 134.658L61.7317 127.702C61.1043 127.424 60.4527 127.206 59.785 127.048Z" fill="#FFD884"/>
<path d="M49.1211 138.85L50.3785 139.578C50.3785 139.102 50.3785 138.644 50.3226 138.159L49.1211 138.85Z" fill="#FFD884"/>
<path d="M66.1953 130.745C65.7948 130.372 65.3757 130.027 64.9566 129.69L50.3242 138.159C50.3242 138.626 50.3242 139.092 50.3801 139.578L50.6595 139.746L66.1953 130.745Z" fill="#FFD884"/>
<path d="M55.3054 142.818L69.5839 134.555C69.2765 134.135 68.9598 133.724 68.6525 133.322L53.75 141.931L55.3054 142.818Z" fill="#FFD884"/>
<path d="M59.8604 145.89L72.127 138.794C71.8942 138.336 71.6427 137.86 71.3912 137.44L58.3516 145.003L59.8604 145.89Z" fill="#FFD884"/>
<path d="M64.4607 148.971L74.0727 143.369C73.9051 142.883 73.7374 142.388 73.5511 141.903L62.9238 148.046L64.4607 148.971Z" fill="#FFD884"/>
<path d="M62.3008 154.302L63.8376 155.189L75.3591 148.522C75.2752 147.99 75.1728 147.458 75.0517 146.917L62.3008 154.302Z" fill="#FFD884"/>
<path d="M56.4414 164.096L57.9689 165.03L62.8215 162.229C62.3465 161.939 61.8901 161.622 61.4058 161.295L56.4414 164.096Z" fill="#FFD884"/>
<path d="M62.822 162.173L75.6102 154.778C75.666 154.19 75.694 153.574 75.7033 152.911L61.4062 161.192C61.872 161.566 62.347 161.864 62.822 162.173Z" fill="#FFD884"/>
<path d="M65.4015 166.355L70.7571 163.237C72.3837 162.449 73.6731 161.1 74.3896 159.437L64.7402 165.039L65.4015 166.355Z" fill="#FFD884"/>
<path d="M64.2819 166.981C69.8861 164.59 71.012 154.602 66.7966 144.671C62.5812 134.74 54.6208 128.628 49.0165 131.018C43.4123 133.408 42.2864 143.397 46.5018 153.328C50.7172 163.258 58.6776 169.371 64.2819 166.981Z" fill="#FFBE2A"/>
<path d="M60.8378 164.88C59.275 164.832 57.7537 164.364 56.4323 163.527C50.5365 160.035 45.6839 150.782 45.6094 142.883C45.6094 138.645 46.9227 135.414 49.335 134.032C51.3375 132.874 53.8989 133.099 56.5441 134.658C62.4305 138.14 67.2924 147.402 67.367 155.301C67.367 159.54 66.0537 162.77 63.6413 164.152C62.7869 164.638 61.8199 164.889 60.8378 164.88ZM52.1199 134.07C51.2672 134.057 50.427 134.276 49.6889 134.704C47.5281 135.956 46.3079 138.943 46.3452 142.902C46.4197 150.567 51.114 159.549 56.8048 162.91C59.2079 164.339 61.4619 164.554 63.2688 163.536C65.4296 162.285 66.6498 159.297 66.6032 155.338C66.5287 147.673 61.8437 138.691 56.1529 135.33C54.9483 134.545 53.5552 134.1 52.1199 134.042V134.07Z" fill="#E59D0C"/>
<path d="M26.8148 106.536C27.9976 107.357 32.4032 108.403 33.614 118.057C34.6944 126.656 32.813 128.888 31.0713 129.616C29.6277 129.907 28.1566 130.039 26.6844 130.008L26.8148 137.263C24.1296 138.231 21.1918 138.231 18.5066 137.263L14.4271 135.582C15.5307 133.257 15.9907 130.677 15.759 128.113C15.4237 122.212 13.3374 113.809 14.8276 110.691C17.4821 105.005 23.6387 104.314 26.8148 106.536Z" fill="#D87745"/>
<path d="M12.2558 131.054C12.2558 131.054 23.8517 134.406 26.8136 135.405C29.6078 136.338 31.8432 138.28 34.7585 144.153C37.6738 150.026 35.5222 158.933 35.5222 158.933L34.6467 174.936C34.6467 174.936 28.5833 182.302 23.1904 182.816C15.823 183.525 15.022 179.473 15.022 179.473C15.022 179.473 5.65212 158.933 7.17031 149.073C8.26709 142.913 9.97058 136.877 12.2558 131.054Z" fill="#FFBE2A"/>
<path d="M33.8837 114.733C33.5763 118.057 30.8473 119.056 28.4163 121.596C25.9854 124.135 25.7432 127.553 25.0074 129.821C24.2716 132.09 25.2961 142.202 21.6078 149.839C17.6679 157.962 12.6104 159.726 12.6104 159.726C8.10585 152.328 4.90479 144.208 3.14735 135.722C0.651186 122.585 9.66717 105.481 19.4469 103.417C29.7669 101.251 34.5636 107.899 33.8837 114.733Z" fill="#2D2D2D"/>
<path d="M32.0941 140.791C29.6911 140.567 27.2042 144.928 27.4371 150.39C27.763 157.373 42.265 169.333 42.265 169.333C47.1549 172.237 61.8245 167.7 65.3917 167.279C68.959 166.859 70.8591 166.617 72.7312 164.273C74.6033 161.93 70.1698 160.296 70.1698 160.296C70.7241 159.763 71.1345 159.098 71.3626 158.364C71.5906 157.629 71.6289 156.848 71.4738 156.094C70.8125 152.854 70.1698 157.541 68.0742 159.241C65.7364 161.108 65.0471 161.986 63.026 162.284C57.182 163.047 51.2523 162.832 45.4783 161.649C45.4783 161.649 36.6766 141.23 32.0941 140.791Z" fill="#D87745"/>
<path d="M20.4727 103.24C20.4727 103.24 29.8891 104.024 29.1627 112.203C28.4362 120.382 28.4548 121.596 28.4548 121.596C28.4548 121.596 30.2151 116.732 31.072 113.006C31.9289 109.281 30.774 100.738 20.4727 103.24Z" fill="#FFBE2A"/>
<path d="M31.0899 119.495C31.0899 119.495 28.5471 115.135 27.4574 119.495C27.1251 120.55 27.1979 121.69 27.6614 122.694C28.1249 123.698 28.9457 124.491 29.9629 124.92L31.0899 119.495Z" fill="#D87745"/>
<path d="M14.3245 171.537C14.3245 171.537 11.0552 181.229 10.0586 186.98C7.59042 201.312 8.40074 239.61 8.40074 239.61C8.40074 239.61 21.31 247.005 30.2142 246.398C43.2538 245.53 47.1005 239.61 47.1005 239.61C47.1005 239.61 41.8381 202.357 40.9533 195.84C39.2022 182.965 33.6604 170.678 33.6604 170.678L14.3245 171.537Z" fill="#FFBE2A"/>
<path d="M12.3203 177.839C12.3203 177.839 21.0196 180.864 27.2228 178.773C33.4259 176.682 35.4843 175.347 35.4843 175.347L34.7206 171.752C31.2777 173.192 27.6607 174.171 23.9629 174.665C20.0222 175.106 16.0341 174.557 12.3576 173.068L12.3203 177.839Z" fill="#E59D0C"/>
<path d="M209.247 274.809H172.568V279.543H209.247V274.809Z" fill="#E59D0C"/>
<path d="M209.249 279.506C209.216 278.404 208.808 277.347 208.094 276.509V282.503C208.808 281.665 209.216 280.608 209.249 279.506Z" fill="#E59D0C"/>
<path d="M207.887 276.284C205.149 273.147 198.573 270.925 190.908 270.925C180.783 270.925 172.568 274.791 172.568 279.543C172.616 280.845 173.167 282.077 174.105 282.979V276.284H175.26V284.015C176.036 284.605 176.869 285.115 177.747 285.537V278.311H178.911V286.041C179.725 286.367 180.555 286.65 181.398 286.891V280.271H182.553V287.199C183.354 287.386 184.183 287.554 185.04 287.684V280.271H186.204V287.909C187.018 288.014 187.846 288.089 188.691 288.133V280.327H189.855V288.179C190.2 288.179 190.554 288.179 190.908 288.179C191.262 288.179 191.839 288.179 192.342 288.179V280.337H193.497V288.114C194.345 288.058 195.183 287.983 195.984 287.871V280.337H197.148V287.694C198.005 287.544 198.843 287.376 199.635 287.18V280.337H200.79V286.872C201.636 286.61 202.467 286.298 203.277 285.939V278.357H204.441V285.388C205.327 284.947 206.161 284.408 206.928 283.782V276.313L207.887 276.284Z" fill="#E59D0C"/>
<path d="M174.105 276.285V282.979C174.458 283.359 174.844 283.706 175.26 284.015V276.285H174.105Z" fill="#FFBE2A"/>
<path d="M177.748 278.311V285.537C178.121 285.714 178.512 285.883 178.912 286.051V278.311H177.748Z" fill="#FFBE2A"/>
<path d="M181.398 280.28V286.9L182.553 287.208V280.28H181.398Z" fill="#FFBE2A"/>
<path d="M185.041 280.28V287.694C185.423 287.759 185.814 287.806 186.205 287.862V280.28H185.041Z" fill="#FFBE2A"/>
<path d="M188.691 280.28V288.086L189.856 288.132V280.28H188.691Z" fill="#FFBE2A"/>
<path d="M192.344 280.28V288.123L193.499 288.058V280.28H192.344Z" fill="#FFBE2A"/>
<path d="M195.947 280.28V287.815L197.112 287.638V280.28H195.947Z" fill="#FFBE2A"/>
<path d="M199.672 280.28V287.124C200.072 287.021 200.454 286.909 200.827 286.788V280.252L199.672 280.28Z" fill="#FFBE2A"/>
<path d="M203.277 278.311V285.892C203.687 285.714 204.069 285.537 204.442 285.341V278.311H203.277Z" fill="#FFBE2A"/>
<path d="M208.056 276.285H207.852C207.926 276.378 207.982 276.462 208.056 276.546V276.285Z" fill="#FFBE2A"/>
<path d="M208.056 282.54V276.546C207.982 276.462 207.926 276.378 207.851 276.285H206.92V283.754C207.339 283.389 207.719 282.982 208.056 282.54Z" fill="#FFBE2A"/>
<path d="M209.249 274.837C209.249 279.59 201.043 283.446 190.91 283.446C180.776 283.446 172.57 279.562 172.57 274.837C172.57 270.113 180.785 266.22 190.91 266.22C201.034 266.22 209.249 270.048 209.249 274.837Z" fill="#FFE7A4"/>
<path d="M205.093 274.473C205.093 278.152 198.741 281.14 190.908 281.14C183.075 281.14 176.723 278.152 176.723 274.473C176.723 270.795 183.075 267.816 190.908 267.816C198.741 267.816 205.093 270.795 205.093 274.473Z" fill="#FFBE2A"/>
<path d="M244.659 262.831H207.98V267.564H244.659V262.831Z" fill="#E59D0C"/>
<path d="M244.668 267.564C244.632 266.461 244.221 265.404 243.504 264.567V270.561C244.221 269.724 244.632 268.667 244.668 267.564Z" fill="#E59D0C"/>
<path d="M243.3 264.305C240.561 261.168 233.986 258.956 226.33 258.956C216.196 258.956 207.99 262.812 207.99 267.564C208.038 268.864 208.585 270.095 209.518 271V264.305H210.682V272.036C211.455 272.63 212.289 273.14 213.169 273.558V266.332H214.324V274.072C215.097 274.38 215.935 274.669 216.811 274.921V268.302H217.975V275.229C218.767 275.416 219.605 275.584 220.462 275.724V268.302H221.617V275.883C222.43 275.989 223.259 276.063 224.104 276.107V268.302H225.268V276.154C225.622 276.154 225.966 276.154 226.33 276.154C226.693 276.154 227.261 276.154 227.755 276.154V268.302H228.919V276.079C229.766 276.023 230.595 275.948 231.406 275.836V268.302H232.561V275.659C233.418 275.509 234.256 275.341 235.048 275.145V268.302H236.212V274.837C237.058 274.573 237.888 274.261 238.699 273.903V266.322H239.854V273.353C240.741 272.914 241.575 272.375 242.34 271.747V264.277L243.3 264.305Z" fill="#E59D0C"/>
<path d="M209.52 264.306V271C209.875 271.381 210.265 271.728 210.684 272.036V264.306H209.52Z" fill="#FFBE2A"/>
<path d="M213.17 266.332V273.558C213.533 273.735 213.924 273.904 214.325 274.072V266.332H213.17Z" fill="#FFBE2A"/>
<path d="M216.812 268.302V274.921L217.977 275.23V268.302H216.812Z" fill="#FFBE2A"/>
<path d="M220.463 268.302V275.771L221.618 275.93V268.302H220.463Z" fill="#FFBE2A"/>
<path d="M224.105 268.302V276.107C224.497 276.107 224.879 276.107 225.27 276.154V268.302H224.105Z" fill="#FFBE2A"/>
<path d="M227.756 268.302V276.144L228.92 276.079V268.302H227.756Z" fill="#FFBE2A"/>
<path d="M231.406 268.302V275.836L232.561 275.659V268.302H231.406Z" fill="#FFBE2A"/>
<path d="M235.066 268.302V275.146C235.467 275.043 235.849 274.931 236.231 274.81V268.274L235.066 268.302Z" fill="#FFBE2A"/>
<path d="M238.699 266.332V273.904C239.1 273.726 239.491 273.549 239.854 273.353V266.322L238.699 266.332Z" fill="#FFBE2A"/>
<path d="M243.506 264.306H243.301L243.506 264.567V264.306Z" fill="#FFBE2A"/>
<path d="M243.504 270.561V264.567L243.299 264.306H242.367V271.775C242.786 271.41 243.167 271.003 243.504 270.561Z" fill="#FFBE2A"/>
<path d="M244.669 262.831C244.669 267.583 236.454 271.439 226.33 271.439C216.205 271.439 207.99 267.583 207.99 262.831C207.99 258.078 216.196 254.213 226.33 254.213C236.463 254.213 244.669 258.032 244.669 262.831Z" fill="#FFE7A4"/>
<path d="M240.515 262.494C240.515 266.173 234.163 269.161 226.33 269.161C218.497 269.161 212.145 266.173 212.145 262.494C212.145 258.816 218.487 255.837 226.33 255.837C234.172 255.837 240.515 258.816 240.515 262.494Z" fill="#FFBE2A"/>
<path d="M221.142 260.132H184.463V264.865H221.142V260.132Z" fill="#E59D0C"/>
<path d="M221.141 264.866C221.109 263.762 220.698 262.703 219.977 261.869V267.853C220.697 267.022 221.108 265.966 221.141 264.866Z" fill="#E59D0C"/>
<path d="M219.774 261.607C217.045 258.47 210.46 256.248 202.804 256.248C192.68 256.248 184.465 260.104 184.465 264.866C184.515 266.165 185.062 267.396 185.992 268.302V261.607H187.157V269.338C187.93 269.929 188.764 270.436 189.643 270.851V263.633H190.808V271.364C191.62 271.693 192.45 271.977 193.295 272.214V265.594H194.449V272.522C195.25 272.718 196.079 272.886 196.936 273.017V265.594H198.101V273.185C198.911 273.278 199.74 273.362 200.587 273.409V265.594H201.742V273.455H202.804C203.288 273.455 203.764 273.455 204.229 273.455V265.594H205.393V273.381C206.241 273.325 207.07 273.241 207.88 273.138V265.594H209.045V272.97C209.901 272.83 210.74 272.662 211.531 272.456V265.594H212.714V272.13C213.562 271.87 214.392 271.558 215.201 271.196V263.633H216.365V270.664C217.25 270.221 218.084 269.682 218.852 269.058V261.589L219.774 261.607Z" fill="#E59D0C"/>
<path d="M185.992 261.607V268.302C186.35 268.68 186.739 269.027 187.156 269.338V261.607H185.992Z" fill="#FFBE2A"/>
<path d="M189.643 263.633V270.851C190.015 271.037 190.397 271.205 190.807 271.364V263.633H189.643Z" fill="#FFBE2A"/>
<path d="M193.293 265.594V272.214C193.666 272.326 194.057 272.429 194.448 272.522V265.594H193.293Z" fill="#FFBE2A"/>
<path d="M196.936 265.594V273.017C197.317 273.082 197.709 273.129 198.1 273.185V265.594H196.936Z" fill="#FFBE2A"/>
<path d="M200.605 265.594V273.409H201.76V265.594H200.605Z" fill="#FFBE2A"/>
<path d="M204.229 265.594V273.446L205.393 273.381V265.594H204.229Z" fill="#FFBE2A"/>
<path d="M207.879 265.594V273.138L209.043 272.951V265.594H207.879Z" fill="#FFBE2A"/>
<path d="M211.529 265.594V272.438C211.92 272.344 212.302 272.223 212.684 272.111V265.575L211.529 265.594Z" fill="#FFBE2A"/>
<path d="M215.172 263.633V271.205C215.582 271.037 215.964 270.85 216.336 270.664V263.633H215.172Z" fill="#FFBE2A"/>
<path d="M219.978 261.607H219.773C219.848 261.691 219.913 261.785 219.978 261.869V261.607Z" fill="#FFBE2A"/>
<path d="M219.976 267.854V261.869C219.911 261.785 219.846 261.691 219.771 261.607H218.84V269.077C219.259 268.709 219.64 268.299 219.976 267.854Z" fill="#FFBE2A"/>
<path d="M221.142 260.132C221.142 264.884 212.936 268.74 202.802 268.74C192.669 268.74 184.463 264.884 184.463 260.132C184.463 255.38 192.678 251.514 202.802 251.514C212.927 251.514 221.142 255.37 221.142 260.132Z" fill="#FFE7A4"/>
<path d="M216.988 259.796C216.988 263.475 210.636 266.453 202.802 266.453C194.969 266.453 188.617 263.475 188.617 259.796C188.617 256.118 194.969 253.13 202.802 253.13C210.636 253.13 216.988 256.164 216.988 259.796Z" fill="#FFBE2A"/>
<path d="M228.407 249.881H191.729V254.615H228.407V249.881Z" fill="#E59D0C"/>
<path d="M228.406 254.614C228.375 253.511 227.963 252.452 227.242 251.617V257.611C227.963 256.777 228.375 255.718 228.406 254.614Z" fill="#E59D0C"/>
<path d="M227.047 251.356C224.309 248.219 217.733 246.006 210.068 246.006C199.943 246.006 191.729 249.862 191.729 254.614C191.776 255.914 192.324 257.145 193.256 258.05V251.356H194.42V259.086C195.193 259.68 196.027 260.191 196.907 260.608V253.363H198.071V261.103C198.885 261.428 199.715 261.712 200.558 261.953V255.333H201.713V262.261C202.514 262.448 203.343 262.616 204.2 262.746V255.333H205.364V262.914C206.178 263.02 207.007 263.095 207.851 263.139V255.333H208.987V263.185H210.049C210.534 263.185 210.981 263.185 211.474 263.185V255.342H212.639V263.12C213.486 263.064 214.315 262.989 215.125 262.877V255.342H216.29V262.7C217.147 262.55 217.985 262.382 218.776 262.186V255.342H219.931V261.878C220.777 261.614 221.608 261.302 222.418 260.944V253.363H223.583V260.394C224.467 259.95 225.301 259.412 226.069 258.788V251.318L227.047 251.356Z" fill="#E59D0C"/>
<path d="M193.256 251.356V258.031C193.613 258.41 194.003 258.756 194.42 259.068V251.337L193.256 251.356Z" fill="#FFBE2A"/>
<path d="M196.879 253.363V260.59C197.251 260.767 197.643 260.935 198.043 261.103V253.363H196.879Z" fill="#FFBE2A"/>
<path d="M200.605 255.352V261.972L201.76 262.28V255.352H200.605Z" fill="#FFBE2A"/>
<path d="M204.199 255.352V262.765C204.581 262.831 204.972 262.877 205.363 262.933V255.352H204.199Z" fill="#FFBE2A"/>
<path d="M207.852 255.352V263.157L209.006 263.204V255.352H207.852Z" fill="#FFBE2A"/>
<path d="M211.492 255.352V263.195L212.656 263.129V255.352H211.492Z" fill="#FFBE2A"/>
<path d="M215.145 255.352V262.887L216.309 262.709V255.352H215.145Z" fill="#FFBE2A"/>
<path d="M218.795 255.352V262.195C219.186 262.093 219.568 261.981 219.95 261.859V255.324L218.795 255.352Z" fill="#FFBE2A"/>
<path d="M222.438 253.363V260.945C222.847 260.767 223.229 260.59 223.602 260.394V253.363H222.438Z" fill="#FFBE2A"/>
<path d="M227.242 251.356H227.047L227.242 251.617V251.356Z" fill="#FFBE2A"/>
<path d="M227.242 257.611V251.617L227.047 251.356H226.115V258.825C226.529 258.458 226.906 258.051 227.242 257.611Z" fill="#FFBE2A"/>
<path d="M228.407 249.881C228.407 254.633 220.202 258.489 210.068 258.489C199.934 258.489 191.729 254.633 191.729 249.881C191.729 245.129 199.943 241.263 210.068 241.263C220.192 241.263 228.407 245.119 228.407 249.881Z" fill="#FFE7A4"/>
<path d="M224.253 249.544C224.253 253.223 217.901 256.211 210.068 256.211C202.235 256.211 195.883 253.223 195.883 249.544C195.883 245.866 202.235 242.887 210.068 242.887C217.901 242.887 224.253 245.894 224.253 249.544Z" fill="#FFBE2A"/>
</g>
<defs>
<clipPath id="clip0_3275_6205">
<rect width="314" height="316" fill="white" transform="translate(0 0.5)"/>
</clipPath>
</defs>
</svg>
