<svg width="610" height="466" viewBox="0 0 610 466" fill="none" xmlns="http://www.w3.org/2000/svg">
<path d="M603.021 380.353C596.778 332.277 620.59 281.635 604.032 236.079C598.773 221.61 589.759 208.874 582.413 195.351C571.302 174.87 563.994 152.539 560.843 129.444C558.793 114.375 558.524 99.0324 555.113 84.2155C545.644 43.1095 510.181 9.26303 468.74 1.78079C435.34 -4.24803 400.901 5.76081 370.537 20.9429C340.173 36.125 312.636 56.3979 282.976 72.9083C251.362 90.5142 217.519 103.763 182.366 112.296C169.356 115.45 156.015 118.014 144.094 124.111C114.491 139.25 99.5267 172.641 88.8918 204.186C78.257 235.731 68.6659 269.705 44.0576 292.092C37.463 298.096 29.9444 303.077 23.8317 309.568C3.70807 330.934 2.80414 365.288 14.5077 392.223C25.1626 416.738 50.1504 449.799 74.6338 462.197C75.5077 462.64 76.4017 463.053 77.3081 463.448H146.671C159.785 461.029 172.33 458.405 182.878 457.379C224.156 453.364 265.729 457.129 307.13 459.526C391.375 464.426 475.829 463.738 560.212 463.05C572.559 462.95 585.886 462.527 595.669 454.965C606.087 446.905 609.705 432.569 609.181 419.393C608.657 406.217 604.724 393.421 603.021 380.353Z" fill="#E2FAFA"/>
<path d="M547.719 303.259C543.724 303.759 537.668 311.885 536.954 312.703C536.55 313.165 536.133 313.643 535.706 314.158L538.345 317.433L533.978 316.36C526.654 326.329 523.613 339.257 525.82 351.462C526.107 353.043 526.454 354.494 526.789 355.897C527.321 358.124 527.823 360.228 527.743 361.651C527.595 364.315 525.276 367.757 522.819 371.407C519.305 376.616 514.935 383.1 514.329 391.382C513.879 397.519 515.657 402.967 517.075 407.347C518.049 410.349 518.971 413.161 518.856 415.16C518.728 417.354 517.25 420.253 515.687 423.323C514.489 425.592 513.406 427.921 512.441 430.3C508.47 440.607 508.608 452.05 512.828 462.257L532.252 454.117C530.151 448.952 530.081 443.181 532.058 437.967C532.664 436.411 533.528 434.715 534.445 432.911C536.692 428.493 539.494 422.997 539.878 416.383C540.225 410.402 538.562 405.299 537.094 400.796C536.108 397.771 535.176 394.917 535.321 392.926C535.518 390.249 537.818 386.832 540.26 383.212C543.417 378.532 547.252 372.838 548.436 365.741C544.63 367.34 538.14 370.109 537.251 370.804C536.305 371.555 544.568 364.743 548.8 361.261C548.785 357.371 547.949 353.864 547.26 350.979C546.98 349.806 546.715 348.695 546.533 347.692C545.284 340.803 547.282 333.183 551.754 327.795C552.061 327.427 552.413 327.024 552.785 326.596C554.436 324.71 556.489 322.364 557.979 319.129C558.35 318.32 558.672 317.49 558.943 316.643C561.243 309.45 555.203 302.316 547.719 303.259Z" fill="#9CDEDC"/>
<path d="M585.753 335.717C582.402 334.967 575.146 339.72 574.332 340.165C573.833 340.445 573.303 340.733 572.746 341.058C569.292 343.09 566.175 345.649 563.507 348.643L566.776 356.691L561.575 350.98C557.722 355.993 555.143 361.87 554.059 368.103C553.826 369.456 553.682 370.727 553.542 371.955C553.322 373.904 553.112 375.743 552.628 376.876C551.731 378.977 548.86 381.069 545.818 383.283C541.471 386.447 536.06 390.385 533.156 396.874C531.004 401.682 530.844 406.587 530.716 410.532C530.626 413.224 530.544 415.766 529.867 417.342C529.118 419.07 527.091 420.971 524.936 422.985C523.308 424.46 521.755 426.017 520.284 427.648C514.08 434.782 510.854 444.033 511.272 453.484L529.283 452.621C529.098 447.849 530.726 443.184 533.838 439.566C534.779 438.49 535.973 437.374 537.236 436.196C540.335 433.299 544.193 429.692 546.433 424.481C548.455 419.771 548.605 415.175 548.737 411.12C548.827 408.398 548.91 405.827 549.609 404.268C550.548 402.169 553.399 400.093 556.418 397.897C560.846 394.672 566.357 390.66 569.208 383.975C569.388 383.558 569.55 383.137 569.708 382.725H561.827L570.661 379.343C571.02 377.579 571.288 375.798 571.465 374.007C571.583 372.978 571.693 372.005 571.84 371.147C572.384 368.158 573.558 365.32 575.284 362.821C577.011 360.323 579.249 358.223 581.851 356.661C582.203 356.453 582.6 356.233 583.029 355.998C584.907 354.965 587.244 353.676 589.389 351.507C589.922 350.965 590.423 350.391 590.887 349.789C591.047 349.579 591.195 349.366 591.332 349.148L584.71 347.445L592.668 345.331C592.883 343.16 592.299 340.984 591.026 339.214C589.753 337.444 587.878 336.2 585.753 335.717Z" fill="#74BDC1"/>
<path d="M594.583 378.797C592.179 377.701 585.981 380.155 585.297 380.366C584.872 380.496 584.435 380.631 583.966 380.791C579.846 382.204 576.08 384.495 572.927 387.504C569.775 390.514 567.31 394.172 565.702 398.227C565.318 399.21 565.011 400.146 564.704 401.046C564.234 402.477 563.79 403.83 563.25 404.606C562.252 406.049 559.755 407.175 557.13 408.358C553.367 410.062 548.685 412.183 545.491 416.613C543.124 419.896 542.245 423.563 541.534 426.51C541.049 428.511 540.592 430.422 539.838 431.513C539.009 432.699 537.184 433.812 535.249 434.99C533.795 435.848 532.385 436.778 531.024 437.777C525.247 442.177 521.381 448.635 520.229 455.813L533.915 457.972C534.516 454.351 536.467 451.093 539.374 448.856C540.248 448.193 541.319 447.541 542.453 446.855C545.234 445.159 548.695 443.048 551.192 439.473C553.44 436.243 554.276 432.809 555.005 429.779C555.505 427.743 555.957 425.822 556.723 424.759C557.757 423.325 560.219 422.207 562.838 421.024C566.671 419.288 571.441 417.129 574.627 412.543C575.34 411.502 575.951 410.393 576.452 409.234L571.655 407.385L577.646 406.119C577.728 405.869 577.811 405.619 577.895 405.386C578.145 404.636 578.377 403.918 578.622 403.293C579.496 401.128 580.82 399.175 582.507 397.565C584.194 395.955 586.205 394.724 588.405 393.954C588.703 393.852 589.04 393.749 589.404 393.639C590.98 393.154 592.938 392.548 594.898 391.25C595.385 390.926 595.851 390.571 596.294 390.189C600.027 386.945 599.103 380.853 594.583 378.797Z" fill="#8FD0D6"/>
<path opacity="0.5" d="M319.703 168.051C317.705 164.841 314.664 162.44 311.57 160.271C295.533 149.077 276.779 142.422 257.284 141.009C252.72 140.686 247.084 139.933 245.548 135.618C244.128 131.655 247.501 127.46 251.292 125.674C255.082 123.888 259.462 123.493 263.18 121.531C266.898 119.57 269.897 114.957 267.947 111.227C266.773 108.989 264.246 107.868 261.864 107.032C246.847 101.764 231.006 101.529 215.032 102.897C204.282 106.488 193.393 109.621 182.366 112.296C169.356 115.45 156.015 118.014 144.094 124.111C143.035 124.654 141.994 125.22 140.97 125.809C150.743 127.917 160.6 129.562 170.54 130.745C174.69 131.245 179.677 132.263 181.067 136.213C182.256 139.588 180.041 143.418 181.085 146.84C182.476 151.395 188.354 152.403 193.106 152.594C197.858 152.784 203.731 153.759 205.154 158.302C205.786 160.326 205.259 162.555 204.21 164.409C201.486 169.189 195.72 171.413 190.254 171.946C184.788 172.479 179.255 171.696 173.774 172.196C160.886 173.372 148.346 181.582 135.854 178.2C130.285 176.699 125.581 173.024 120.355 170.572C115.326 168.213 109.982 167.038 104.488 166.547C101.06 173.089 97.9839 179.811 95.2744 186.683C106.439 186.408 118.305 186.335 127.806 192.204C130.575 193.917 133.05 196.086 135.861 197.727C139.489 199.846 143.622 201.029 147.799 201.455C164.202 203.118 179.362 193.477 195.243 189.087C217.217 183.013 240.739 187.1 262.591 193.63C271.33 196.241 280.07 199.258 289.149 199.986C298.228 200.714 307.964 198.863 314.786 192.799C321.608 186.735 324.512 175.811 319.703 168.051Z" fill="white"/>
<path d="M463.342 447.736C463.342 447.736 427.307 416.728 388.503 438.48C388.503 438.48 388.503 399.14 359.862 394.975C331.221 390.809 305.811 413.486 312.279 438.017C312.279 438.017 252.684 426.447 241.598 454.677L463.334 456.529L463.342 447.736Z" fill="#74BDC1"/>
<path d="M561.822 461.905C539.426 419.18 498.313 438.545 498.313 438.545C498.313 438.545 491.256 399.202 438.793 410.575C438.793 410.575 416.702 417.029 413.633 444.078C413.633 444.078 382.955 433.014 377.124 463.443L561.822 461.905Z" fill="#9DE0DE"/>
<path d="M178.268 186.993C178.268 186.993 173.666 189.6 172.275 193.287C171.097 196.434 165.833 195.884 162.537 200.089C158.894 204.762 153.7 211.746 165.618 216.462C173.022 219.391 184.81 221.643 187.482 219.666C190.154 217.69 196.527 218.483 195.093 197.72C195.093 197.72 177.666 190.433 177.492 190.39C177.317 190.348 178.268 186.993 178.268 186.993Z" fill="#333333"/>
<path d="M195.101 195.844C195.101 197.968 194.472 200.044 193.294 201.81C192.116 203.576 190.442 204.953 188.483 205.766C186.524 206.578 184.369 206.791 182.29 206.377C180.21 205.962 178.3 204.94 176.801 203.438C175.302 201.936 174.281 200.022 173.867 197.939C173.453 195.856 173.666 193.696 174.477 191.734C175.288 189.772 176.662 188.094 178.425 186.914C180.188 185.734 182.261 185.104 184.381 185.104C187.224 185.104 189.951 186.236 191.961 188.25C193.971 190.264 195.101 192.996 195.101 195.844Z" fill="#333333"/>
<path d="M223.844 228.294L223.06 228.662C219.729 229.463 200.732 233.998 199.855 233.415C198.896 232.78 194.612 223.909 194.612 223.909L189.735 231.862C189.735 231.862 194.14 240.222 197.006 241.545C199.803 242.836 219.497 235.669 225.045 232.289L225.605 232.039C226.144 232.154 227.562 232.355 227.562 232.355C233.223 232.997 232.639 233.032 232.686 232.812C232.734 232.592 230.439 231.602 230.579 231.389C230.719 231.176 234.042 231.389 233.882 231.119C233.723 230.849 230.656 230.223 230.716 230.026C230.776 229.828 233.985 230.098 233.962 229.625C233.94 229.152 230.429 228.99 230.561 228.625C230.694 228.259 234.307 228.522 234.227 228.092C234.165 227.729 230.129 227.321 228.848 227.199C228.811 227.19 228.775 227.172 228.745 227.147C228.716 227.122 228.692 227.091 228.676 227.055C228.661 227.019 228.654 226.98 228.656 226.942C228.658 226.903 228.669 226.865 228.689 226.831C230.169 224.64 230.162 224.369 229.897 224.237C229.707 224.139 227.847 225.55 226.032 226.758L223.844 228.294Z" fill="#FFC0BB"/>
<path d="M255.664 265.641H134.39C129.358 265.641 125.279 269.727 125.279 274.769V452.016C125.279 457.058 129.358 461.144 134.39 461.144H255.664C260.696 461.144 264.776 457.058 264.776 452.016V274.769C264.776 269.727 260.696 265.641 255.664 265.641Z" fill="#E03268"/>
<path d="M254.502 274.981H135.549V441.695H254.502V274.981Z" fill="#F3FCFF"/>
<path d="M172.545 259.579H212.438C215.69 259.579 218.809 260.873 221.109 263.177C223.408 265.481 224.7 268.606 224.7 271.864V279.277H160.292V271.864C160.292 268.608 161.583 265.485 163.88 263.181C166.178 260.877 169.294 259.582 172.545 259.579Z" fill="#CFE4FF"/>
<path d="M206.824 294.174H144.256V298.827H206.824V294.174Z" fill="#CFE4FF"/>
<path d="M206.824 311.252H144.256V315.905H206.824V311.252Z" fill="#CFE4FF"/>
<path d="M206.824 328.333H144.256V332.985H206.824V328.333Z" fill="#CFE4FF"/>
<path d="M206.824 345.414H144.256V350.067H206.824V345.414Z" fill="#CFE4FF"/>
<path d="M206.824 362.494H144.256V367.147H206.824V362.494Z" fill="#CFE4FF"/>
<path d="M206.824 379.575H144.256V384.228H206.824V379.575Z" fill="#CFE4FF"/>
<path d="M206.824 396.656H144.256V401.309H206.824V396.656Z" fill="#CFE4FF"/>
<path d="M206.824 413.737H144.256V418.39H206.824V413.737Z" fill="#CFE4FF"/>
<path d="M256.435 294.174H220.945V328.295H256.435V294.174Z" fill="#CFE4FF"/>
<path d="M256.435 339.22H220.945V373.341H256.435V339.22Z" fill="#CFE4FF"/>
<path d="M256.435 384.268H220.945V418.39H256.435V384.268Z" fill="#CFE4FF"/>
<path d="M216.133 301.696L215.856 308.425L210.023 306.177L210.8 301.336L216.133 301.696Z" fill="#FFC0BB"/>
<path d="M220.977 316.745L207.436 312.242C207.239 312.174 207.075 312.031 206.982 311.844C206.889 311.657 206.872 311.441 206.937 311.242C207.005 311.044 207.148 310.881 207.334 310.788C207.521 310.694 207.737 310.678 207.935 310.741L221.477 315.257C221.674 315.325 221.838 315.467 221.931 315.655C222.024 315.842 222.041 316.058 221.976 316.257C221.906 316.453 221.762 316.613 221.576 316.704C221.389 316.796 221.175 316.81 220.977 316.745Z" fill="#122F5B"/>
<path d="M209.404 306.079L207.501 310.136C207.266 310.637 207.401 311.204 207.783 311.332L221.052 315.755C221.243 315.811 221.447 315.81 221.638 315.752C221.828 315.693 221.997 315.579 222.123 315.425C222.448 315.069 222.693 314.457 222.373 313.423C221.751 311.367 218.053 309.671 216.59 307.625C216.56 307.583 216.518 307.552 216.47 307.535L210.365 305.501C210.023 305.381 209.616 305.628 209.404 306.079Z" fill="#55769F"/>
<path d="M214.797 309.693C214.761 309.636 214.745 309.569 214.753 309.502C214.76 309.435 214.79 309.373 214.837 309.325C215.289 308.825 216.57 307.697 218.131 308.537C218.177 308.576 218.207 308.63 218.217 308.689C218.227 308.748 218.215 308.809 218.183 308.86C218.123 308.983 218.011 309.038 217.934 308.99C216.533 308.24 215.437 309.24 215.057 309.666C214.967 309.761 214.86 309.771 214.797 309.693Z" fill="white"/>
<path d="M215.995 310.696C215.959 310.639 215.943 310.572 215.95 310.506C215.957 310.439 215.986 310.376 216.033 310.328C216.485 309.828 217.768 308.7 219.329 309.54C219.375 309.579 219.405 309.633 219.415 309.692C219.425 309.751 219.413 309.812 219.381 309.863C219.324 309.986 219.209 310.041 219.132 309.993C217.733 309.243 216.635 310.243 216.255 310.668C216.163 310.764 216.058 310.771 215.995 310.696Z" fill="white"/>
<path d="M217.107 311.632C217.071 311.575 217.056 311.507 217.063 311.44C217.071 311.373 217.1 311.31 217.147 311.262C217.599 310.762 218.895 309.633 220.443 310.476C220.489 310.515 220.519 310.569 220.529 310.628C220.539 310.687 220.527 310.748 220.495 310.799C220.438 310.922 220.323 310.977 220.246 310.929C218.845 310.179 217.749 311.179 217.369 311.607C217.356 311.63 217.339 311.649 217.317 311.663C217.295 311.677 217.27 311.686 217.245 311.689C217.219 311.691 217.193 311.687 217.169 311.677C217.145 311.668 217.124 311.652 217.107 311.632Z" fill="white"/>
<path d="M171.878 254.651C171.878 254.651 169.156 267.484 181.509 270.534C193.862 273.583 209.449 273.891 209.449 273.891L209.738 303.785L216.23 304.535C216.23 304.535 235.632 264.26 212.792 256.317L191.894 255.099L183.33 253.938C183.33 253.938 174.76 251.234 174.632 251.637C174.505 252.039 172.073 254.869 171.878 254.651Z" fill="#122F5B"/>
<path d="M186.426 212.292C186.426 212.292 178.81 210.586 174.857 210.718C170.904 210.851 176.278 221.267 176.278 221.267L182.73 221.41C182.73 221.41 186.663 218.783 187.24 218.818C189.415 218.948 187.719 212.68 187.719 212.68L186.426 212.292Z" fill="#FFC0BB"/>
<path d="M178.765 204.079L176.498 210.971C176.498 210.971 178.471 215.056 184.514 213.295C184.514 213.295 183.824 211.867 184.748 208.927C185.695 205.925 178.765 204.079 178.765 204.079Z" fill="#FFC0BB"/>
<path opacity="0.6" d="M178.765 204.079L177.701 207.299C178.333 209.65 180.39 211.254 184.268 211.751C184.283 210.791 184.444 209.838 184.748 208.927C185.694 205.925 178.765 204.079 178.765 204.079Z" fill="#FC8D84"/>
<path d="M192.586 199.035C192.087 200.154 192.424 201.379 193.318 201.772C194.212 202.165 195.333 201.577 195.815 200.456C196.297 199.336 195.98 198.112 195.086 197.719C194.192 197.327 193.078 197.915 192.586 199.035Z" fill="#F99893"/>
<path d="M192.087 205.643C192.383 205.158 192.634 204.648 192.836 204.117C193.37 202.727 193.726 201.274 193.895 199.794C193.929 199.504 193.982 199.219 194.039 198.934C194.313 197.645 194.314 196.313 194.043 195.023C193.772 193.734 193.235 192.515 192.467 191.446C191.698 190.377 190.715 189.48 189.58 188.814C188.445 188.148 187.184 187.727 185.877 187.577C184.571 187.428 183.247 187.554 181.992 187.948C180.737 188.341 179.577 188.993 178.588 189.861C177.599 190.73 176.802 191.796 176.249 192.991C175.695 194.187 175.397 195.485 175.374 196.802C175.106 196.628 174.8 196.52 174.482 196.486C174.164 196.453 173.842 196.495 173.544 196.61C172.41 197.08 171.968 198.611 172.545 200.029C173.122 201.448 174.528 202.216 175.661 201.745C175.815 201.682 175.96 201.598 176.091 201.495C176.438 206.133 180.128 209.805 184.668 209.853C186.818 209.869 188.894 209.064 190.474 207.601C190.576 207.519 190.686 207.424 190.801 207.311C191.299 206.813 191.731 206.252 192.087 205.643Z" fill="#FFC0BB"/>
<path d="M189.932 197.314C189.758 197.829 189.656 198.365 189.63 198.908C189.614 199.185 189.624 199.463 189.66 199.738C189.693 200.039 189.79 200.329 189.945 200.589L190.022 200.689L190.094 200.777C190.128 200.813 190.159 200.853 190.187 200.894C190.239 200.969 190.274 201.054 190.289 201.144C190.299 201.245 190.288 201.346 190.258 201.442C190.227 201.538 190.176 201.627 190.109 201.702C189.759 202.065 189.296 202.298 188.796 202.363C189.074 202.429 189.364 202.428 189.643 202.362C189.921 202.295 190.18 202.165 190.399 201.98C190.524 201.871 190.622 201.735 190.687 201.583C190.752 201.43 190.781 201.265 190.774 201.099C190.769 201.014 190.752 200.93 190.724 200.849C190.699 200.768 190.662 200.69 190.616 200.619C190.574 200.549 190.524 200.482 190.469 200.421C190.436 200.386 190.431 200.374 190.414 200.354L190.372 200.296C190.257 200.096 190.177 199.878 190.137 199.651C190.088 199.403 190.052 199.152 190.029 198.9C189.984 198.383 189.965 197.855 189.932 197.314Z" fill="#F99893"/>
<path d="M205.311 300.888L202.31 309.508L197.89 305.08L199.486 300.998L205.311 300.888Z" fill="#FFC0BB"/>
<path d="M186.738 198.413C186.737 198.577 186.687 198.736 186.595 198.871C186.503 199.006 186.373 199.11 186.222 199.171C186.071 199.232 185.905 199.247 185.745 199.214C185.586 199.18 185.44 199.1 185.326 198.983C185.211 198.866 185.135 198.718 185.104 198.558C185.074 198.397 185.093 198.231 185.157 198.081C185.221 197.931 185.328 197.803 185.465 197.714C185.601 197.625 185.761 197.578 185.924 197.58C186.142 197.583 186.35 197.673 186.502 197.829C186.655 197.985 186.74 198.195 186.738 198.413Z" fill="#333333"/>
<path d="M192.854 198.563C192.852 198.726 192.802 198.885 192.71 199.02C192.618 199.155 192.489 199.26 192.337 199.321C192.186 199.382 192.02 199.397 191.861 199.363C191.701 199.329 191.555 199.249 191.441 199.133C191.327 199.016 191.25 198.868 191.22 198.707C191.19 198.547 191.208 198.381 191.272 198.23C191.336 198.08 191.443 197.952 191.58 197.863C191.716 197.774 191.876 197.728 192.04 197.73C192.258 197.732 192.466 197.821 192.618 197.978C192.771 198.134 192.856 198.344 192.854 198.563Z" fill="#333333"/>
<g style="mix-blend-mode:multiply" opacity="0.3">
<path d="M186.611 203.896C186.973 203.785 187.355 203.753 187.73 203.803C188.105 203.853 188.465 203.984 188.786 204.186C188.786 204.186 189.927 203.471 190.823 204.154C190.689 204.645 190.386 205.074 189.968 205.364C189.549 205.654 189.043 205.787 188.536 205.74C188.041 205.737 187.565 205.545 187.207 205.202C186.849 204.859 186.636 204.392 186.611 203.896Z" fill="#F99893"/>
</g>
<path d="M185.637 203.286C185.847 203.459 186.069 203.616 186.301 203.756C186.529 203.899 186.767 204.025 187.013 204.134C187.499 204.355 188.018 204.495 188.549 204.547C189.079 204.589 189.613 204.53 190.122 204.372C190.635 204.2 191.12 203.957 191.565 203.649C191.363 203.834 191.145 204.002 190.913 204.149C190.676 204.297 190.425 204.421 190.164 204.522C189.904 204.624 189.634 204.698 189.358 204.742C188.523 204.854 187.674 204.695 186.936 204.289C186.447 204.034 186.008 203.695 185.637 203.286Z" fill="#F99893"/>
<path d="M187.045 195.946C186.648 195.833 186.242 195.75 185.832 195.696C185.451 195.649 185.065 195.655 184.686 195.713C184.308 195.769 183.941 195.881 183.597 196.046C183.41 196.111 183.25 196.231 183.06 196.319C182.87 196.406 182.711 196.541 182.506 196.639C182.604 196.442 182.719 196.253 182.85 196.076C182.992 195.902 183.154 195.745 183.332 195.608C183.696 195.325 184.126 195.14 184.581 195.071C185.037 195 185.504 195.045 185.939 195.201C186.367 195.347 186.749 195.604 187.045 195.946Z" fill="#333333"/>
<path d="M190.806 195.946C191.138 195.646 191.544 195.439 191.982 195.346C192.433 195.243 192.903 195.256 193.348 195.384C193.796 195.505 194.204 195.742 194.531 196.072C194.691 196.227 194.832 196.402 194.951 196.592C195.063 196.784 194.644 196.592 194.716 196.807C194.526 196.684 194.883 196.927 194.716 196.807C194.549 196.687 194.391 196.557 194.217 196.472C193.895 196.266 193.544 196.11 193.175 196.009C192.807 195.904 192.425 195.851 192.042 195.851C191.628 195.855 191.215 195.886 190.806 195.946Z" fill="#333333"/>
<path d="M191.056 231.726C191.056 231.726 189.378 236.637 189.073 239.246C188.324 245.727 189.717 251.288 191.056 254.978C192.933 260.151 177.02 257.277 176.708 257.12C176.396 256.962 163.251 251.866 163.251 251.866L162.252 241.712L160.739 231.723L161.443 225.845L191.056 231.726Z" fill="#3660AC"/>
<path d="M165.848 217.444C165.848 217.444 167.886 217.622 167.663 221.169C167.441 224.717 165.788 231.473 165.788 231.473C165.788 231.473 149.727 262.395 146.206 265.405C146.013 265.562 145.773 265.65 145.525 265.655L134.703 265.612C135.11 265.21 135.603 264.904 136.143 264.717L141.187 263.376C141.286 263.353 141.38 263.311 141.461 263.251C141.543 263.191 141.612 263.116 141.664 263.028L143.282 260.074L155.463 227.523C156.711 224.624 159.66 222.968 161.693 220.554C163.164 218.788 164.782 217.269 165.848 217.444Z" fill="#FFC0BB"/>
<path d="M187.719 212.679C187.567 215.763 183.257 220.902 183.257 220.902C182.476 219.183 174.952 210.823 174.857 210.718C171.758 210.765 165.184 211.218 161.163 214.085C155.765 217.925 152.531 226.553 152.531 226.553C152.531 226.553 162.312 231.491 164.737 231.726H191.884C194.714 231.428 197.469 230.632 200.022 229.375C200.022 229.375 199.381 216.594 187.719 212.679Z" fill="#3660AC"/>
<path d="M169.084 221.41C168.805 222.248 168.557 223.096 168.308 223.944C168.058 224.792 167.828 225.645 167.603 226.498C167.379 227.351 167.172 228.212 166.984 229.078C166.797 229.943 166.617 230.811 166.485 231.689L166.692 231.479C166.394 231.506 166.094 231.506 165.796 231.479C165.489 231.459 165.179 231.414 164.869 231.369C164.255 231.259 163.638 231.141 163.031 230.971L162.577 230.851L162.125 230.711C161.825 230.616 161.521 230.531 161.224 230.423L160.33 230.113L159.443 229.77C158.851 229.548 158.275 229.285 157.695 229.045L155.965 228.254L154.249 227.424C153.685 227.131 153.118 226.841 152.546 226.558C153.086 226.899 153.628 227.231 154.174 227.559C154.721 227.887 155.278 228.197 155.837 228.507C156.397 228.817 156.969 229.098 157.54 229.383L158.409 229.788C158.699 229.923 158.989 230.058 159.286 230.176C160.463 230.686 161.675 231.114 162.912 231.457L163.376 231.582L163.848 231.689C164.16 231.767 164.48 231.814 164.799 231.872C165.119 231.929 165.441 231.959 165.768 231.979C166.1 232.01 166.435 232.01 166.767 231.979L166.944 231.959L166.974 231.772C167.224 230.038 167.588 228.312 167.956 226.588L168.51 224.004L169.084 221.41Z" fill="#DAEEF7"/>
<path d="M189.725 219.426C190.109 220.426 190.456 221.435 190.766 222.453C191.076 223.464 191.326 224.492 191.515 225.532C191.612 226.048 191.681 226.57 191.722 227.093C191.771 227.615 191.784 228.14 191.762 228.664C191.722 229.712 190.174 234.638 189.717 235.614C190.362 234.748 192.047 229.78 192.162 228.697C192.271 227.611 192.223 226.516 192.02 225.445C191.917 224.909 191.8 224.381 191.652 223.861C191.505 223.341 191.335 222.828 191.138 222.325C190.762 221.315 190.289 220.344 189.725 219.426Z" fill="#DAEEF7"/>
<path d="M162.809 251.501C160.185 254.953 159.633 259.619 161.561 263.509C162.889 266.213 165.404 268.732 170.036 269.875C182.386 272.922 197.975 273.232 197.975 273.232L198.262 303.126L204.754 303.877C204.754 303.877 224.156 263.601 201.316 255.659L180.418 254.44L171.854 253.272C171.854 253.272 163.284 250.568 163.156 250.971C163.061 251.16 162.945 251.338 162.809 251.501Z" fill="#224887"/>
<path d="M201.436 274.035C201.106 273.975 200.774 273.92 200.437 273.843C200.1 273.765 199.787 273.678 199.465 273.593C199.306 273.543 199.146 273.487 198.986 273.43C199.151 273.395 199.314 273.348 199.473 273.29C199.786 273.175 200.085 273.022 200.362 272.835C200.632 272.641 200.883 272.421 201.111 272.179C201.33 271.935 201.525 271.671 201.693 271.389L201.363 271.749C201.246 271.859 201.136 271.977 201.011 272.079C200.776 272.293 200.52 272.483 200.247 272.647C199.978 272.811 199.691 272.945 199.393 273.047C199.103 273.151 198.799 273.213 198.492 273.23L197.952 273.25L198.429 273.472C198.745 273.613 199.073 273.728 199.408 273.815C199.737 273.904 200.07 273.976 200.407 274.03C200.744 274.083 201.078 274.133 201.418 274.158C201.758 274.183 202.095 274.198 202.434 274.198C202.092 274.13 201.768 274.088 201.436 274.035Z" fill="#DAEEF7"/>
<path opacity="0.8" d="M531.983 76.458C531.645 74.9932 531.019 73.6111 530.139 72.3934C529.259 71.1758 528.144 70.1473 526.861 69.3689C525.577 68.5906 524.151 68.0781 522.666 67.8619C521.181 67.6457 519.668 67.7301 518.216 68.1102C516.525 64.4875 513.581 61.6012 509.929 59.9851C506.277 58.3691 502.165 58.1326 498.353 59.3196C496.37 56.0233 493.496 53.3568 490.064 51.6283C486.632 49.8999 482.781 49.1803 478.957 49.5527C475.134 49.9251 471.494 51.3743 468.458 53.7327C465.423 56.091 463.115 59.2622 461.803 62.8794C459.679 61.6949 457.282 61.0871 454.851 61.116C452.419 61.145 450.038 61.8097 447.942 63.0444C445.845 64.2791 444.108 66.041 442.9 68.1554C441.693 70.2699 441.058 72.6636 441.058 75.0996C441.058 75.5599 441.083 76.0102 441.126 76.458H531.983Z" fill="white"/>
<path d="M468.276 128.967C468.224 124.92 466.786 121.013 464.202 117.902C461.618 114.791 458.046 112.664 454.083 111.878L439.35 108.956C437.021 108.494 434.935 107.21 433.47 105.339L427.764 98.057C426.992 97.0713 426.006 96.2746 424.881 95.7272C423.757 95.1798 422.522 94.8961 421.272 94.8975H382.413C381.162 94.8961 379.928 95.1798 378.803 95.7272C377.678 96.2746 376.692 97.0713 375.92 98.057L370.217 105.339C368.751 107.21 366.664 108.494 364.334 108.956L349.602 111.878C345.639 112.664 342.066 114.791 339.482 117.902C336.898 121.013 335.46 124.92 335.409 128.967L333.686 264.612C333.649 267.426 334.238 270.213 335.409 272.771C336.58 275.329 338.305 277.594 340.458 279.402C348.948 286.534 365.862 296.465 394.004 296.325V304.743C394.004 307.105 394.941 309.371 396.608 311.042C398.276 312.712 400.538 313.651 402.896 313.651C405.254 313.651 407.516 312.712 409.183 311.042C410.851 309.371 411.788 307.105 411.788 304.743V296.315C438.668 295.965 454.942 286.354 463.227 279.402C465.379 277.594 467.104 275.329 468.275 272.771C469.446 270.213 470.035 267.426 469.999 264.612L468.276 128.967ZM401.855 103.468C403.279 103.472 404.671 103.899 405.853 104.695C407.036 105.491 407.957 106.62 408.499 107.94C409.041 109.259 409.181 110.711 408.9 112.11C408.619 113.509 407.931 114.794 406.922 115.801C405.912 116.809 404.628 117.494 403.23 117.77C401.832 118.047 400.384 117.902 399.069 117.354C397.753 116.806 396.629 115.88 395.839 114.693C395.049 113.505 394.627 112.11 394.628 110.682C394.63 108.769 395.39 106.934 396.741 105.581C398.093 104.229 399.924 103.469 401.835 103.468H401.855Z" fill="white"/>
<path d="M349.232 142.518C347.63 142.729 346.157 143.51 345.081 144.719C344.005 145.927 343.399 147.483 343.372 149.102L341.993 256.685C341.964 259.139 342.482 261.569 343.511 263.797C344.539 266.025 346.052 267.994 347.939 269.561C355.632 275.962 371.161 284.953 397.26 284.26C400.31 284.18 403.36 284.18 406.409 284.26C432.506 284.953 448.037 275.962 455.731 269.561C457.617 267.994 459.13 266.025 460.159 263.797C461.188 261.569 461.706 259.139 461.676 256.685L460.285 148.161C460.258 146.529 459.642 144.962 458.551 143.75C457.46 142.538 455.968 141.762 454.35 141.567C411.209 136.224 372.472 139.356 349.232 142.518Z" fill="#DAEEF7"/>
<path d="M455.366 184.014L401.947 192.004L348.418 178.546L348.383 178.493L347.452 251.664C347.423 253.91 347.893 256.134 348.828 258.176C349.763 260.217 351.14 262.024 352.858 263.467C359.85 269.336 373.968 277.576 397.687 276.94C400.459 276.865 403.231 276.865 406.002 276.94C429.724 277.576 443.84 269.336 450.832 263.467C452.55 262.024 453.926 260.217 454.861 258.176C455.796 256.134 456.267 253.91 456.238 251.664L455.376 184.014H455.366Z" fill="#F14164"/>
<path d="M348.418 178.545C348.418 178.545 394.031 191.846 421.082 176.584C448.132 161.322 471.906 182.953 440.728 199.166C408.694 215.817 348.418 178.545 348.418 178.545Z" fill="#B20B1F"/>
<path d="M389.896 165.467H355.035C353.559 165.467 352.363 166.665 352.363 168.143V203.068C352.363 204.546 353.559 205.745 355.035 205.745H389.896C391.372 205.745 392.568 204.546 392.568 203.068V168.143C392.568 166.665 391.372 165.467 389.896 165.467Z" fill="white"/>
<g style="mix-blend-mode:screen" opacity="0.5">
<path d="M446.152 148.941H442.669C439.622 148.941 437.153 151.415 437.153 154.467V252.85C437.153 255.902 439.622 258.376 442.669 258.376H446.152C449.199 258.376 451.668 255.902 451.668 252.85V154.467C451.668 151.415 449.199 148.941 446.152 148.941Z" fill="white"/>
</g>
<g style="mix-blend-mode:multiply">
<path d="M387.759 173.007H356.826V174.866H387.759V173.007Z" fill="#B6D5E0"/>
</g>
<g style="mix-blend-mode:multiply">
<path d="M387.759 179.594H356.826V181.452H387.759V179.594Z" fill="#B6D5E0"/>
</g>
<g style="mix-blend-mode:multiply">
<path d="M387.759 186.178H356.826V188.036H387.759V186.178Z" fill="#B6D5E0"/>
</g>
<g style="mix-blend-mode:multiply">
<path d="M387.759 192.765H356.826V194.623H387.759V192.765Z" fill="#B6D5E0"/>
</g>
<path d="M259.296 261.595C258.923 261.558 258.578 261.381 258.331 261.099C258.083 260.817 257.952 260.452 257.963 260.076C258.03 253.963 258.165 219.914 252.969 220.822C247.263 221.822 248.26 268.087 248.532 273.167C248.804 278.248 249.438 302.936 250.704 308.55C251.97 314.163 254.764 433.379 253.331 461.146H306.85C306.85 461.146 292.724 331.777 295.613 322.161C298.502 312.545 300.685 305.83 307.567 296.032C314.448 286.233 313.544 269.723 315.717 265.012C317.889 260.302 322.958 253.672 318.613 251.676C314.269 249.68 306.218 262.373 302.972 274.536C302.972 274.536 300.887 277.893 299.349 273.72C297.811 269.547 295.104 223.368 294.912 219.921C294.719 216.474 293.101 213.572 290.654 213.845C288.207 214.117 287.123 222.643 286.851 236.609C286.579 250.575 287.323 261.92 284.324 261.375C281.325 260.829 282.686 217.284 280.329 209.935C277.972 202.585 273.357 207.666 273.447 216.556C273.537 225.447 274.895 260.104 272.089 259.741C269.282 259.378 270.64 211.568 265.749 212.021C260.697 212.491 260.68 219.914 260.68 232.617C260.67 244.204 263.307 261.838 259.296 261.595Z" fill="#FFC0BB"/>
<path d="M253.878 269.085C253.878 269.085 276.426 262.01 293.406 268.134C293.406 268.134 272.893 266.501 253.878 269.085Z" fill="#F99893"/>
<path d="M254.602 281.791C254.602 281.791 274.161 298.844 278.054 307.282C278.054 307.282 288.559 288.05 297.072 281.155C297.072 281.155 284.122 286.779 278.326 297.303C278.326 297.301 267.369 285.688 254.602 281.791Z" fill="#F99893"/>
<path d="M254.602 309.821C254.602 309.821 256.23 320.526 272.169 318.982C272.169 318.982 259.207 316.738 254.602 309.821Z" fill="#F99893"/>
<path d="M289.543 351.915H262.131C261.19 351.915 260.288 352.289 259.623 352.955C258.959 353.622 258.585 354.525 258.585 355.467V382.93C258.585 383.396 258.677 383.858 258.855 384.289C259.033 384.72 259.294 385.112 259.623 385.442C259.953 385.771 260.344 386.033 260.774 386.212C261.204 386.39 261.665 386.482 262.131 386.482H272.291V398.435C272.291 399.377 272.665 400.28 273.33 400.946C273.995 401.612 274.897 401.987 275.837 401.987C276.303 401.987 276.764 401.895 277.194 401.716C277.624 401.538 278.015 401.276 278.344 400.946C278.673 400.616 278.935 400.225 279.113 399.794C279.291 399.363 279.383 398.901 279.383 398.435V386.482H289.543C290.009 386.482 290.47 386.39 290.9 386.212C291.33 386.033 291.721 385.771 292.05 385.442C292.38 385.112 292.641 384.72 292.819 384.289C292.997 383.858 293.089 383.396 293.089 382.93V355.467C293.089 355.001 292.997 354.539 292.819 354.108C292.641 353.677 292.38 353.285 292.05 352.955C291.721 352.626 291.33 352.364 290.9 352.185C290.47 352.007 290.009 351.915 289.543 351.915Z" fill="#DAEEF7"/>
<path d="M284.978 358.116H266.698C265.636 358.116 264.775 358.979 264.775 360.042V378.357C264.775 379.42 265.636 380.283 266.698 380.283H284.978C286.04 380.283 286.901 379.42 286.901 378.357V360.042C286.901 358.979 286.04 358.116 284.978 358.116Z" fill="#EAF5F9"/>
<path opacity="0.9" d="M338.759 338.822H319.927V454.553H338.759V338.822Z" fill="white"/>
<path d="M340.552 332.092H318.129C317.133 332.092 316.326 332.901 316.326 333.898V346.992C316.326 347.989 317.133 348.798 318.129 348.798H340.552C341.548 348.798 342.355 347.989 342.355 346.992V333.898C342.355 332.901 341.548 332.092 340.552 332.092Z" fill="#FEB546"/>
<path d="M321.937 332.092H318.946V348.738H321.937V332.092Z" fill="#F4A640"/>
<path d="M327.87 332.092H324.878V348.738H327.87V332.092Z" fill="#F4A640"/>
<path d="M333.805 332.092H330.814V348.738H333.805V332.092Z" fill="#F4A640"/>
<path d="M339.739 332.092H336.747V348.738H339.739V332.092Z" fill="#F4A640"/>
<path d="M321.937 348.738H336.747V351.344C336.747 352.064 336.462 352.753 335.954 353.262C335.446 353.77 334.758 354.056 334.04 354.056H324.644C323.926 354.056 323.237 353.77 322.73 353.262C322.222 352.753 321.937 352.064 321.937 351.344V348.738Z" fill="#F4A640"/>
<path d="M336.784 454.552H321.899V393.083L328.237 395.425L336.784 393.083V454.552Z" fill="#F14164"/>
<path d="M321.897 393.081C321.897 393.081 328.374 395.02 332.212 392.796C336.05 390.572 338.907 392.876 335.001 396.085C330.981 399.39 321.897 393.081 321.897 393.081Z" fill="#B20B1F"/>
<g style="mix-blend-mode:lighten" opacity="0.2">
<path d="M325.443 351.395H324.314C323.814 351.395 323.408 351.801 323.408 352.303V452.081C323.408 452.582 323.814 452.989 324.314 452.989H325.443C325.943 452.989 326.349 452.582 326.349 452.081V352.303C326.349 351.801 325.943 351.395 325.443 351.395Z" fill="white"/>
</g>
<path opacity="0.9" d="M371.303 338.822H352.471V454.553H371.303V338.822Z" fill="white"/>
<path d="M373.099 332.092H350.675C349.68 332.092 348.873 332.901 348.873 333.898V346.992C348.873 347.989 349.68 348.798 350.675 348.798H373.099C374.094 348.798 374.902 347.989 374.902 346.992V333.898C374.902 332.901 374.094 332.092 373.099 332.092Z" fill="#FEB546"/>
<path d="M354.481 332.092H351.489V348.738H354.481V332.092Z" fill="#F4A640"/>
<path d="M360.414 332.092H357.422V348.738H360.414V332.092Z" fill="#F4A640"/>
<path d="M366.349 332.092H363.358V348.738H366.349V332.092Z" fill="#F4A640"/>
<path d="M372.282 332.092H369.291V348.738H372.282V332.092Z" fill="#F4A640"/>
<path d="M354.481 348.738H369.291V351.344C369.291 352.064 369.006 352.753 368.498 353.262C367.99 353.77 367.302 354.056 366.584 354.056H357.188C356.47 354.056 355.781 353.77 355.274 353.262C354.766 352.753 354.481 352.064 354.481 351.344V348.738Z" fill="#F4A640"/>
<path d="M369.328 454.552H354.443V393.083L360.783 395.425L369.328 393.083V454.552Z" fill="#F14164"/>
<path d="M354.443 393.081C354.443 393.081 360.918 395.02 364.756 392.796C368.594 390.572 371.451 392.876 367.545 396.085C363.525 399.39 354.443 393.081 354.443 393.081Z" fill="#B20B1F"/>
<g style="mix-blend-mode:lighten" opacity="0.2">
<path d="M357.987 351.395H356.858C356.357 351.395 355.952 351.801 355.952 352.303V452.081C355.952 452.582 356.357 452.989 356.858 452.989H357.987C358.487 452.989 358.893 452.582 358.893 452.081V352.303C358.893 351.801 358.487 351.395 357.987 351.395Z" fill="white"/>
</g>
<path opacity="0.9" d="M403.847 338.822H385.015V454.553H403.847V338.822Z" fill="white"/>
<path d="M405.643 332.092H383.219C382.224 332.092 381.417 332.901 381.417 333.898V346.992C381.417 347.989 382.224 348.798 383.219 348.798H405.643C406.638 348.798 407.446 347.989 407.446 346.992V333.898C407.446 332.901 406.638 332.092 405.643 332.092Z" fill="#FEB546"/>
<path d="M387.025 332.092H384.033V348.738H387.025V332.092Z" fill="#F4A640"/>
<path d="M392.96 332.092H389.969V348.738H392.96V332.092Z" fill="#F4A640"/>
<path d="M398.893 332.092H395.902V348.738H398.893V332.092Z" fill="#F4A640"/>
<path d="M404.826 332.092H401.834V348.738H404.826V332.092Z" fill="#F4A640"/>
<path d="M387.025 348.738H401.835V351.344C401.835 352.064 401.55 352.753 401.042 353.262C400.534 353.77 399.846 354.056 399.128 354.056H389.732C389.014 354.056 388.325 353.77 387.818 353.262C387.31 352.753 387.025 352.064 387.025 351.344V348.738Z" fill="#F4A640"/>
<path d="M401.875 454.552H386.987V393.083L393.327 395.425L401.875 393.083V454.552Z" fill="#F14164"/>
<path d="M386.987 393.081C386.987 393.081 393.462 395.02 397.3 392.796C401.138 390.572 403.995 392.876 400.089 396.085C396.069 399.39 386.987 393.081 386.987 393.081Z" fill="#B20B1F"/>
<g style="mix-blend-mode:lighten" opacity="0.2">
<path d="M390.533 351.395H389.404C388.904 351.395 388.498 351.801 388.498 352.303V452.081C388.498 452.582 388.904 452.989 389.404 452.989H390.533C391.034 452.989 391.44 452.582 391.44 452.081V352.303C391.44 351.801 391.034 351.395 390.533 351.395Z" fill="white"/>
</g>
<path d="M430.071 378.119C430.461 378.119 430.847 378.042 431.207 377.893C431.567 377.743 431.895 377.524 432.17 377.248C432.446 376.972 432.665 376.644 432.814 376.283C432.963 375.922 433.04 375.536 433.04 375.145V367.575C433.041 367.184 432.965 366.796 432.816 366.435C432.667 366.073 432.449 365.744 432.173 365.467C431.897 365.19 431.57 364.97 431.209 364.82C430.848 364.67 430.462 364.593 430.071 364.593H293.688C292.901 364.593 292.146 364.907 291.589 365.464C291.032 366.022 290.719 366.779 290.719 367.568V375.137C290.719 375.926 291.032 376.683 291.589 377.241C292.146 377.798 292.901 378.112 293.688 378.112H303.676V452.982H292.909C292.328 452.982 291.771 453.213 291.361 453.624C290.95 454.036 290.719 454.594 290.719 455.176V459.081C290.719 459.662 290.95 460.22 291.361 460.632C291.771 461.043 292.328 461.274 292.909 461.274H430.863C431.15 461.274 431.435 461.218 431.7 461.107C431.966 460.997 432.207 460.836 432.41 460.632C432.613 460.428 432.775 460.186 432.884 459.92C432.994 459.654 433.05 459.369 433.05 459.081V455.176C433.05 454.594 432.82 454.037 432.41 453.625C431.999 453.214 431.443 452.982 430.863 452.982H420.095V378.119H430.071ZM414.867 452.989H308.895V378.119H414.877L414.867 452.989Z" fill="#18196B"/>
<path d="M445.93 387.816C444.741 374.452 437.537 362.75 431.175 352.416C428.063 347.36 424.847 342.132 421.414 337.124C420.452 335.718 419.451 334.294 418.485 332.918C412.742 324.731 406.779 316.265 405.445 306.757L399.393 307.612C400.933 318.582 407.316 327.663 413.488 336.446C414.445 337.806 415.433 339.212 416.375 340.588C419.721 345.474 422.9 350.637 425.981 355.64C431.974 365.396 438.781 376.433 439.842 388.358C440.551 396.331 438.449 403.928 434.074 409.199C428.408 416.026 418.592 419.828 404.042 420.827C399.63 421.129 394.93 421.262 390.476 420.201C388.111 419.638 385.811 418.743 383.374 417.792C382.5 417.452 381.599 417.099 380.692 416.764C370.062 412.832 360.306 411.838 351.694 413.807C343.704 415.636 336.804 419.961 330.13 424.141C328.382 425.232 326.589 426.36 324.819 427.411C314.656 433.437 306.341 435.511 299.366 433.747C292.971 432.129 287.131 426.978 283.318 419.616C279.907 413.017 280.222 407.633 279.008 400.016C278.772 400.493 278.432 400.91 278.013 401.237C277.595 401.564 277.108 401.793 276.589 401.906C276.07 402.019 275.532 402.014 275.016 401.891C274.499 401.767 274.017 401.529 273.604 401.194C273.879 405.717 274.831 416.511 277.889 422.433C282.496 431.348 289.778 437.637 297.866 439.693C299.988 440.228 302.169 440.495 304.358 440.489C311.35 440.489 319.125 437.907 327.925 432.689C329.758 431.601 331.593 430.453 333.363 429.344C339.896 425.252 346.066 421.384 353.048 419.788C360.484 418.087 369.071 419.005 378.567 422.52C379.421 422.835 380.3 423.178 381.152 423.521C383.671 424.501 386.278 425.522 389.055 426.18C394.316 427.431 399.792 427.276 404.451 426.955C420.752 425.84 431.976 421.317 438.768 413.134C444.174 406.62 446.781 397.387 445.93 387.816Z" fill="white"/>
<path d="M444.254 387.962C443.101 374.997 436.014 363.474 429.744 353.298C426.643 348.26 423.437 343.042 420.028 338.076C419.072 336.678 418.075 335.259 417.112 333.888C411.241 325.538 405.171 316.9 403.78 306.991L401.056 307.376C402.554 317.943 408.796 326.856 414.862 335.474C415.821 336.84 416.814 338.251 417.761 339.634C421.132 344.555 424.321 349.736 427.412 354.756C433.51 364.663 440.419 375.89 441.515 388.208C442.264 396.62 440.017 404.666 435.367 410.274C429.392 417.474 419.184 421.476 404.155 422.504C399.607 422.817 394.758 422.952 390.084 421.839C387.607 421.249 385.145 420.29 382.762 419.362C381.896 419.022 381 418.674 380.106 418.344C369.79 414.527 360.354 413.554 352.066 415.45C344.356 417.201 337.584 421.454 331.019 425.569C329.271 426.664 327.461 427.798 325.673 428.858C315.108 435.112 306.368 437.256 298.955 435.38C292.093 433.629 285.85 428.178 281.825 420.391C278.429 413.819 278.888 408.671 277.83 401.378C277.242 401.782 276.545 401.998 275.832 401.996C275.596 401.996 275.361 401.973 275.13 401.926C276.217 409.431 275.82 414.779 279.375 421.666C283.76 430.157 290.649 436.13 298.273 438.062C300.262 438.563 302.305 438.815 304.356 438.812C311.043 438.812 318.536 436.311 327.079 431.25C328.896 430.172 330.719 429.028 332.482 427.925C338.845 423.938 345.424 419.815 352.683 418.169C360.441 416.393 369.351 417.334 379.152 420.961C380.021 421.284 380.9 421.629 381.764 421.962C384.231 422.925 386.783 423.92 389.447 424.553C394.476 425.749 399.577 425.614 404.339 425.286C420.156 424.203 430.995 419.88 437.477 412.068C442.599 405.869 445.068 397.096 444.254 387.962Z" fill="#F14164"/>
<path d="M475.852 450.858L475.712 454.845L481.954 454.54L483.425 449.662L475.852 450.858Z" fill="#FFC0BB"/>
<path d="M515.165 444.829L519.692 451.616L524.581 447.713L522.928 442.893L515.165 444.829Z" fill="#FFC0BB"/>
<path d="M517.31 461.097L528.866 452.706C529.037 452.582 529.152 452.395 529.186 452.186C529.22 451.977 529.169 451.763 529.046 451.591C528.921 451.419 528.734 451.304 528.525 451.27C528.316 451.236 528.102 451.287 527.929 451.411L516.371 459.798C516.286 459.86 516.214 459.938 516.159 460.028C516.104 460.117 516.067 460.217 516.051 460.321C516.034 460.425 516.039 460.531 516.063 460.633C516.087 460.735 516.132 460.832 516.193 460.917C516.318 461.088 516.505 461.204 516.714 461.237C516.924 461.271 517.138 461.221 517.31 461.097Z" fill="white"/>
<path d="M525.141 447.433L528.175 450.727C528.547 451.133 528.592 451.728 528.265 451.953L516.94 460.173C516.774 460.284 516.578 460.342 516.379 460.342C516.179 460.342 515.984 460.284 515.817 460.173C515.402 459.936 514.985 459.423 514.973 458.337C514.948 456.188 517.969 453.457 518.746 451.065C518.76 451.016 518.791 450.974 518.833 450.945L524.045 447.163C524.339 446.953 524.804 447.065 525.141 447.433Z" fill="#333333"/>
<path d="M521.083 452.506C521.1 452.441 521.095 452.372 521.068 452.31C521.041 452.249 520.995 452.198 520.936 452.166C520.356 451.833 518.793 451.135 517.557 452.416C517.524 452.466 517.511 452.527 517.519 452.587C517.527 452.647 517.557 452.701 517.602 452.741C517.695 452.841 517.819 452.859 517.887 452.789C518.998 451.65 520.356 452.288 520.833 452.566C520.941 452.621 521.046 452.599 521.083 452.506Z" fill="white"/>
<path d="M520.244 453.825C520.261 453.759 520.255 453.69 520.228 453.629C520.201 453.567 520.153 453.516 520.094 453.485C519.515 453.152 517.952 452.454 516.715 453.735C516.683 453.786 516.67 453.847 516.678 453.906C516.687 453.966 516.717 454.021 516.763 454.06C516.855 454.158 516.98 454.178 517.05 454.105C518.161 452.969 519.517 453.605 519.997 453.882C520.015 453.898 520.038 453.909 520.062 453.915C520.086 453.92 520.11 453.92 520.134 453.915C520.158 453.909 520.181 453.898 520.2 453.883C520.219 453.867 520.234 453.847 520.244 453.825Z" fill="white"/>
<path d="M519.465 455.05C519.482 454.985 519.477 454.916 519.45 454.855C519.423 454.793 519.377 454.742 519.318 454.71C518.738 454.377 517.173 453.68 515.937 454.96C515.904 455.011 515.891 455.072 515.9 455.132C515.908 455.192 515.938 455.246 515.984 455.286C516 455.308 516.019 455.327 516.042 455.342C516.065 455.356 516.091 455.366 516.118 455.37C516.144 455.375 516.172 455.374 516.198 455.367C516.225 455.361 516.249 455.349 516.271 455.333C517.382 454.195 518.738 454.833 519.218 455.11C519.32 455.165 519.425 455.15 519.465 455.05Z" fill="white"/>
<path d="M403.78 306.992C403.78 306.992 402.281 288.41 404.826 267.362C407.37 246.313 398.893 269.085 398.893 269.085C398.893 269.085 398.711 298.646 401.055 307.377C403.4 316.107 403.78 306.992 403.78 306.992Z" fill="#F14164"/>
<path d="M504.765 294.484C505.001 294.61 505.219 294.766 505.414 294.949C506.056 295.584 506.246 296.59 506.935 297.17C507.302 297.43 507.699 297.646 508.116 297.813C508.665 298.086 509.19 298.489 509.404 299.064C509.509 299.396 509.558 299.742 509.549 300.09C509.607 300.717 509.558 301.35 509.404 301.961C509.297 302.309 509.12 302.636 509.032 302.992C508.858 303.692 509.045 304.44 508.937 305.156C508.826 305.691 508.633 306.207 508.366 306.684C508.252 306.946 508.099 307.19 507.914 307.407C507.414 307.94 506.595 308.02 505.869 307.95C505.142 307.88 504.405 307.7 503.689 307.835C503.087 307.95 502.555 308.282 501.993 308.528C501.128 308.903 500.188 309.074 499.246 309.028C498.982 309.03 498.722 308.97 498.485 308.853C498.257 308.701 498.063 308.503 497.916 308.272C497.022 307.062 496.12 305.836 495.508 304.46C494.897 303.084 494.59 301.521 494.942 300.057C495.236 298.963 495.793 297.959 496.565 297.13C497.334 296.308 498.17 295.549 499.062 294.861C500.572 293.638 503.067 293.548 504.765 294.484Z" fill="#333333"/>
<path d="M479.992 347.507L481.647 340.378L474.89 335.287C474.89 335.287 473.719 343.792 473.142 347.202L459.491 347.452L456.872 347.953C456.872 347.953 475.075 355.587 476.234 353.246C476.561 352.586 477.537 351.63 478.481 350.512L479.272 350.707L479.712 348.808C479.956 348.404 480.152 347.972 480.296 347.522L479.992 347.507Z" fill="#FFC0BB"/>
<path d="M485.505 314.812C485.505 314.812 476.78 318.261 473.402 336.343C473.402 336.343 475.584 339.305 480.458 339.632C485.333 339.96 483.847 328.02 483.847 328.02L485.505 314.812Z" fill="#1B4B79"/>
<path d="M495.783 308.87L495.451 314.111L488.324 315.594H487.063L487.328 309.318L494.887 306.644L495.783 308.87Z" fill="#FFC0BB"/>
<path d="M484.601 317.261C484.279 320.78 485.732 321.436 485.732 321.436L496.497 313.431C489.815 314.086 485.495 314.804 485.495 314.804C485.495 314.804 484.941 317.356 484.601 317.261Z" fill="#FFC0BB"/>
<path d="M502.462 297.476C502.462 297.476 504.66 288.443 499.424 285.058C494.187 281.673 488.639 282.056 484.861 284.077C481.083 286.099 478.818 293.173 480.514 297.213L493.059 293.356L502.462 297.476Z" fill="#333333"/>
<path d="M458.315 342.787C457.067 342.244 456.15 341.683 455.793 341.13L455.391 340.082C454.892 338.774 454.143 338.201 453.661 338.456L453.581 338.524C453.581 338.524 453.898 340.64 454.155 342.374L453.071 342.209L452.497 348.803L457.671 348.107L458.315 342.787Z" fill="#FFC0BB"/>
<path d="M497.938 358.664L492.762 404.025C492.762 404.025 487.855 442.845 483.89 451.475H475.103L477.015 364.723L492.497 354.967L497.938 358.664Z" fill="#122F5B"/>
<path d="M495.936 307.502C495.936 307.502 495.786 309.023 495.653 310.917C492.942 313.891 487.86 312.87 487.191 312.583C487.231 311.63 487.191 309.701 487.191 309.701L495.936 307.502Z" fill="#F99893"/>
<path d="M502.071 354.276C502.071 354.276 511.894 366.967 509.562 387.167C507.23 407.367 507.752 414.617 507.752 414.617C507.752 414.617 520.416 426.269 524.294 443.103C524.294 443.103 518.738 446.988 514.988 447.635C514.988 447.635 496.378 419.147 494.957 415.783C493.536 412.418 484.691 359.482 484.691 359.482L502.071 354.276Z" fill="#224887"/>
<path d="M482.144 298.801C482.591 300.017 482.164 301.303 481.195 301.651C480.227 301.998 479.075 301.313 478.629 300.097C478.182 298.881 478.606 297.596 479.577 297.248C480.549 296.9 481.697 297.593 482.144 298.801Z" fill="#F99893"/>
<path d="M482.259 305.833C481.976 305.301 481.743 304.743 481.562 304.167C481.086 302.663 480.804 301.103 480.721 299.527C480.701 299.219 480.666 298.912 480.621 298.606C480.429 297.231 480.524 295.83 480.901 294.493C481.278 293.156 481.928 291.913 482.811 290.841C483.693 289.769 484.788 288.893 486.026 288.268C487.265 287.643 488.619 287.283 490.004 287.21C491.388 287.137 492.773 287.354 494.07 287.846C495.366 288.338 496.547 289.094 497.536 290.067C498.526 291.041 499.302 292.209 499.817 293.499C500.331 294.789 500.572 296.172 500.525 297.561C500.82 297.394 501.151 297.299 501.49 297.285C501.829 297.27 502.166 297.335 502.475 297.476C503.644 298.048 504.011 299.697 503.299 301.158C502.587 302.619 501.052 303.344 499.891 302.771C499.731 302.694 499.584 302.594 499.454 302.474C498.787 307.359 494.647 311.007 489.84 310.759C487.566 310.637 485.424 309.653 483.847 308.007C483.732 307.904 483.623 307.793 483.52 307.677C483.022 307.12 482.598 306.5 482.259 305.833Z" fill="#FFC0BB"/>
<path d="M491.248 298.936C491.239 299.121 491.285 299.305 491.38 299.464C491.475 299.623 491.615 299.751 491.782 299.83C491.949 299.91 492.135 299.939 492.319 299.913C492.502 299.887 492.673 299.807 492.811 299.683C492.949 299.56 493.048 299.398 493.094 299.219C493.141 299.04 493.134 298.85 493.074 298.675C493.013 298.5 492.903 298.346 492.756 298.234C492.609 298.122 492.432 298.055 492.247 298.043C492.123 298.035 491.998 298.052 491.88 298.092C491.762 298.133 491.654 298.197 491.561 298.28C491.468 298.363 491.392 298.464 491.339 298.576C491.285 298.689 491.254 298.811 491.248 298.936Z" fill="#333333"/>
<path d="M482.898 298.937C482.889 299.122 482.935 299.306 483.03 299.465C483.125 299.624 483.264 299.751 483.431 299.831C483.598 299.911 483.785 299.94 483.968 299.914C484.152 299.887 484.323 299.808 484.461 299.684C484.599 299.561 484.698 299.399 484.744 299.22C484.791 299.04 484.784 298.851 484.724 298.676C484.663 298.501 484.553 298.347 484.406 298.235C484.258 298.122 484.082 298.056 483.897 298.044C483.773 298.036 483.648 298.053 483.53 298.094C483.413 298.135 483.304 298.198 483.211 298.281C483.118 298.365 483.043 298.465 482.989 298.578C482.935 298.69 482.904 298.812 482.898 298.937Z" fill="#333333"/>
<path d="M490.449 297.368C490.868 297.148 491.313 296.98 491.773 296.867C492.221 296.758 492.684 296.722 493.143 296.762C493.371 296.783 493.596 296.826 493.815 296.89C493.928 296.92 494.035 296.96 494.142 296.997C494.197 297.017 494.25 297.042 494.305 297.065C494.36 297.087 494.412 297.107 494.462 297.132C494.887 297.342 495.29 297.594 495.665 297.883C495.375 297.481 495.009 297.141 494.587 296.882C494.374 296.751 494.147 296.644 493.91 296.565C493.668 296.482 493.416 296.429 493.161 296.407C492.661 296.363 492.158 296.428 491.685 296.597C491.453 296.68 491.23 296.786 491.019 296.912C490.811 297.04 490.62 297.193 490.449 297.368Z" fill="#333333"/>
<path d="M486.664 297.368C486.49 297.196 486.295 297.046 486.084 296.923C485.872 296.797 485.648 296.691 485.415 296.608C484.943 296.438 484.439 296.374 483.939 296.418C483.439 296.467 482.956 296.629 482.528 296.893C482.106 297.152 481.74 297.492 481.45 297.894C481.825 297.605 482.227 297.353 482.651 297.143C482.703 297.118 482.758 297.096 482.811 297.076C482.863 297.056 482.915 297.028 482.97 297.008C483.08 296.971 483.188 296.931 483.3 296.901C483.519 296.837 483.744 296.794 483.972 296.773C484.43 296.733 484.893 296.769 485.34 296.878C485.8 296.987 486.244 297.152 486.664 297.368Z" fill="#333333"/>
<path d="M508.134 329.006C507.903 328.762 507.689 328.503 507.494 328.23C507.297 327.957 507.116 327.672 506.952 327.377C506.784 327.084 506.636 326.78 506.508 326.467C506.379 326.151 506.266 325.829 506.171 325.501C506.212 325.84 506.284 326.175 506.386 326.502C506.436 326.669 506.498 326.829 506.558 327.002C506.618 327.175 506.693 327.322 506.773 327.475C506.927 327.786 507.105 328.086 507.305 328.37C507.464 328.6 507.638 328.819 507.826 329.026C507.651 329.059 507.473 329.08 507.295 329.091C506.922 329.107 506.549 329.072 506.186 328.988C506.066 328.951 505.936 328.923 505.829 328.876C505.591 328.788 505.362 328.679 505.145 328.548C505.54 328.885 506.014 329.118 506.523 329.226C506.778 329.28 507.039 329.306 507.3 329.303C507.565 329.303 507.829 329.27 508.086 329.206L508.273 329.156L508.134 329.006Z" fill="white"/>
<path d="M487.765 298.504C487.505 298.933 487.273 299.378 487.071 299.837C486.864 300.297 486.689 300.77 486.546 301.253C486.477 301.498 486.43 301.75 486.406 302.004C486.4 302.074 486.4 302.146 486.406 302.216C486.412 302.254 486.419 302.292 486.429 302.329C486.441 302.372 486.46 302.413 486.484 302.451L486.529 302.511L486.569 302.544C486.594 302.567 486.621 302.589 486.649 302.609C486.701 302.65 486.756 302.686 486.813 302.719C487.034 302.851 487.267 302.958 487.51 303.039C487.748 303.121 487.992 303.185 488.239 303.229C487.788 303.033 487.355 302.796 486.946 302.521C486.898 302.486 486.856 302.446 486.811 302.411L486.749 302.351L486.719 302.324V302.306C486.687 302.216 486.679 302.118 486.696 302.024C486.724 301.786 486.773 301.552 486.843 301.323C486.973 300.85 487.136 300.383 487.293 299.912C487.45 299.442 487.618 298.982 487.765 298.504Z" fill="#F99893"/>
<path d="M506.43 343.95C507.711 336.813 508.261 329.151 508.261 329.151C508.333 327.581 508.32 326.009 508.221 324.441C506.435 322.985 503.946 320.921 503.946 320.921L499.701 313.654C498.083 313.504 496.367 313.434 496.367 313.434L485.742 321.439L485.493 314.809C485.44 314.849 485.385 314.89 485.335 314.932C480.716 318.707 477.765 324.152 477.12 330.089C476.668 334.302 476.723 338.792 476.975 342.805C476.975 342.805 475.16 366.037 474.289 369.749C474.289 369.749 498.372 372.151 511.23 369.749C511.225 369.747 506.313 354.072 506.43 343.95Z" fill="#3660AC"/>
<path d="M475.542 362.312L457.119 363.425C455.958 363.495 454.667 362.747 454.238 361.756L444.554 339.29C444.127 338.289 444.724 337.436 445.885 337.366L464.308 336.253C465.472 336.183 466.763 336.928 467.19 337.921L476.883 360.388C477.303 361.381 476.706 362.242 475.542 362.312Z" fill="#333333"/>
<path d="M458.847 337.711L452.574 338.089C452.32 338.1 452.067 338.038 451.845 337.911C451.624 337.783 451.444 337.595 451.326 337.368L451.151 336.965C450.966 336.538 451.224 336.165 451.725 336.135L457.998 335.755C458.253 335.744 458.506 335.806 458.727 335.934C458.948 336.062 459.128 336.251 459.247 336.478L459.419 336.88C459.606 337.308 459.349 337.681 458.847 337.711Z" fill="#C8EEF1"/>
<path d="M451.99 356.57L451.913 356.605C451.688 356.704 451.436 356.716 451.203 356.64C450.97 356.564 450.773 356.405 450.649 356.193L447.763 351.169C447.692 351.051 447.656 350.914 447.659 350.776C447.663 350.638 447.706 350.504 447.783 350.389C448.282 349.658 449.323 348.155 449.683 348.21C450.157 348.283 448.709 350.782 448.906 350.832C449.104 350.882 451.154 349.218 451.326 349.488C451.498 349.758 449.678 351.667 449.76 351.817C449.843 351.967 451.925 350.757 452.15 350.974C452.375 351.192 450.402 352.725 450.42 352.843L451.99 356.57Z" fill="#FFC0BB"/>
<path d="M468.553 362.369C468.573 362.019 471.499 359.81 471.332 359.655C471.165 359.5 467.904 361.456 467.666 361.006C467.429 360.556 471.075 358.529 470.74 358.254C470.406 357.979 466.723 360.14 466.573 359.692C466.445 359.317 470.506 356.791 471.802 355.998C471.839 355.974 471.869 355.94 471.889 355.901C471.909 355.861 471.919 355.817 471.916 355.773C471.914 355.728 471.899 355.686 471.875 355.649C471.85 355.612 471.816 355.582 471.777 355.562C469.05 354.277 468.915 354.016 469.125 353.749C469.275 353.559 471.991 353.906 474.553 354.086L477.662 354.384C478.536 354.179 504.648 347.998 506.071 346.281C507.494 344.565 503.634 335.102 503.634 335.102L512.124 331.455C512.124 331.455 516.004 346.932 512.266 351.7C510.251 354.269 477.822 358.854 477.822 358.854C477.322 359.25 475.914 360.19 475.914 360.19C470.253 363.803 470.89 363.525 470.725 363.34C470.561 363.155 472.473 361.008 472.206 360.876C471.939 360.743 468.525 362.719 468.553 362.369Z" fill="#FFC0BB"/>
<path d="M499.688 313.65C499.688 313.65 509.177 317.255 515.203 331.264C515.203 331.264 512.251 337.803 502.468 338.018L499.688 313.65Z" fill="#3660AC"/>
<path d="M515.202 331.265C514.553 332.336 513.726 333.288 512.758 334.082C511.811 334.882 510.765 335.555 509.644 336.083C508.522 336.592 507.35 336.984 506.148 337.254C505.551 337.411 504.93 337.459 504.323 337.566C503.706 337.629 503.074 337.659 502.473 337.706L502.795 337.957C502.483 336.706 502.131 335.498 501.753 334.282C501.376 333.066 500.974 331.858 500.505 330.677C500.041 329.489 499.51 328.328 498.917 327.2C498.3 326.094 497.621 324.976 496.645 324.15C497.481 325.098 498.155 326.176 498.642 327.342C499.173 328.483 499.642 329.652 500.045 330.845C500.445 332.04 500.854 333.234 501.207 334.447C501.559 335.66 501.891 336.878 502.185 338.099L502.25 338.369L502.5 338.347C503.134 338.287 503.771 338.249 504.403 338.174C505.03 338.054 505.666 337.994 506.283 337.824C506.905 337.68 507.518 337.498 508.118 337.279C508.718 337.069 509.302 336.818 509.866 336.528C510.995 335.936 512.04 335.195 512.973 334.324C513.898 333.451 514.654 332.414 515.202 331.265Z" fill="#FBF9EB"/>
<path d="M450.277 352.903C450.277 352.903 452.362 352.268 452.547 352.503C452.731 352.738 450.267 354.069 450.277 354.004C450.287 353.939 450.277 352.903 450.277 352.903Z" fill="#FFC0BB"/>
<path d="M501.778 296.23L501.544 296.202L501.386 294.241L500.51 292.43C500.51 292.43 497.084 287.554 496.964 287.427C496.844 287.299 494.23 285.736 494.067 285.656C493.905 285.576 490.25 286.179 490.25 286.179C490.25 286.179 483.812 284.79 484.901 288.393C485.99 291.995 490.691 293.871 490.931 293.711C490.167 292.905 490.087 290.609 490.087 290.609C493.705 294.799 500.51 297.553 500.51 297.553C500.51 297.553 501.224 297.008 502.462 297.468L501.778 296.23Z" fill="#333333"/>
<path d="M485.68 304.725C485.845 305.285 486.188 305.776 486.657 306.121C487.127 306.467 487.697 306.649 488.279 306.639C488.862 306.629 489.425 306.428 489.882 306.066C490.34 305.705 490.666 305.203 490.812 304.638L485.68 304.725Z" fill="white"/>
<path d="M172.505 382.719H168.168V371.212C168.164 369.82 167.61 368.486 166.627 367.502C165.645 366.517 164.313 365.963 162.924 365.959H119.618C118.227 365.959 116.893 366.512 115.91 367.497C114.927 368.483 114.374 369.819 114.374 371.212V382.719H110.029V371.212C110.032 368.665 111.043 366.223 112.841 364.422C114.638 362.622 117.076 361.609 119.618 361.606H162.914C165.456 361.609 167.894 362.621 169.692 364.422C171.49 366.223 172.502 368.665 172.505 371.212V382.719Z" fill="#55769F"/>
<path d="M108.691 378.214H115.707C116.319 378.214 116.906 378.457 117.339 378.891C117.772 379.324 118.015 379.912 118.015 380.525V381.501H106.374V380.525C106.374 380.221 106.434 379.92 106.55 379.638C106.667 379.357 106.838 379.102 107.053 378.887C107.268 378.673 107.524 378.503 107.805 378.387C108.086 378.271 108.387 378.213 108.691 378.214Z" fill="#224887"/>
<path d="M166.829 378.214H173.846C174.458 378.214 175.045 378.458 175.477 378.891C175.91 379.325 176.153 379.913 176.153 380.526V381.501H164.522V380.526C164.522 379.913 164.765 379.325 165.198 378.891C165.63 378.458 166.217 378.214 166.829 378.214Z" fill="#224887"/>
<path d="M186.628 381.499H93.6139C90.1731 381.499 87.3838 384.293 87.3838 387.74V454.923C87.3838 458.37 90.1731 461.164 93.6139 461.164H186.628C190.069 461.164 192.858 458.37 192.858 454.923V387.74C192.858 384.293 190.069 381.499 186.628 381.499Z" fill="#FEB546"/>
<path d="M119.633 381.499H104.763V461.164H119.633V381.499Z" fill="#F4A640"/>
<path d="M177.771 381.499H162.901V461.164H177.771V381.499Z" fill="#F4A640"/>
<path d="M156.14 417.397H145.198V406.432H137.34V417.397H126.395V425.269H137.34V436.233H145.198V425.269H156.14V417.397Z" fill="white"/>
<path d="M175.374 196.802C175.374 196.802 182.893 194.143 187.757 188.612C187.757 188.612 191.363 193.578 193.832 194.288C193.832 194.288 194.055 186.373 185.927 185.282C177.799 184.192 173.562 190.538 175.374 196.802Z" fill="#333333"/>
<path opacity="0.5" d="M555.112 84.2134C552.518 73.1213 548.132 62.5285 542.128 52.8535C533.758 52.5817 525.388 52.6259 517.018 52.9861C512.353 53.1862 507.579 53.4864 503.109 52.1256C498.64 50.7647 494.457 47.3951 493.593 42.7972C493.081 40.0729 493.628 36.8459 491.675 34.8796C490.644 33.8415 489.151 33.4487 487.733 33.096C481.285 31.4975 474.728 29.8865 468.093 30.1892C454.322 30.8196 439.215 39.2924 427.851 31.475C422.892 28.0628 420.055 21.7888 420.765 15.8051C421.474 9.82127 425.701 4.39033 431.32 2.23897C440.776 -1.38332 452.612 3.78495 461.599 0.73802C430.463 -2.79422 398.738 6.84189 370.534 20.9433C367.258 22.5794 364.012 24.2729 360.796 26.024C361.118 30.4193 364.457 34.4394 368.477 36.4957C373.121 38.8722 378.502 39.2149 383.709 39.4976L401.175 40.4982C403.186 40.6133 405.435 40.8434 406.716 42.3969C408.379 44.4157 407.488 47.4001 407.625 50.0167C407.875 54.7697 411.895 58.6472 416.365 60.2307C420.835 61.8142 425.731 61.5765 430.473 61.3189L457.351 59.8655C460.315 59.7054 463.474 59.5878 466.043 61.0762C467.986 62.2044 469.332 64.1056 470.738 65.8618C482.823 80.9613 502.635 87.7756 521.832 89.9595C533.318 91.2653 544.915 91.1828 556.493 91.2803C556.111 88.9189 555.652 86.5574 555.112 84.2134Z" fill="white"/>
<path d="M237.877 179.251L232.081 168.592L226.286 179.251C226.286 179.251 213.476 203.101 217.594 213.273C217.634 213.373 217.676 213.475 217.718 213.575C223.115 226.273 241.048 226.273 246.434 213.575C246.477 213.475 246.519 213.373 246.559 213.273C250.687 203.101 237.877 179.251 237.877 179.251Z" fill="#B20B1F"/>
<path d="M232.081 168.592L226.286 179.251C226.286 179.251 215.624 199.106 216.882 210.308C224.256 217.508 237.585 215.787 242.102 205.145C242.145 205.045 242.187 204.945 242.227 204.842C245.181 197.545 239.423 183.209 235.932 175.689L232.081 168.592Z" fill="#F14164"/>
<path d="M253.883 183.644C253.094 184.316 252.335 185.012 251.591 185.72C250.11 187.141 248.704 188.619 247.346 190.138C245.987 191.656 244.709 193.235 243.468 194.836C242.624 195.926 241.804 197.036 241.008 198.165L240.416 197.695C240.024 197.385 239.62 197.087 239.225 196.784C238.831 196.482 238.416 196.194 238.012 195.899C237.19 195.321 236.361 194.748 235.515 194.21C234.668 193.672 233.787 193.142 232.858 192.672C233.357 193.585 233.914 194.438 234.483 195.278C235.053 196.119 235.65 196.927 236.256 197.73C236.564 198.123 236.868 198.523 237.183 198.913C237.497 199.303 237.81 199.691 238.132 200.074L239.098 201.215L240.097 202.333L241.418 203.834L242.936 202.14C244.292 200.624 245.588 199.058 246.836 197.457C248.085 195.856 249.283 194.205 250.425 192.532C251.566 190.858 252.647 189.112 253.656 187.323C254.155 186.428 254.655 185.52 255.099 184.589C255.543 183.659 255.995 182.71 256.367 181.715C255.479 182.313 254.672 182.978 253.883 183.644Z" fill="white"/>
<path opacity="0.8" d="M217.324 155.813C217.083 154.766 216.635 153.777 216.006 152.906C215.376 152.035 214.579 151.299 213.661 150.742C212.743 150.185 211.723 149.818 210.661 149.663C209.599 149.508 208.517 149.568 207.478 149.84C206.269 147.246 204.161 145.179 201.547 144.022C198.933 142.865 195.989 142.697 193.26 143.548C191.841 141.189 189.784 139.28 187.327 138.042C184.87 136.805 182.114 136.29 179.377 136.557C176.64 136.823 174.035 137.861 171.862 139.549C169.689 141.238 168.038 143.508 167.099 146.097C165.578 145.249 163.861 144.813 162.12 144.834C160.379 144.855 158.673 145.331 157.173 146.216C155.672 147.101 154.429 148.364 153.565 149.879C152.702 151.394 152.249 153.108 152.251 154.853C152.251 155.177 152.267 155.501 152.299 155.823L217.324 155.813Z" fill="white"/>
<path opacity="0.8" d="M342.79 92.171C342.593 91.3191 342.227 90.5153 341.715 89.8072C341.203 89.099 340.555 88.5008 339.808 88.0478C339.062 87.5947 338.232 87.2961 337.368 87.1695C336.505 87.0428 335.624 87.0907 334.779 87.3104C333.794 85.2022 332.081 83.5225 329.956 82.5817C327.831 81.6408 325.437 81.5025 323.218 82.1921C322.063 80.2738 320.39 78.722 318.392 77.7163C316.394 76.7106 314.153 76.292 311.927 76.5089C309.701 76.7258 307.582 77.5694 305.815 78.9421C304.048 80.3148 302.705 82.1606 301.941 84.2659C300.704 83.5767 299.309 83.2231 297.893 83.2401C296.478 83.2571 295.091 83.6442 293.871 84.3629C292.651 85.0817 291.639 86.1073 290.936 87.3381C290.233 88.5689 289.863 89.9624 289.863 91.3804C289.863 91.6481 289.878 91.9108 289.903 92.171H342.79Z" fill="white"/>
<path d="M53.1546 455.778C54.1534 456.761 55.0124 458.705 55.9013 460.766C56.6437 462.562 57.4968 464.31 58.4558 466H84.9643C84.2451 465.549 83.511 465.124 82.7544 464.749C81.1272 463.947 79.4604 463.228 77.7603 462.595C75.4955 461.709 73.3556 460.874 72.2669 459.776C71.2681 458.775 70.4316 456.851 69.5426 454.815C68.2442 451.831 66.6261 448.118 63.5148 445.091C59.3098 441.006 53.9636 439.64 49.6662 438.545C46.6698 437.777 43.8232 437.044 42.4948 435.715C41.7806 434.995 41.059 433.649 40.2974 432.213C39.8154 431.313 39.3185 430.384 38.7267 429.416C36.2699 425.432 32.9814 422.027 29.0871 419.437C25.1927 416.846 20.7848 415.13 16.1661 414.407C15.6417 414.327 15.1523 414.267 14.6678 414.207C13.9187 414.112 6.89707 412.678 4.55984 414.287C0.165067 417.311 0.314888 423.92 4.91192 426.64C5.45143 426.96 6.01017 427.246 6.58494 427.498C8.8872 428.498 11.0796 428.776 12.8275 428.999C13.2245 429.049 13.5991 429.096 13.9337 429.146C16.4029 429.549 18.758 430.474 20.8417 431.861C22.9254 433.248 24.6897 435.064 26.0168 437.189C26.3914 437.804 26.766 438.515 27.1755 439.268L27.5675 439.998L34.1172 440.218L29.3878 443.07C30.1356 444.201 30.9893 445.258 31.9373 446.227C36.1598 450.48 41.6058 451.868 45.9831 452.981C48.9771 453.739 51.7937 454.457 53.1546 455.778Z" fill="#9CDEDC"/>
<path d="M56.8677 432.791C57.8964 434.31 58.4633 437.011 59.065 439.873C59.9615 444.126 60.9753 448.964 63.9942 453.567C67.3352 458.66 72.0846 461.75 75.9025 464.229C76.8339 464.837 77.7329 465.422 78.5644 466H103.175C100.634 460.566 96.8883 455.785 92.2231 452.021C90.3629 450.571 88.4311 449.216 86.435 447.961C83.7807 446.235 81.2762 444.606 80.1675 442.918C79.1687 441.379 78.5968 438.705 78.0025 435.876C77.1311 431.731 76.0474 426.572 72.8761 421.894C68.5937 415.578 62.1389 412.426 56.9526 409.887C53.3244 408.116 49.8984 406.442 48.5575 404.383C47.8359 403.275 47.2716 401.381 46.6748 399.353C46.2977 398.079 45.9082 396.764 45.4113 395.375C43.1002 388.988 39.2769 383.258 34.2695 378.677L29.8373 385.681L31.7875 376.558C28.4108 373.892 24.6389 371.771 20.6083 370.272C19.9615 370.022 19.3597 369.824 18.7654 369.624C17.8216 369.301 9.27672 365.621 5.86328 367.057C3.70873 367.965 1.95932 369.631 0.943653 371.74C-0.0720164 373.849 -0.284064 376.257 0.347337 378.512L9.15437 379.262L2.46981 382.302C2.65709 382.504 2.85186 382.705 3.06161 382.895C3.66486 383.446 4.30202 383.959 4.96934 384.431C7.63867 386.322 10.3504 387.247 12.5304 387.99C13.0298 388.158 13.4867 388.316 13.8987 388.468C19.9266 390.7 25.018 395.85 27.1854 401.909C27.5001 402.792 27.7972 403.798 28.1143 404.864C28.6349 406.728 29.25 408.565 29.9571 410.367L39.9303 412.288L31.5977 413.762C31.8349 414.177 32.0846 414.59 32.3468 414.998C36.6092 421.532 43.1839 424.754 48.4651 427.32C52.0808 429.086 55.4818 430.748 56.8677 432.791Z" fill="#8FD0D6"/>
<path d="M49.4091 376.021C49.2194 379.198 48.9896 383.063 49.7013 387.18C54.8252 390.07 64.8308 395.716 63.6847 395.108C62.6159 394.537 55.2372 392.824 50.9173 391.856C53.4893 399.138 58.6057 404.439 62.8157 408.796C66.0618 412.166 69.1432 415.348 69.8498 418.142C70.3767 420.219 69.9247 423.413 69.4453 426.793C68.7337 431.828 67.9246 437.535 69.4079 443.804C71.0459 450.725 75.0312 456.014 78.2349 460.261C79.5383 461.993 80.7719 463.629 81.7007 465.16C81.873 465.44 82.0354 465.727 82.2002 466.018H106.272C105.168 461.566 103.4 457.306 101.028 453.382C99.5604 451.048 97.9769 448.788 96.2834 446.613C94.0586 443.661 91.9561 440.859 91.4117 438.575C90.9123 436.484 91.3643 433.322 91.8362 429.982C92.5304 425.087 93.3919 418.99 91.7738 412.589C89.5864 403.946 83.7558 397.909 79.0714 393.059C75.7953 389.664 72.699 386.46 72.0447 383.67C71.6926 382.17 71.8325 379.851 71.9798 377.397C72.0722 375.851 72.1671 374.249 72.1746 372.526C72.2345 359.21 66.6062 346.109 57.0051 336.941L52.5879 338.895L54.7678 334.935C54.2159 334.472 53.6865 334.044 53.1747 333.631C52.2657 332.901 44.3352 325.449 40.0328 325.664C31.9424 326.067 26.8859 334.739 30.6589 341.924C31.1014 342.77 31.5959 343.587 32.1397 344.371C34.3171 347.513 36.9265 349.624 39.0215 351.297C39.4959 351.678 39.9429 352.048 40.3349 352.371C46.0631 357.226 49.6014 364.911 49.5739 372.428C49.5615 373.504 49.489 374.727 49.4091 376.021Z" fill="#74BDC1"/>
<path d="M605.9 461.144H39.4683V466H605.9V461.144Z" fill="#082948"/>
<path opacity="0.8" d="M587.217 203.786C586.311 203.959 585.416 204.182 584.535 204.456C581.596 199.577 577.339 195.63 572.255 193.073C567.172 190.515 561.47 189.452 555.808 190.005C550.146 190.558 544.756 192.705 540.262 196.199C535.767 199.692 532.351 204.388 530.409 209.745C527.263 207.992 523.715 207.092 520.115 207.136C516.515 207.179 512.989 208.164 509.886 209.992C506.783 211.821 504.21 214.429 502.423 217.56C500.636 220.691 499.696 224.235 499.696 227.841C499.696 228.519 499.731 229.19 499.796 229.842H601.512C597.487 220.812 592.243 212.351 587.217 203.786Z" fill="white"/>
<path d="M534.712 143.141H523.325V133.885H514.086V122.478H523.325V113.222H534.712V122.478H543.951V133.885H534.712V143.141ZM524.854 141.61H533.184V132.354H542.423V124.004H533.184V114.748H524.854V124.004H515.615V132.349H524.854V141.61Z" fill="#74BDC1"/>
<path d="M580.869 296.113H573.428V290.061H567.385V282.604H573.428V276.553H580.869V282.604H586.91V290.061H580.869V296.113ZM574.424 295.112H579.87V289.061H585.911V283.605H579.87V277.553H574.424V283.605H568.384V289.061H574.424V295.112Z" fill="#74BDC1"/>
<path d="M122.589 221.1H116.676V216.292H111.877V210.371H116.676V205.562H122.589V210.371H127.386V216.292H122.589V221.1ZM117.47 220.304H121.795V215.499H126.594V211.166H121.795V206.358H117.47V211.166H112.671V215.499H117.47V220.304Z" fill="#74BDC1"/>
<path d="M106.723 334.457H102.8V331.267H99.6167V327.337H102.8V324.147H106.723V327.337H109.907V331.267H106.723V334.457ZM103.327 333.929H106.206V330.739H109.39V327.865H106.206V324.675H103.327V327.865H100.144V330.739H103.327V333.929Z" fill="#74BDC1"/>
<path d="M386.99 65.7141H381.077V60.901H376.277V54.9848H381.077V50.1768H386.99V54.9848H391.786V60.901H386.99V65.7141ZM381.871 64.9186H386.196V60.1105H390.995V55.7778H386.196V50.9723H381.878V55.7778H377.079V60.1105H381.878L381.871 64.9186Z" fill="#74BDC1"/>
<path d="M513.884 254.911C512.896 254.911 511.93 254.617 511.109 254.067C510.288 253.518 509.648 252.736 509.27 251.822C508.892 250.908 508.793 249.902 508.986 248.931C509.178 247.961 509.654 247.069 510.352 246.37C511.051 245.67 511.941 245.193 512.909 245C513.878 244.807 514.882 244.906 515.795 245.285C516.707 245.664 517.487 246.305 518.036 247.128C518.585 247.951 518.878 248.918 518.878 249.907C518.873 251.233 518.346 252.503 517.41 253.44C516.474 254.377 515.207 254.906 513.884 254.911ZM513.884 246.155C513.143 246.155 512.419 246.375 511.803 246.787C511.187 247.2 510.707 247.786 510.423 248.471C510.14 249.157 510.066 249.912 510.21 250.64C510.355 251.367 510.711 252.036 511.235 252.561C511.759 253.086 512.426 253.443 513.153 253.588C513.88 253.733 514.633 253.658 515.317 253.374C516.001 253.09 516.586 252.609 516.998 251.992C517.41 251.375 517.629 250.65 517.629 249.907C517.63 249.414 517.533 248.926 517.345 248.471C517.157 248.015 516.881 247.601 516.533 247.253C516.185 246.904 515.772 246.627 515.318 246.438C514.863 246.25 514.376 246.153 513.884 246.153V246.155Z" fill="#9CDEDC"/>
<path d="M461.679 29.1831C460.691 29.1831 459.725 28.8897 458.904 28.3399C458.083 27.7902 457.443 27.0088 457.065 26.0946C456.687 25.1803 456.588 24.1744 456.781 23.2039C456.973 22.2333 457.449 21.3419 458.147 20.6422C458.846 19.9424 459.736 19.4659 460.704 19.2729C461.673 19.0798 462.677 19.1789 463.59 19.5576C464.502 19.9363 465.282 20.5776 465.831 21.4003C466.38 22.2231 466.673 23.1904 466.673 24.1799C466.669 25.5056 466.141 26.7759 465.206 27.7133C464.27 28.6507 463.002 29.1791 461.679 29.1831ZM461.679 20.4276C460.938 20.4276 460.214 20.6476 459.598 21.0599C458.982 21.4723 458.502 22.0583 458.218 22.744C457.935 23.4296 457.861 24.1841 458.005 24.912C458.15 25.6399 458.506 26.3085 459.03 26.8333C459.554 27.358 460.221 27.7154 460.948 27.8602C461.675 28.005 462.428 27.9307 463.112 27.6467C463.796 27.3627 464.381 26.8817 464.793 26.2646C465.205 25.6476 465.424 24.9221 465.424 24.1799C465.424 23.1847 465.03 22.2303 464.327 21.5266C463.625 20.8229 462.672 20.4276 461.679 20.4276Z" fill="#9CDEDC"/>
<path d="M286.679 118.632C285.715 118.633 284.772 118.347 283.97 117.81C283.168 117.274 282.543 116.512 282.174 115.619C281.805 114.727 281.708 113.745 281.896 112.797C282.084 111.85 282.548 110.98 283.23 110.296C283.912 109.613 284.78 109.148 285.726 108.96C286.672 108.772 287.652 108.868 288.543 109.238C289.434 109.608 290.195 110.235 290.73 111.038C291.266 111.841 291.551 112.786 291.551 113.752C291.549 115.046 291.035 116.286 290.122 117.201C289.208 118.116 287.97 118.63 286.679 118.632ZM286.679 110.107C285.959 110.107 285.256 110.32 284.657 110.72C284.058 111.12 283.592 111.689 283.316 112.355C283.04 113.021 282.968 113.754 283.108 114.461C283.248 115.169 283.594 115.818 284.103 116.328C284.612 116.838 285.26 117.186 285.966 117.326C286.672 117.467 287.403 117.395 288.068 117.119C288.733 116.844 289.301 116.376 289.701 115.777C290.101 115.178 290.315 114.473 290.315 113.752C290.314 112.786 289.931 111.859 289.249 111.176C288.568 110.493 287.643 110.108 286.679 110.107Z" fill="#8FD0D6"/>
<path d="M62.1261 314.749C60.9984 314.75 59.8958 314.415 58.958 313.788C58.0201 313.161 57.2891 312.269 56.8573 311.225C56.4255 310.181 56.3124 309.033 56.5323 307.925C56.7522 306.817 57.2951 305.799 58.0926 305C58.89 304.201 59.906 303.657 61.012 303.437C62.1181 303.216 63.2645 303.33 64.3063 303.762C65.3481 304.195 66.2384 304.927 66.8646 305.867C67.4908 306.806 67.8248 307.911 67.8243 309.041C67.8223 310.554 67.2213 312.005 66.1531 313.075C65.0849 314.145 63.6367 314.747 62.1261 314.749ZM62.1261 304.778C61.2865 304.778 60.4658 305.027 59.7677 305.495C59.0696 305.962 58.5255 306.626 58.2042 307.403C57.883 308.18 57.7989 309.035 57.9627 309.86C58.1265 310.685 58.5308 311.443 59.1244 312.038C59.7181 312.633 60.4745 313.038 61.2979 313.202C62.1214 313.366 62.9749 313.282 63.7506 312.96C64.5262 312.638 65.1892 312.093 65.6556 311.393C66.1221 310.694 66.371 309.872 66.371 309.031C66.3671 307.904 65.9186 306.825 65.1234 306.028C64.3281 305.231 63.2507 304.782 62.1261 304.778Z" fill="#74BDC1"/>
<path d="M468.248 461.154L482.519 461.112C482.624 461.112 482.728 461.091 482.825 461.051C482.922 461.01 483.01 460.951 483.084 460.876C483.158 460.802 483.216 460.713 483.256 460.616C483.296 460.518 483.316 460.414 483.315 460.309C483.314 460.097 483.229 459.894 483.079 459.744C482.929 459.595 482.726 459.511 482.514 459.511L468.243 459.553C468.138 459.554 468.035 459.575 467.938 459.615C467.841 459.656 467.753 459.715 467.679 459.789C467.605 459.864 467.546 459.952 467.507 460.05C467.467 460.147 467.446 460.251 467.447 460.356C467.448 460.568 467.533 460.771 467.683 460.921C467.833 461.07 468.037 461.154 468.248 461.154Z" fill="white"/>
<path d="M482.571 454.65L483.111 459.101C483.178 459.648 482.861 460.146 482.471 460.149L468.488 460.189C468.289 460.181 468.096 460.116 467.934 460C467.772 459.885 467.646 459.724 467.574 459.538C467.377 459.101 467.324 458.44 467.959 457.552C469.207 455.801 473.235 455.341 475.262 453.86C475.303 453.828 475.353 453.811 475.405 453.812L481.84 453.792C482.202 453.782 482.509 454.15 482.571 454.65Z" fill="#333333"/>
<path d="M476.321 456.384C476.373 456.341 476.408 456.282 476.422 456.216C476.436 456.15 476.428 456.081 476.398 456.021C476.121 455.411 475.26 453.93 473.514 454.24C473.414 454.257 473.345 454.393 473.362 454.53C473.377 454.663 473.469 454.75 473.567 454.735C475.13 454.463 475.864 455.768 476.089 456.279C476.094 456.303 476.105 456.325 476.121 456.345C476.137 456.364 476.156 456.379 476.179 456.389C476.201 456.399 476.226 456.404 476.251 456.403C476.275 456.402 476.299 456.396 476.321 456.384Z" fill="white"/>
<path d="M474.87 456.959C474.922 456.916 474.958 456.857 474.972 456.791C474.986 456.725 474.977 456.657 474.948 456.596C474.671 455.988 473.809 454.505 472.064 454.815C472.007 454.837 471.961 454.879 471.933 454.933C471.905 454.987 471.897 455.049 471.911 455.108C471.926 455.243 472.019 455.33 472.116 455.313C473.679 455.04 474.413 456.346 474.638 456.859C474.688 456.969 474.786 457.011 474.87 456.959Z" fill="white"/>
<path d="M473.519 457.497C473.571 457.454 473.607 457.395 473.622 457.33C473.636 457.264 473.628 457.195 473.599 457.134C473.322 456.526 472.461 455.045 470.715 455.356C470.613 455.373 470.545 455.506 470.563 455.646C470.58 455.778 470.673 455.866 470.77 455.849C472.333 455.578 473.067 456.884 473.29 457.394C473.339 457.507 473.437 457.55 473.519 457.497Z" fill="white"/>
<path d="M203.613 319.197L193.068 309.558C192.991 309.488 192.928 309.402 192.884 309.307C192.84 309.212 192.815 309.109 192.81 309.005C192.805 308.9 192.821 308.795 192.857 308.697C192.893 308.598 192.948 308.507 193.018 308.43C193.089 308.352 193.174 308.289 193.268 308.244C193.363 308.199 193.466 308.174 193.571 308.169C193.675 308.164 193.78 308.18 193.878 308.216C193.977 308.252 194.067 308.307 194.145 308.378L204.689 318.014C204.767 318.084 204.83 318.169 204.875 318.264C204.92 318.359 204.945 318.462 204.95 318.567C204.955 318.672 204.939 318.776 204.903 318.875C204.868 318.974 204.813 319.065 204.742 319.142C204.6 319.299 204.401 319.393 204.189 319.404C203.977 319.414 203.77 319.34 203.613 319.197Z" fill="#122F5B"/>
<path d="M197.363 304.74L193.979 307.672C193.562 308.035 193.455 308.61 193.752 308.88L204.09 318.314C204.243 318.443 204.43 318.524 204.628 318.548C204.826 318.572 205.027 318.538 205.206 318.449C205.643 318.256 206.118 317.796 206.25 316.718C206.515 314.584 203.825 311.529 203.316 309.065C203.305 309.016 203.28 308.97 203.243 308.935L198.499 304.593C198.212 304.352 197.738 304.412 197.363 304.74Z" fill="#55769F"/>
<path d="M200.826 310.238C200.817 310.171 200.829 310.103 200.863 310.045C200.896 309.986 200.949 309.941 201.011 309.916C201.623 309.65 203.259 309.135 204.342 310.538C204.369 310.593 204.375 310.655 204.359 310.713C204.344 310.772 204.308 310.822 204.257 310.856C204.239 310.876 204.216 310.891 204.191 310.902C204.166 310.913 204.14 310.918 204.113 310.918C204.086 310.918 204.059 310.913 204.034 310.902C204.009 310.891 203.986 310.876 203.968 310.856C202.991 309.605 201.573 310.076 201.064 310.303C201.045 310.318 201.023 310.328 200.999 310.332C200.976 310.337 200.952 310.336 200.929 310.329C200.906 310.323 200.885 310.312 200.867 310.296C200.849 310.28 200.835 310.26 200.826 310.238Z" fill="white"/>
<path d="M201.513 311.642C201.504 311.575 201.517 311.507 201.55 311.448C201.584 311.39 201.636 311.344 201.698 311.319C202.312 311.054 203.945 310.538 205.029 311.942C205.056 311.996 205.062 312.058 205.047 312.116C205.032 312.174 204.996 312.225 204.947 312.259C204.928 312.279 204.906 312.295 204.881 312.305C204.856 312.316 204.829 312.322 204.802 312.322C204.775 312.322 204.748 312.316 204.723 312.305C204.698 312.295 204.676 312.279 204.657 312.259C203.683 311.009 202.262 311.479 201.755 311.707C201.641 311.772 201.541 311.737 201.513 311.642Z" fill="white"/>
<path d="M202.152 312.948C202.143 312.881 202.156 312.814 202.19 312.756C202.223 312.698 202.275 312.653 202.337 312.628C202.949 312.362 204.584 311.845 205.668 313.248C205.694 313.301 205.7 313.362 205.685 313.419C205.671 313.476 205.636 313.526 205.588 313.561C205.57 313.581 205.549 313.598 205.524 313.609C205.5 313.621 205.474 313.628 205.447 313.63C205.42 313.631 205.393 313.627 205.367 313.618C205.342 313.608 205.318 313.594 205.299 313.576C204.322 312.325 202.904 312.795 202.395 313.023C202.375 313.038 202.352 313.047 202.327 313.052C202.303 313.056 202.278 313.054 202.254 313.047C202.231 313.039 202.209 313.027 202.192 313.01C202.174 312.992 202.16 312.971 202.152 312.948Z" fill="white"/>
</svg>
