<svg width="294" height="226" viewBox="0 0 294 226" fill="none" xmlns="http://www.w3.org/2000/svg">
<path opacity="0.45" d="M290.303 185.043C287.266 161.654 298.85 137.016 290.795 114.853C288.237 107.814 283.851 101.618 280.277 95.0386C274.872 85.0746 271.316 74.2106 269.784 62.9746C268.786 55.6432 268.655 48.1792 266.996 40.9707C262.389 20.9725 245.136 4.50603 224.975 0.865887C208.726 -2.06716 191.971 2.80218 177.199 10.1883C162.427 17.5745 149.03 27.4373 134.6 35.4697C119.219 44.0351 102.755 50.4807 85.6525 54.6319C79.3233 56.1666 72.8326 57.414 67.033 60.3799C52.6314 67.7454 45.351 83.9903 40.1771 99.3371C35.0032 114.684 30.3371 131.212 18.365 142.104C15.1567 145.024 11.4989 147.448 8.52503 150.606C-1.26518 161 -1.70494 177.714 3.98891 190.818C9.17253 202.745 21.3292 218.829 33.2405 224.86C33.6657 225.076 34.1006 225.277 34.5415 225.469H68.2867C74.667 224.292 80.7702 223.015 85.9016 222.516C105.984 220.563 126.209 222.395 146.351 223.561C187.336 225.945 228.424 225.61 269.476 225.275C275.483 225.227 281.967 225.021 286.727 221.342C291.795 217.421 293.555 210.446 293.3 204.036C293.045 197.626 291.132 191.401 290.303 185.043Z" fill="#FDE3E8"/>
<path d="M153.299 34.5602C153.432 34.178 153.652 33.8332 153.941 33.554C154.23 33.2748 154.581 33.0691 154.964 32.9538C155.098 32.9067 155.242 32.8959 155.382 32.9226C155.521 32.9493 155.652 33.0125 155.76 33.106L173.075 51.4799L170.717 53.7372C170.717 53.7372 153.562 35.5681 153.397 35.3634C153.315 35.249 153.263 35.1152 153.246 34.9747C153.228 34.8342 153.247 34.6915 153.299 34.5602Z" fill="#455A64"/>
<path d="M153.3 172.29C153.433 171.908 153.653 171.563 153.942 171.284C154.232 171.005 154.582 170.799 154.965 170.684C155.099 170.637 155.243 170.626 155.383 170.653C155.522 170.679 155.653 170.742 155.761 170.836L173.076 189.21L170.718 191.478C170.718 191.478 153.564 173.309 153.398 173.104C153.313 172.989 153.26 172.853 153.242 172.71C153.225 172.567 153.245 172.423 153.3 172.29Z" fill="#455A64"/>
<path d="M153.299 103.431C153.432 103.049 153.652 102.704 153.942 102.425C154.231 102.145 154.581 101.94 154.964 101.824C155.098 101.776 155.243 101.764 155.382 101.791C155.522 101.818 155.653 101.882 155.76 101.977C155.931 102.15 173.075 120.351 173.075 120.351L170.718 122.618C170.718 122.618 153.563 104.444 153.397 104.245C153.313 104.129 153.26 103.994 153.242 103.851C153.225 103.708 153.245 103.564 153.299 103.431Z" fill="#455A64"/>
<path d="M157.802 180.627C136.966 159.177 140.948 141.118 147.979 129.742C150.404 125.81 153.858 121.568 157.523 117.08C161.189 112.591 165.077 107.819 168.577 102.622C181.565 83.3401 176.689 62.877 166.101 51.144L171.271 46.3248C177.922 53.7926 182.061 63.2151 183.09 73.2293C184.305 84.8153 181.286 96.3698 174.368 106.643C170.681 112.114 166.561 117.143 162.921 121.626C159.416 125.931 156.101 129.994 153.925 133.522C145.683 146.898 148.672 161.067 162.818 175.624L157.802 180.627Z" fill="#F14164"/>
<path opacity="0.2" d="M166.147 106.055L172.259 109.636C172.672 109.063 173.081 108.481 173.489 107.893L167.388 104.318L166.147 106.055ZM170.801 98.942C170.129 100.149 169.389 101.357 168.583 102.564L174.668 106.134C175.457 104.937 176.193 103.726 176.876 102.501L170.801 98.942Z" fill="white" stroke="white" stroke-miterlimit="10"/>
<path opacity="0.2" d="M151.706 124.35L157.843 127.952C158.267 127.395 158.712 126.828 159.162 126.261L153.004 122.655C152.564 123.227 152.13 123.794 151.706 124.35ZM157.047 117.636C156.127 118.765 155.222 119.878 154.343 120.975L160.501 124.608C161.286 123.631 162.093 122.644 162.91 121.641L163.21 121.269L157.047 117.636Z" fill="white" stroke="white" stroke-miterlimit="10"/>
<path opacity="0.15" d="M171.43 97.7662C178.007 85.8127 181.905 72.0901 180.514 61.9688C178.471 56.1862 175.325 50.87 171.254 46.3248L166.084 51.144C175.783 61.8953 180.674 79.9856 171.43 97.7662Z" fill="black"/>
<path opacity="0.15" d="M162.828 175.624C149.52 161.927 146.092 148.578 152.596 135.905C147.141 145.501 144.401 154.882 146.268 164.699C148.713 169.749 152.436 175.078 157.844 180.637L162.828 175.624Z" fill="black"/>
<path d="M159.98 58.068L151.066 63.6116L152.752 66.4254L161.5 60.9973C161.513 60.8506 161.513 60.703 161.5 60.5563C161.48 60.2109 161.396 59.8725 161.252 59.5589C160.996 58.9365 160.55 58.4139 159.98 58.068ZM169.902 52.4771C169.785 52.396 169.65 52.3471 169.51 52.3351C169.369 52.3231 169.228 52.3485 169.1 52.4088C169.002 52.4666 164.964 54.9812 160.642 57.6585C160.958 57.805 161.24 58.0179 161.469 58.2832C161.777 58.5993 162.004 58.9866 162.131 59.4119C162.25 59.7509 162.328 60.1035 162.363 60.4618L170.786 55.2121C170.9 55.1246 170.989 55.0082 171.044 54.8745C171.099 54.7409 171.119 54.5948 171.101 54.4509C171.066 54.0498 170.94 53.6623 170.732 53.3196C170.523 52.9769 170.239 52.6884 169.902 52.4771Z" fill="#37474F"/>
<path d="M161.726 66.5671L149.049 70.3783L150.01 73.5281L162.672 69.7274C162.707 69.5421 162.726 69.3542 162.729 69.1657C162.739 68.7294 162.676 68.2946 162.543 67.8795C162.357 67.3927 162.079 66.9471 161.726 66.5671ZM175.877 62.8083C175.784 62.701 175.665 62.6203 175.532 62.5743C175.398 62.5282 175.255 62.5184 175.117 62.5459C175.003 62.5773 168.959 64.3885 162.543 66.3204C162.734 66.5387 162.906 66.7721 163.06 67.0186C163.259 67.3566 163.407 67.7229 163.5 68.1052C163.61 68.5479 163.631 69.0085 163.562 69.4597L176.099 65.6956C176.231 65.6394 176.346 65.5484 176.431 65.4321C176.517 65.3158 176.57 65.1784 176.585 65.0342C176.649 64.6327 176.619 64.2216 176.495 63.8346C176.372 63.4476 176.16 63.0959 175.877 62.8083Z" fill="#455A64"/>
<path d="M162.83 76.7936L148.219 77.5706L148.4 80.8568L163.114 80.0904C163.174 79.7933 163.204 79.4907 163.202 79.1875C163.185 78.6187 163.116 78.0528 162.995 77.4971C162.964 77.2608 162.902 77.0298 162.83 76.7936ZM178.237 77.6388C178.165 76.8146 177.772 76.0639 177.1 76.0639H177.069L163.786 76.7779C164.02 77.6519 164.133 78.5548 164.122 79.4604C164.122 79.6624 164.108 79.864 164.081 80.0641L177.524 79.3554C177.55 79.3371 177.58 79.3262 177.611 79.3239C178.072 79.2505 178.34 78.4787 178.253 77.6388H178.237Z" fill="#37474F"/>
<path d="M162.83 37.8884L157.835 42.8914C144.962 29.6412 141.554 17.693 142.495 7.79736L149.387 11.8606C149.729 20.3283 154.206 29.0637 162.83 37.8884Z" fill="#F14164"/>
<path opacity="0.15" d="M162.83 37.8884L157.835 42.8914C144.962 29.6412 141.554 17.693 142.495 7.79736L149.387 11.8606C149.729 20.3283 154.206 29.0637 162.83 37.8884Z" fill="black"/>
<path d="M179.073 29.2582C177.752 32.2354 176.173 35.0868 174.352 37.7784C170.666 43.2433 166.545 48.2777 162.911 52.7609C159.4 57.0657 156.086 61.1289 153.909 64.6567C145.668 78.0328 148.661 92.1964 162.828 106.759L157.833 111.762C136.992 90.3118 140.979 72.2529 148.01 60.8769C150.43 56.9449 153.889 52.7032 157.554 48.2095C161.22 43.7158 165.108 38.9543 168.603 33.7572C170.327 31.2136 171.804 28.5061 173.013 25.6727L179.073 29.2582Z" fill="#F14164"/>
<path opacity="0.2" d="M151.706 55.4906L157.843 59.0866C158.267 58.5301 158.712 57.9684 159.162 57.3962L153.004 53.7949C152.564 54.3619 152.13 54.9288 151.706 55.4906ZM157.047 48.771C156.127 49.8997 155.222 51.0126 154.343 52.1098L160.501 55.7215C161.286 54.7504 162.093 53.7634 162.91 52.7607L163.21 52.3828L157.047 48.771Z" fill="white" stroke="white" stroke-miterlimit="10"/>
<path opacity="0.15" d="M162.828 106.759C149.52 93.0571 146.092 79.7072 152.596 67.0345C147.141 76.6309 144.401 86.0121 146.268 95.8342C148.713 100.879 152.436 106.213 157.844 111.772L162.828 106.759Z" fill="black"/>
<path d="M174.347 175.529C170.671 180.999 166.54 186.029 162.905 190.512C159.4 194.811 156.08 198.875 153.904 202.408C150.029 208.707 148.637 215.152 149.726 221.742L143.3 225.511C140.658 214.629 143.77 205.426 147.953 198.623C150.378 194.696 153.836 190.459 157.492 185.966C161.147 181.472 165.045 176.7 168.551 171.503C181.538 152.226 176.663 131.763 166.074 120.03L171.245 115.211C177.9 122.678 182.041 132.103 183.069 142.12C184.284 153.685 181.27 165.24 174.347 175.529Z" fill="#F14164"/>
<path opacity="0.2" d="M166.147 174.915L172.259 178.501C172.672 177.923 173.081 177.346 173.489 176.758L167.388 173.183C166.975 173.767 166.561 174.345 166.147 174.915ZM170.801 167.802C170.129 169.016 169.389 170.224 168.583 171.424L174.668 174.994C175.459 173.797 176.193 172.59 176.876 171.361L170.801 167.802Z" fill="white" stroke="white" stroke-miterlimit="10"/>
<path opacity="0.2" d="M151.706 193.226L157.843 196.822C158.267 196.265 158.712 195.703 159.162 195.131L153.004 191.525C152.564 192.097 152.13 192.664 151.706 193.226ZM157.047 186.506C156.127 187.635 155.222 188.748 154.343 189.845L160.501 193.457L162.91 190.49L163.21 190.118L157.047 186.506Z" fill="white" stroke="white" stroke-miterlimit="10"/>
<path opacity="0.15" d="M171.43 166.636C178.007 154.683 181.905 140.96 180.514 130.839C178.473 125.056 175.326 119.739 171.254 115.195L166.084 120.014C175.783 130.765 180.674 148.85 171.43 166.636Z" fill="black"/>
<path d="M181.574 203.058L175.308 206.733C173.778 200.083 170.604 193.94 166.084 188.884L171.254 184.07C176.107 189.495 179.641 195.997 181.574 203.058Z" fill="#F14164"/>
<g opacity="0.15">
<path d="M181.576 203.058L175.31 206.733C173.78 200.084 170.605 193.94 166.086 188.884L171.256 184.07C176.108 189.495 179.643 195.998 181.576 203.058Z" fill="black"/>
</g>
<path d="M169.904 190.228C169.787 190.148 169.653 190.1 169.513 190.087C169.373 190.074 169.231 190.097 169.103 190.155L160.644 195.405C160.96 195.552 161.242 195.765 161.471 196.029C161.776 196.347 162.003 196.734 162.133 197.158C162.247 197.498 162.321 197.85 162.356 198.208L170.788 192.958C170.901 192.869 170.989 192.752 171.043 192.617C171.097 192.482 171.114 192.336 171.093 192.192C171.06 191.793 170.935 191.407 170.729 191.066C170.522 190.725 170.24 190.438 169.904 190.228ZM161.275 197.294C161.012 196.668 160.557 196.145 159.977 195.804C159.098 196.329 158.23 196.895 157.392 197.415C156.063 199.169 154.869 200.833 153.907 202.397C153.571 202.922 153.256 203.494 152.956 204.04L161.502 198.733C161.51 198.625 161.51 198.516 161.502 198.407V198.297C161.492 197.951 161.414 197.61 161.275 197.294Z" fill="#37474F"/>
<path d="M161.726 204.308L151.354 207.421C150.849 208.655 150.439 209.928 150.129 211.227L162.672 207.463C162.706 207.279 162.725 207.093 162.729 206.906C162.738 206.468 162.675 206.032 162.543 205.615C162.356 205.13 162.079 204.686 161.726 204.308ZM175.877 200.544C175.783 200.437 175.664 200.357 175.531 200.311C175.397 200.265 175.255 200.255 175.117 200.281C175.003 200.313 168.959 202.124 162.543 204.056C162.733 204.276 162.906 204.511 163.06 204.759C163.258 205.096 163.406 205.46 163.499 205.841C163.609 206.283 163.63 206.744 163.561 207.195L176.099 203.431C176.23 203.375 176.344 203.285 176.429 203.17C176.515 203.055 176.568 202.918 176.585 202.775C176.649 202.373 176.619 201.961 176.496 201.573C176.372 201.185 176.16 200.832 175.877 200.544Z" fill="#455A64"/>
<path d="M169.904 121.337C169.787 121.259 169.652 121.212 169.512 121.2C169.372 121.188 169.231 121.212 169.103 121.269L160.644 126.519C160.96 126.666 161.242 126.879 161.471 127.143C161.776 127.462 162.003 127.848 162.133 128.272C162.247 128.612 162.321 128.965 162.356 129.322L170.788 124.072C170.901 123.984 170.989 123.866 171.043 123.731C171.097 123.596 171.114 123.45 171.093 123.306C171.06 122.906 170.935 122.52 170.728 122.178C170.522 121.837 170.24 121.549 169.904 121.337ZM161.275 128.419C161.012 127.793 160.557 127.27 159.977 126.928C159.098 127.453 158.23 128.02 157.392 128.54C156.063 130.293 154.869 131.957 153.907 133.522C153.571 134.047 153.256 134.619 152.956 135.165L161.497 129.857C161.505 129.749 161.505 129.64 161.497 129.532V129.422C161.488 129.076 161.413 128.735 161.275 128.419Z" fill="#37474F"/>
<path d="M161.726 135.432L151.354 138.545C150.848 139.779 150.439 141.052 150.129 142.351L162.672 138.587C162.706 138.404 162.725 138.217 162.729 138.031C162.738 137.593 162.675 137.156 162.543 136.739C162.356 136.254 162.079 135.81 161.726 135.432ZM175.877 131.668C175.783 131.562 175.664 131.481 175.531 131.435C175.397 131.389 175.255 131.379 175.117 131.406C175.003 131.437 168.959 133.248 162.543 135.18C162.733 135.4 162.906 135.635 163.06 135.884C163.258 136.22 163.406 136.584 163.499 136.965C163.609 137.408 163.63 137.868 163.561 138.319L176.073 134.582C176.204 134.526 176.318 134.436 176.404 134.32C176.489 134.205 176.543 134.069 176.559 133.925C176.631 133.521 176.607 133.105 176.488 132.713C176.369 132.32 176.16 131.962 175.877 131.668Z" fill="#455A64"/>
<path d="M178.25 146.499C178.178 145.675 177.785 144.924 177.113 144.924H177.077L163.795 145.606C164.033 146.481 164.146 147.386 164.131 148.294C164.132 148.494 164.118 148.694 164.089 148.893C170.428 148.562 176.286 148.257 177.532 148.184C177.556 148.167 177.585 148.158 177.615 148.158C178.07 148.11 178.338 147.339 178.25 146.499ZM163.003 146.357C162.962 146.121 162.905 145.885 162.843 145.659C157.352 145.953 151.841 146.236 149.463 146.357C149.366 147.458 149.342 148.565 149.39 149.67L163.128 148.95C163.19 148.654 163.22 148.351 163.215 148.047C163.197 147.478 163.126 146.913 163.003 146.357Z" fill="#37474F"/>
<path d="M148.584 84.7101C148.443 84.6938 148.301 84.7147 148.17 84.7708C148.04 84.8269 147.926 84.9163 147.839 85.0303C147.581 85.3399 147.399 85.7078 147.309 86.1032C147.219 86.4986 147.224 86.9101 147.322 87.3034C147.348 87.4434 147.409 87.5742 147.5 87.6828C147.591 87.7914 147.708 87.8742 147.839 87.9229L161.013 91.0097C160.916 90.8446 160.837 90.6684 160.78 90.4847C160.69 90.1017 160.69 89.7023 160.78 89.3193C160.857 88.9036 161.035 88.5139 161.298 88.1854C161.422 88.0377 161.566 87.9086 161.727 87.8021L148.584 84.7101ZM162.544 88.0069L162.332 88.2326C162.224 88.3358 162.125 88.4482 162.037 88.5686C161.852 88.8338 161.72 89.1335 161.649 89.4505C161.579 89.7704 161.579 90.1019 161.649 90.4217C161.678 90.5619 161.729 90.6965 161.799 90.8207C161.873 90.9949 161.976 91.1547 162.104 91.2932L173.22 93.918C173.649 92.868 174.021 91.8181 174.352 90.7997L162.544 88.0069Z" fill="#263238"/>
<path d="M160.703 97.5506C160.417 97.659 160.155 97.8258 159.935 98.0406C159.714 98.2555 159.539 98.514 159.421 98.8001C159.206 99.3334 159.206 99.9309 159.421 100.464C159.443 100.506 159.467 100.546 159.493 100.585L166.902 105.01L168.733 102.354L160.703 97.5506ZM149.747 91.0096C149.62 90.9541 149.479 90.934 149.341 90.9516C149.203 90.9691 149.072 91.0235 148.962 91.1093C148.64 91.3335 148.375 91.6314 148.189 91.9789C148.002 92.3264 147.898 92.7137 147.886 93.1094C147.875 93.2494 147.901 93.3898 147.96 93.5169C148.019 93.6439 148.109 93.7532 148.222 93.8339L158.439 99.934C158.334 99.3069 158.443 98.6623 158.749 98.1071C158.893 97.8644 159.085 97.6546 159.312 97.491C159.54 97.3275 159.799 97.2137 160.072 97.1569C155.073 94.1594 149.861 91.0726 149.747 91.0096Z" fill="#37474F"/>
<path d="M153.3 103.431C153.433 103.049 153.653 102.704 153.942 102.425C154.232 102.145 154.582 101.94 154.965 101.824C155.099 101.776 155.243 101.764 155.383 101.791C155.523 101.818 155.654 101.882 155.761 101.977C155.932 102.15 163.247 109.914 163.247 109.914L161.179 112.539C161.179 112.539 153.543 104.449 153.378 104.266C153.293 104.146 153.241 104.006 153.227 103.859C153.214 103.712 153.239 103.564 153.3 103.431Z" fill="#455A64"/>
<path d="M160.703 28.6859C160.417 28.7943 160.155 28.961 159.935 29.1759C159.714 29.3908 159.539 29.6492 159.421 29.9353C159.206 30.4669 159.206 31.0627 159.421 31.5942C159.44 31.6372 159.464 31.6777 159.493 31.715L166.902 36.1404C167.528 35.248 168.138 34.3608 168.732 33.5156L160.703 28.6859ZM149.747 22.1448C149.619 22.0906 149.478 22.0717 149.34 22.0902C149.202 22.1086 149.072 22.1637 148.961 22.2498C148.639 22.475 148.373 22.7746 148.186 23.1241C147.999 23.4735 147.896 23.8629 147.886 24.2604C147.876 24.4004 147.901 24.5406 147.96 24.6676C148.019 24.7945 148.109 24.9038 148.222 24.9849L158.438 31.085C158.334 30.458 158.444 29.8136 158.749 29.2581C158.895 29.0174 159.087 28.8092 159.315 28.6459C159.542 28.4826 159.8 28.3677 160.072 28.3079L149.747 22.1448Z" fill="#37474F"/>
<path d="M153.299 34.5602C153.432 34.178 153.652 33.8332 153.941 33.554C154.23 33.2748 154.581 33.0691 154.964 32.9538C155.098 32.9067 155.242 32.8959 155.382 32.9226C155.521 32.9493 155.652 33.0125 155.76 33.106L163.246 41.0435L161.178 43.6684C161.178 43.6684 153.562 35.5576 153.397 35.3634C153.315 35.249 153.263 35.1152 153.246 34.9747C153.228 34.8342 153.247 34.6915 153.299 34.5602Z" fill="#455A64"/>
<path d="M148.586 153.543C148.445 153.528 148.303 153.55 148.173 153.606C148.043 153.662 147.928 153.75 147.841 153.864C147.584 154.174 147.403 154.542 147.313 154.937C147.223 155.332 147.227 155.743 147.324 156.137C147.35 156.277 147.411 156.408 147.502 156.516C147.593 156.625 147.71 156.708 147.841 156.756C147.96 156.793 154.423 158.331 161.005 159.864C160.906 159.7 160.828 159.523 160.772 159.339C160.676 158.941 160.672 158.526 160.762 158.127C160.852 157.728 161.032 157.355 161.289 157.04C161.414 156.891 161.558 156.76 161.718 156.651L148.586 153.543ZM162.545 156.845L162.334 157.066C162.227 157.17 162.129 157.283 162.039 157.402C161.854 157.667 161.722 157.967 161.651 158.284C161.581 158.604 161.581 158.935 161.651 159.255C161.68 159.395 161.731 159.53 161.801 159.654C161.874 159.829 161.977 159.989 162.106 160.127L173.222 162.751C173.651 161.701 174.023 160.652 174.354 159.638L162.545 156.845Z" fill="#263238"/>
<path d="M160.703 166.415C160.417 166.523 160.156 166.689 159.935 166.903C159.715 167.117 159.54 167.374 159.421 167.66C159.206 168.193 159.206 168.79 159.421 169.324C159.44 169.367 159.465 169.407 159.493 169.445L166.902 173.87L168.733 171.245L160.703 166.415ZM149.748 159.874C149.619 159.82 149.479 159.801 149.341 159.82C149.203 159.838 149.072 159.893 148.962 159.979C148.638 160.204 148.372 160.503 148.185 160.853C147.998 161.203 147.896 161.592 147.886 161.99C147.875 162.129 147.901 162.269 147.96 162.395C148.019 162.521 148.109 162.63 148.222 162.709L158.439 168.815C158.334 168.188 158.444 167.543 158.749 166.988C158.895 166.747 159.088 166.539 159.315 166.375C159.543 166.212 159.8 166.097 160.072 166.038L149.748 159.874Z" fill="#37474F"/>
<path d="M153.299 172.29C153.432 171.908 153.652 171.563 153.942 171.284C154.231 171.005 154.582 170.799 154.964 170.684C155.099 170.637 155.243 170.626 155.382 170.653C155.522 170.679 155.652 170.742 155.76 170.836L163.247 178.773L161.179 181.372C161.179 181.372 153.542 173.288 153.377 173.099C153.296 172.982 153.247 172.846 153.233 172.705C153.22 172.563 153.243 172.42 153.299 172.29Z" fill="#455A64"/>
</svg>
