<svg width="293" height="223" viewBox="0 0 293 223" fill="none" xmlns="http://www.w3.org/2000/svg">
<path opacity="0.45" d="M286.651 182.732C283.667 159.748 295.051 135.537 287.135 113.757C284.621 106.84 280.311 100.751 276.799 94.2856C271.487 84.4941 267.993 73.8181 266.487 62.7766C265.507 55.5721 265.378 48.2372 263.747 41.1535C259.22 21.5013 242.266 5.31983 222.454 1.74269C206.486 -1.1396 190.021 3.64547 175.504 10.9038C160.988 18.1621 147.823 27.8543 133.643 35.7477C118.529 44.1648 102.349 50.4989 85.5426 54.5782C79.3229 56.0863 72.9445 57.3122 67.2453 60.2268C53.0929 67.4648 45.9385 83.4286 40.8541 98.5098C35.7698 113.591 31.1844 129.833 19.4196 140.536C16.2668 143.406 12.6723 145.788 9.74986 148.891C0.129078 159.106 -0.303075 175.53 5.29223 188.407C10.3861 200.128 22.3324 215.934 34.0376 221.861C34.4554 222.073 34.8828 222.27 35.3161 222.459H68.4773C74.7471 221.302 80.7447 220.048 85.7873 219.557C105.522 217.638 125.397 219.438 145.19 220.584C185.467 222.926 225.843 222.598 266.185 222.269C272.088 222.221 278.46 222.019 283.137 218.403C288.117 214.55 289.847 207.696 289.596 201.397C289.346 195.097 287.466 188.98 286.651 182.732Z" fill="#FDE3E8"/>
<path d="M204.74 195.616C203.025 196.364 201.084 196.402 199.341 195.723C197.597 195.044 196.194 193.703 195.436 191.992L169.879 133.866C169.131 132.151 169.093 130.21 169.772 128.466C170.451 126.723 171.792 125.319 173.503 124.561C175.218 123.813 177.159 123.775 178.902 124.454C180.645 125.133 182.049 126.474 182.807 128.185L208.365 186.317C209.111 188.032 209.148 189.971 208.469 191.713C207.79 193.455 206.45 194.858 204.74 195.616Z" fill="#E9F3FE"/>
<path d="M176.499 127.105C176.639 127.448 176.64 127.832 176.501 128.175C176.363 128.519 176.095 128.795 175.756 128.944C175.417 129.093 175.033 129.104 174.686 128.974C174.339 128.844 174.057 128.584 173.899 128.249L171.508 122.812L167.72 114.195C167.57 113.85 167.562 113.459 167.699 113.109C167.835 112.758 168.104 112.476 168.448 112.322H168.456C168.801 112.175 169.191 112.169 169.54 112.306C169.889 112.443 170.171 112.712 170.323 113.055L174.119 121.69L176.499 127.105Z" fill="#D6716B"/>
<path d="M174.135 121.677L171.527 122.803L167.739 114.186C167.591 113.841 167.584 113.452 167.721 113.103C167.857 112.754 168.126 112.472 168.468 112.319H168.477C168.822 112.171 169.211 112.165 169.561 112.302C169.91 112.44 170.191 112.709 170.344 113.052L174.135 121.677Z" fill="#F14164"/>
<path d="M178.885 132.507L176.098 133.709L176.168 133.872L178.956 132.669L178.885 132.507Z" fill="#F14164"/>
<path d="M179.316 133.522L176.528 134.724L176.598 134.886L179.386 133.684L179.316 133.522Z" fill="#F14164"/>
<path d="M179.747 134.543L176.959 135.745L177.029 135.907L179.817 134.705L179.747 134.543Z" fill="#F14164"/>
<path d="M180.181 135.526L177.393 136.728L177.463 136.89L180.251 135.688L180.181 135.526Z" fill="#F14164"/>
<path d="M180.613 136.548L177.825 137.751L177.895 137.913L180.683 136.711L180.613 136.548Z" fill="#F14164"/>
<path d="M183.457 136.517L175.887 139.783L176.031 140.118L183.601 136.851L183.457 136.517Z" fill="#F14164"/>
<path d="M181.571 138.729L178.783 139.932L178.853 140.094L181.641 138.891L181.571 138.729Z" fill="#F14164"/>
<path d="M182.004 139.738L179.216 140.94L179.286 141.103L182.074 139.9L182.004 139.738Z" fill="#F14164"/>
<path d="M182.433 140.766L179.645 141.969L179.715 142.131L182.503 140.928L182.433 140.766Z" fill="#F14164"/>
<path d="M182.866 141.768L180.078 142.971L180.148 143.133L182.936 141.931L182.866 141.768Z" fill="#F14164"/>
<path d="M183.299 142.755L180.511 143.958L180.581 144.12L183.369 142.918L183.299 142.755Z" fill="#F14164"/>
<path d="M184.591 145.774L181.803 146.976L181.873 147.139L184.661 145.936L184.591 145.774Z" fill="#F14164"/>
<path d="M185.096 146.918L182.309 148.122L182.238 147.959L185.026 146.757L185.096 146.918Z" fill="#F14164"/>
<path d="M185.455 147.778L182.667 148.98L182.737 149.142L185.525 147.94L185.455 147.778Z" fill="#F14164"/>
<path d="M185.959 148.923L183.171 150.126L183.101 149.963L185.889 148.761L185.959 148.923Z" fill="#F14164"/>
<path d="M186.392 149.926L183.603 151.128L183.533 150.966L186.321 149.763L186.392 149.926Z" fill="#F14164"/>
<path d="M189.16 149.791L181.59 153.056L181.734 153.39L189.305 150.125L189.16 149.791Z" fill="#F14164"/>
<path d="M187.637 152.799L184.85 154.002L184.92 154.164L187.707 152.961L187.637 152.799Z" fill="#F14164"/>
<path d="M188.069 153.818L185.281 155.02L185.351 155.182L188.139 153.98L188.069 153.818Z" fill="#F14164"/>
<path d="M188.499 154.834L185.711 156.036L185.781 156.199L188.569 154.996L188.499 154.834Z" fill="#F14164"/>
<path d="M188.933 155.831L186.145 157.034L186.215 157.196L189.003 155.994L188.933 155.831Z" fill="#F14164"/>
<path d="M189.365 156.82L186.577 158.023L186.647 158.185L189.435 156.983L189.365 156.82Z" fill="#F14164"/>
<path d="M192.202 156.854L184.632 160.12L184.776 160.454L192.347 157.189L192.202 156.854Z" fill="#F14164"/>
<path d="M190.639 159.789L187.851 160.991L187.921 161.154L190.709 159.951L190.639 159.789Z" fill="#F14164"/>
<path d="M191.077 160.764L188.289 161.967L188.359 162.13L191.147 160.927L191.077 160.764Z" fill="#F14164"/>
<path d="M192.573 161.056L189.779 162.27L189.85 162.433L192.643 161.218L192.573 161.056Z" fill="#F14164"/>
<path d="M191.941 162.773L189.153 163.976L189.223 164.138L192.011 162.935L191.941 162.773Z" fill="#F14164"/>
<path d="M193.448 163.061L190.654 164.275L190.725 164.438L193.518 163.224L193.448 163.061Z" fill="#F14164"/>
<path d="M195.209 163.827L187.639 167.092L187.783 167.427L195.354 164.162L195.209 163.827Z" fill="#F14164"/>
<path d="M193.717 166.946L190.929 168.148L190.999 168.311L193.787 167.108L193.717 166.946Z" fill="#F14164"/>
<path d="M194.151 167.937L191.363 169.139L191.433 169.302L194.221 168.099L194.151 167.937Z" fill="#F14164"/>
<path d="M194.581 168.948L191.793 170.15L191.863 170.313L194.651 169.11L194.581 168.948Z" fill="#F14164"/>
<path d="M196.123 169.197L193.33 170.412L193.401 170.574L196.194 169.36L196.123 169.197Z" fill="#F14164"/>
<path d="M195.446 170.956L192.658 172.158L192.728 172.32L195.516 171.118L195.446 170.956Z" fill="#F14164"/>
<path d="M198.287 170.958L190.717 174.223L190.861 174.558L198.432 171.293L198.287 170.958Z" fill="#F14164"/>
<path opacity="0.5" d="M204.494 195.722C203.199 196.277 201.737 196.296 200.428 195.776C199.119 195.256 198.069 194.239 197.507 192.947L170.973 131.435C170.419 130.14 170.4 128.678 170.92 127.37C171.439 126.061 172.456 125.011 173.748 124.449C175.043 123.895 176.505 123.876 177.814 124.396C179.123 124.916 180.173 125.933 180.735 127.225L207.268 188.736C207.823 190.031 207.842 191.493 207.322 192.802C206.802 194.111 205.785 195.161 204.494 195.722Z" fill="#AFCDFB"/>
<path d="M184.776 143.556C184.746 143.488 184.738 143.413 184.751 143.34C184.764 143.268 184.799 143.201 184.85 143.148C184.902 143.095 184.968 143.058 185.04 143.042C185.112 143.027 185.187 143.033 185.256 143.06C185.325 143.087 185.384 143.134 185.426 143.195C185.468 143.256 185.491 143.328 185.492 143.402C185.493 143.475 185.472 143.548 185.432 143.61C185.392 143.672 185.334 143.721 185.267 143.75C185.176 143.789 185.073 143.791 184.981 143.754C184.889 143.718 184.815 143.647 184.776 143.556Z" fill="#D6716B"/>
<path d="M183.624 143.831L178.936 145.854L179.08 146.188L183.768 144.165L183.624 143.831Z" fill="#D6716B"/>
<path d="M175.603 127.738L196.644 176.515C196.683 176.612 196.682 176.72 196.642 176.816C196.602 176.913 196.526 176.989 196.43 177.031C196.335 177.072 196.227 177.074 196.129 177.037C196.032 177 195.953 176.927 195.908 176.832L174.869 128.056C174.827 127.958 174.825 127.848 174.864 127.75C174.903 127.651 174.98 127.572 175.077 127.53C175.175 127.488 175.285 127.486 175.384 127.525C175.482 127.564 175.561 127.641 175.603 127.738Z" fill="#F14164"/>
<path d="M175.603 127.738L182.315 143.296L181.579 143.615L174.869 128.056C174.827 127.958 174.825 127.848 174.864 127.75C174.903 127.651 174.98 127.572 175.077 127.53C175.175 127.488 175.285 127.486 175.384 127.525C175.482 127.564 175.561 127.641 175.603 127.738Z" fill="#D6716B"/>
<path d="M201.739 171.479L188.724 177.093L191.8 184.226L204.815 178.612L201.739 171.479Z" fill="#F14164"/>
<path d="M246.161 135.147V179.913C246.157 181.237 245.629 182.505 244.693 183.441C243.757 184.377 242.489 184.904 241.165 184.908H214.554C213.863 184.909 213.18 184.765 212.549 184.485C211.661 184.094 210.907 183.454 210.376 182.642C209.845 181.831 209.561 180.883 209.559 179.913V135.147C209.562 133.823 210.09 132.554 211.026 131.619C211.962 130.683 213.23 130.155 214.554 130.151H241.162C242.486 130.154 243.755 130.681 244.692 131.617C245.629 132.553 246.157 133.822 246.161 135.147Z" fill="#ABDDDA"/>
<path d="M234.37 146.986C233.364 146.608 232.491 145.941 231.864 145.067C231.236 144.194 230.882 143.154 230.845 142.08C230.808 141.005 231.091 139.943 231.658 139.029C232.224 138.115 233.049 137.39 234.028 136.944C235.007 136.499 236.096 136.354 237.157 136.528C238.219 136.701 239.205 137.186 239.991 137.92C240.777 138.654 241.328 139.604 241.573 140.651C241.819 141.698 241.749 142.794 241.372 143.802C241.121 144.47 240.742 145.083 240.254 145.606C239.767 146.128 239.181 146.549 238.531 146.844C237.881 147.14 237.179 147.305 236.465 147.329C235.751 147.353 235.039 147.237 234.37 146.986Z" fill="white"/>
<path d="M241.372 143.807L231.191 139.984C231.436 139.307 231.813 138.686 232.3 138.157C232.787 137.627 233.374 137.199 234.027 136.898C234.681 136.596 235.387 136.428 236.106 136.402C236.825 136.376 237.542 136.492 238.216 136.745C238.89 136.998 239.506 137.382 240.03 137.875C240.554 138.368 240.975 138.961 241.269 139.617C241.562 140.274 241.723 140.983 241.74 141.702C241.758 142.421 241.633 143.137 241.372 143.807Z" fill="#91CECF"/>
<path d="M215.996 146.108C215.163 145.427 214.551 144.515 214.236 143.487C213.922 142.458 213.92 141.359 214.23 140.329C214.54 139.299 215.149 138.385 215.979 137.701C216.809 137.017 217.823 136.594 218.893 136.487C219.963 136.379 221.041 136.591 221.991 137.097C222.941 137.602 223.719 138.377 224.228 139.325C224.737 140.272 224.953 141.35 224.849 142.42C224.746 143.491 224.327 144.507 223.647 145.339C223.195 145.892 222.638 146.351 222.009 146.688C221.38 147.026 220.691 147.237 219.98 147.308C219.27 147.38 218.553 147.31 217.869 147.104C217.185 146.898 216.549 146.56 215.996 146.108Z" fill="white"/>
<path d="M223.649 145.334L215.225 138.457C215.673 137.893 216.228 137.424 216.859 137.077C217.49 136.729 218.183 136.511 218.899 136.433C219.615 136.356 220.339 136.422 221.03 136.627C221.72 136.832 222.363 137.172 222.921 137.627C223.479 138.083 223.94 138.644 224.279 139.28C224.619 139.915 224.828 140.611 224.896 141.328C224.964 142.045 224.888 142.768 224.674 143.456C224.46 144.143 224.112 144.782 223.649 145.334Z" fill="#91CECF"/>
<path d="M246.825 141.524H220.217C217.458 141.524 215.222 143.761 215.222 146.519V191.286C215.222 194.045 217.458 196.281 220.217 196.281H246.825C249.584 196.281 251.82 194.045 251.82 191.286V146.519C251.82 143.761 249.584 141.524 246.825 141.524Z" fill="#91CECF"/>
<path d="M247.877 141.524H221.269C218.51 141.524 216.273 143.761 216.273 146.519V191.286C216.273 194.045 218.51 196.281 221.269 196.281H247.877C250.636 196.281 252.872 194.045 252.872 191.286V146.519C252.872 143.761 250.636 141.524 247.877 141.524Z" fill="#ABDDDA"/>
<path d="M241.084 158.359C240.077 157.982 239.205 157.314 238.578 156.441C237.951 155.568 237.596 154.528 237.56 153.454C237.523 152.379 237.806 151.318 238.373 150.404C238.939 149.491 239.764 148.765 240.742 148.32C241.721 147.875 242.81 147.73 243.871 147.904C244.932 148.077 245.917 148.561 246.703 149.295C247.489 150.029 248.04 150.979 248.286 152.025C248.532 153.072 248.462 154.168 248.085 155.175C247.835 155.844 247.455 156.457 246.967 156.979C246.48 157.501 245.894 157.922 245.244 158.218C244.594 158.514 243.892 158.678 243.178 158.703C242.464 158.727 241.752 158.61 241.084 158.359Z" fill="white"/>
<path d="M248.086 155.18L237.905 151.358C238.412 150.008 239.435 148.915 240.748 148.318C242.061 147.722 243.557 147.672 244.907 148.179C246.257 148.686 247.35 149.708 247.946 151.021C248.543 152.334 248.593 153.83 248.086 155.18Z" fill="#91CECF"/>
<path d="M222.71 157.481C221.877 156.8 221.265 155.888 220.951 154.86C220.637 153.831 220.635 152.733 220.945 151.703C221.255 150.674 221.864 149.759 222.693 149.076C223.523 148.392 224.537 147.97 225.607 147.862C226.677 147.755 227.755 147.967 228.704 148.472C229.653 148.977 230.431 149.752 230.94 150.699C231.449 151.646 231.665 152.723 231.562 153.794C231.459 154.864 231.041 155.88 230.36 156.712C229.908 157.265 229.352 157.723 228.723 158.061C228.094 158.399 227.405 158.61 226.694 158.681C225.984 158.752 225.266 158.683 224.582 158.477C223.899 158.271 223.262 157.933 222.71 157.481Z" fill="white"/>
<path d="M230.36 156.707L221.936 149.829C222.851 148.723 224.167 148.024 225.596 147.884C227.025 147.745 228.451 148.176 229.563 149.084C230.676 149.992 231.384 151.303 231.533 152.731C231.682 154.159 231.261 155.588 230.36 156.707Z" fill="#91CECF"/>
<path d="M248.753 159.38H206.961V221.748H248.753V159.38Z" fill="#E58435"/>
<path d="M254.574 159.38H212.782V221.749H254.574V159.38Z" fill="#F1A34F"/>
<path d="M212.782 163L210.779 166.115H206.961V159.38H212.782V163Z" fill="#CE732E"/>
<path d="M206.962 159.38L203.392 164.294H209.213L212.783 159.38H206.962Z" fill="#F1A34F"/>
<path opacity="0.5" d="M212.782 162.231V221.956H234.337V164.302L212.782 162.231Z" fill="#EFCBAB"/>
<path d="M254.574 164.294L251.183 166.115H214.797L212.782 163V159.38L254.574 164.294Z" fill="#EB9342"/>
<path d="M254.574 159.38H212.782L215.735 164.294H257.526L254.574 159.38Z" fill="#F1A34F"/>
<path d="M238.655 185.168H193.889C191.13 185.168 188.894 187.404 188.894 190.163V216.771C188.894 219.53 191.13 221.766 193.889 221.766H238.655C241.414 221.766 243.65 219.53 243.65 216.771V190.163C243.65 187.404 241.414 185.168 238.655 185.168Z" fill="#ABDDDA"/>
<path d="M205.73 196.955C205.352 197.962 204.684 198.834 203.81 199.461C202.937 200.088 201.896 200.443 200.821 200.479C199.747 200.515 198.685 200.231 197.771 199.664C196.857 199.097 196.132 198.271 195.688 197.292C195.243 196.313 195.099 195.223 195.273 194.162C195.448 193.101 195.933 192.115 196.667 191.33C197.402 190.544 198.353 189.994 199.4 189.749C200.448 189.504 201.544 189.575 202.551 189.953C203.219 190.204 203.832 190.584 204.354 191.072C204.875 191.56 205.296 192.145 205.591 192.796C205.886 193.446 206.05 194.148 206.074 194.861C206.098 195.575 205.981 196.286 205.73 196.955Z" fill="white"/>
<path d="M202.55 189.953L198.722 200.134C198.046 199.889 197.425 199.512 196.895 199.025C196.365 198.538 195.937 197.951 195.636 197.298C195.335 196.644 195.166 195.938 195.14 195.219C195.114 194.5 195.231 193.783 195.484 193.109C195.737 192.435 196.121 191.819 196.614 191.295C197.107 190.771 197.699 190.35 198.356 190.056C199.013 189.763 199.721 189.603 200.441 189.585C201.16 189.567 201.875 189.692 202.546 189.953H202.55Z" fill="#91CECF"/>
<path d="M204.851 215.33C204.17 216.163 203.258 216.775 202.229 217.09C201.201 217.404 200.102 217.406 199.072 217.096C198.042 216.786 197.127 216.178 196.443 215.348C195.759 214.517 195.337 213.503 195.229 212.433C195.122 211.363 195.334 210.285 195.839 209.335C196.344 208.386 197.12 207.607 198.068 207.099C199.015 206.59 200.092 206.373 201.163 206.477C202.234 206.58 203.249 206.999 204.082 207.68C204.635 208.132 205.093 208.688 205.431 209.317C205.769 209.946 205.98 210.635 206.051 211.346C206.122 212.056 206.053 212.774 205.847 213.457C205.641 214.141 205.303 214.777 204.851 215.33Z" fill="white"/>
<path d="M204.076 207.68L197.2 216.103C196.083 215.191 195.374 213.873 195.229 212.438C195.084 211.004 195.514 209.57 196.426 208.453C197.338 207.336 198.656 206.627 200.091 206.482C201.526 206.337 202.959 206.768 204.076 207.68Z" fill="#91CECF"/>
<path d="M238.898 196.955C238.52 197.962 237.852 198.834 236.978 199.461C236.105 200.088 235.064 200.443 233.989 200.479C232.915 200.515 231.853 200.231 230.939 199.664C230.025 199.097 229.3 198.271 228.856 197.292C228.411 196.313 228.267 195.223 228.441 194.162C228.615 193.101 229.101 192.115 229.835 191.33C230.57 190.544 231.521 189.994 232.568 189.749C233.616 189.504 234.712 189.575 235.719 189.953C236.387 190.204 237 190.584 237.522 191.072C238.043 191.56 238.464 192.145 238.759 192.796C239.054 193.446 239.218 194.148 239.242 194.861C239.266 195.575 239.149 196.286 238.898 196.955Z" fill="white"/>
<path d="M235.721 189.953L231.898 200.134C231.23 199.883 230.617 199.502 230.096 199.015C229.574 198.527 229.154 197.941 228.859 197.291C228.563 196.641 228.399 195.939 228.375 195.225C228.351 194.512 228.468 193.801 228.719 193.132C228.97 192.464 229.35 191.851 229.838 191.33C230.326 190.808 230.911 190.388 231.561 190.092C232.212 189.797 232.913 189.633 233.627 189.609C234.341 189.585 235.052 189.702 235.721 189.953Z" fill="#91CECF"/>
<path d="M238.019 215.33C237.141 216.406 235.884 217.105 234.506 217.283C233.129 217.462 231.735 217.106 230.612 216.289C230.529 216.232 230.449 216.168 230.369 216.103C229.252 215.191 228.543 213.873 228.398 212.438C228.253 211.004 228.683 209.57 229.595 208.453C230.507 207.336 231.825 206.627 233.26 206.482C234.695 206.337 236.128 206.768 237.245 207.68C237.324 207.744 237.401 207.81 237.477 207.879C238.502 208.817 239.129 210.111 239.23 211.497C239.331 212.882 238.898 214.254 238.019 215.33Z" fill="white"/>
<path d="M237.477 207.879L230.612 216.289C230.529 216.232 230.449 216.168 230.369 216.103C229.252 215.191 228.543 213.873 228.398 212.438C228.253 211.004 228.683 209.57 229.595 208.453C230.507 207.336 231.825 206.627 233.26 206.482C234.695 206.337 236.128 206.768 237.245 207.68C237.324 207.744 237.401 207.81 237.477 207.879Z" fill="#91CECF"/>
<path d="M222.753 192.715C223.214 193.687 223.376 194.774 223.219 195.838C223.062 196.902 222.593 197.895 221.871 198.693C221.15 199.49 220.208 200.056 219.165 200.318C218.122 200.58 217.024 200.527 216.011 200.166C214.998 199.804 214.115 199.15 213.474 198.287C212.833 197.423 212.462 196.389 212.408 195.315C212.355 194.241 212.621 193.175 213.173 192.252C213.725 191.329 214.539 190.591 215.511 190.13C216.156 189.824 216.855 189.648 217.568 189.613C218.282 189.577 218.995 189.682 219.667 189.922C220.34 190.162 220.958 190.533 221.488 191.012C222.017 191.491 222.447 192.07 222.753 192.715Z" fill="white"/>
<path d="M215.513 190.13L220.17 199.957C219.523 200.274 218.82 200.46 218.101 200.503C217.382 200.547 216.661 200.447 215.981 200.209C215.301 199.972 214.675 199.601 214.139 199.12C213.603 198.638 213.168 198.055 212.86 197.404C212.551 196.753 212.375 196.047 212.342 195.328C212.308 194.608 212.418 193.889 212.665 193.212C212.912 192.535 213.291 191.914 213.78 191.385C214.268 190.856 214.858 190.429 215.513 190.13Z" fill="#91CECF"/>
<path d="M215.819 216.94C214.821 216.54 213.963 215.854 213.355 214.967C212.746 214.08 212.415 213.033 212.402 211.957C212.389 210.882 212.695 209.827 213.282 208.925C213.868 208.024 214.709 207.316 215.698 206.893C216.686 206.469 217.778 206.348 218.835 206.545C219.893 206.743 220.868 207.249 221.638 208C222.407 208.751 222.937 209.714 223.159 210.766C223.382 211.818 223.287 212.913 222.888 213.911C222.352 215.25 221.306 216.322 219.981 216.89C218.655 217.458 217.158 217.476 215.819 216.94Z" fill="white"/>
<path d="M222.889 213.911L212.793 209.871C213.329 208.532 214.374 207.461 215.7 206.893C217.025 206.326 218.522 206.308 219.861 206.843C221.2 207.379 222.271 208.425 222.839 209.75C223.407 211.076 223.425 212.572 222.889 213.911Z" fill="#91CECF"/>
<path d="M251.806 218.93C251.803 219.679 251.504 220.396 250.974 220.926C250.445 221.456 249.727 221.754 248.978 221.757H235.626C234.886 221.743 234.181 221.438 233.663 220.91C233.145 220.381 232.854 219.67 232.854 218.93C232.854 218.19 233.145 217.479 233.663 216.951C234.181 216.422 234.886 216.118 235.626 216.103H248.978C249.727 216.105 250.445 216.404 250.975 216.933C251.505 217.463 251.804 218.18 251.806 218.93Z" fill="#F14164"/>
<path d="M244.919 218.93C244.916 219.679 244.618 220.396 244.088 220.926C243.559 221.456 242.841 221.755 242.092 221.757H235.626C234.886 221.743 234.181 221.438 233.663 220.91C233.145 220.381 232.854 219.67 232.854 218.93C232.854 218.19 233.145 217.479 233.663 216.951C234.181 216.422 234.886 216.118 235.626 216.103H242.096C242.845 216.106 243.561 216.405 244.09 216.935C244.619 217.464 244.917 218.181 244.919 218.93Z" fill="#699FF0"/>
<path opacity="0.4" d="M249.206 216.73H236.471C236.25 216.73 236.07 216.91 236.07 217.131V217.221C236.07 217.443 236.25 217.622 236.471 217.622H249.206C249.427 217.622 249.607 217.443 249.607 217.221V217.131C249.607 216.91 249.427 216.73 249.206 216.73Z" fill="#E9F3FE"/>
<path d="M240.414 210.922C240.767 211.633 240.825 212.456 240.574 213.209C240.324 213.963 239.785 214.586 239.077 214.945L226.422 221.283C225.712 221.639 224.889 221.698 224.134 221.448C223.38 221.197 222.756 220.657 222.4 219.946C222.044 219.236 221.984 218.413 222.235 217.659C222.486 216.904 223.026 216.28 223.736 215.924L236.387 209.586C237.099 209.231 237.922 209.172 238.677 209.423C239.431 209.673 240.056 210.212 240.414 210.922Z" fill="#E58435"/>
<path d="M233.886 214.194C234.24 214.905 234.297 215.727 234.047 216.48C233.797 217.234 233.258 217.858 232.55 218.216L226.422 221.291C225.712 221.647 224.889 221.706 224.134 221.456C223.38 221.205 222.756 220.665 222.4 219.954C222.044 219.244 221.984 218.421 222.235 217.666C222.486 216.912 223.026 216.288 223.736 215.932L229.864 212.857C230.575 212.503 231.397 212.445 232.15 212.696C232.904 212.946 233.528 213.485 233.886 214.194Z" fill="#F1A34F"/>
<path opacity="0.5" d="M237.516 210.348L237.473 210.262C237.423 210.162 237.335 210.086 237.228 210.05C237.121 210.014 237.004 210.022 236.904 210.072L224.832 216.122C224.732 216.173 224.656 216.261 224.62 216.368C224.585 216.475 224.593 216.591 224.643 216.692L224.686 216.778C224.737 216.878 224.825 216.954 224.932 216.99C225.039 217.026 225.155 217.018 225.256 216.967L237.327 210.918C237.428 210.867 237.504 210.779 237.54 210.672C237.575 210.565 237.567 210.449 237.516 210.348Z" fill="#FFE2CC"/>
<path opacity="0.8" d="M273.626 222.526L262.096 222.5L255.997 222.486C254.856 222.479 253.764 222.022 252.96 221.214C252.155 220.405 251.703 219.311 251.703 218.17L251.802 175.564C251.808 174.423 252.265 173.331 253.073 172.527C253.881 171.722 254.975 171.27 256.115 171.269L261.525 171.282L273.746 171.31C274.887 171.316 275.979 171.773 276.783 172.582C277.588 173.39 278.039 174.485 278.04 175.625L277.941 218.232C277.935 219.372 277.478 220.464 276.669 221.269C275.861 222.074 274.766 222.526 273.626 222.526Z" fill="#F1A34F"/>
<path d="M276.096 210.451L275.795 208.209L275.493 205.964C275.417 205.413 275.126 204.914 274.684 204.576C274.241 204.238 273.683 204.089 273.131 204.161C273.068 204.17 273.006 204.182 272.945 204.196C273.149 203.904 273.274 203.563 273.308 203.208C273.51 203.695 273.888 204.089 274.367 204.31C274.846 204.531 275.391 204.564 275.893 204.402C276.395 204.24 276.818 203.894 277.077 203.435C277.336 202.975 277.412 202.435 277.291 201.921L276.769 199.718L276.247 197.515C276.109 196.983 275.768 196.525 275.297 196.241C274.826 195.957 274.262 195.869 273.727 195.996C273.191 196.123 272.727 196.454 272.434 196.92C272.14 197.385 272.041 197.947 272.157 198.485L272.945 201.804C272.823 201.626 272.675 201.469 272.505 201.338C272.158 201.071 271.735 200.921 271.298 200.908C271.525 200.177 271.604 199.41 271.53 198.649C271.457 197.888 271.233 197.149 270.87 196.476L267.386 193.584C266.974 193.245 266.449 193.074 265.916 193.108C265.383 193.142 264.883 193.378 264.518 193.767C264.152 194.156 263.949 194.67 263.949 195.204C263.949 195.738 264.152 196.252 264.517 196.641C264.328 196.639 264.139 196.663 263.957 196.712L261.772 197.305L259.587 197.898C259.226 197.997 258.897 198.191 258.636 198.46C258.374 198.728 258.189 199.062 258.099 199.426L257.871 198.877L257.002 196.791C256.897 196.536 256.742 196.304 256.546 196.11C256.351 195.915 256.119 195.76 255.864 195.655C255.609 195.549 255.336 195.495 255.06 195.496C254.784 195.496 254.511 195.551 254.256 195.656C254.001 195.762 253.77 195.917 253.575 196.113C253.38 196.308 253.225 196.54 253.12 196.795C253.015 197.05 252.961 197.323 252.961 197.599C252.961 197.875 253.016 198.148 253.122 198.403L253.99 200.489L254.546 201.829C254.171 201.977 253.847 202.229 253.611 202.555C253.375 202.882 253.238 203.269 253.215 203.671L253.096 205.931L252.978 208.192C252.95 208.748 253.144 209.293 253.516 209.707C253.889 210.121 254.41 210.371 254.965 210.402C255.205 210.414 255.445 210.384 255.675 210.314C255.453 210.751 255.389 211.251 255.494 211.729C255.092 211.958 254.779 212.313 254.601 212.74L253.732 214.826L252.864 216.912C252.675 217.368 252.652 217.875 252.799 218.346C252.947 218.816 253.255 219.22 253.67 219.486C254.085 219.752 254.581 219.863 255.07 219.8C255.559 219.738 256.01 219.505 256.345 219.143C256.487 219.481 256.716 219.776 257.008 219.999C257.301 220.221 257.646 220.363 258.011 220.409C258.375 220.456 258.745 220.406 259.084 220.265C259.423 220.124 259.719 219.896 259.942 219.604L261.322 217.81L262.702 216.014C262.724 215.813 262.791 215.619 262.898 215.447C263.004 215.274 263.148 215.128 263.317 215.017C263.487 214.907 263.679 214.836 263.88 214.809C264.081 214.781 264.285 214.799 264.478 214.86L264.84 214.612L264.339 215.263L262.961 217.064C262.793 217.283 262.669 217.532 262.598 217.799C262.526 218.065 262.508 218.343 262.543 218.617C262.579 218.89 262.668 219.154 262.806 219.393C262.944 219.632 263.127 219.842 263.346 220.01C263.565 220.178 263.815 220.302 264.081 220.373C264.348 220.445 264.626 220.463 264.899 220.428C265.173 220.392 265.437 220.302 265.676 220.165C265.915 220.027 266.124 219.843 266.292 219.625L267.673 217.83L269.052 216.036C269.07 216.013 269.085 215.988 269.101 215.965C269.211 216.142 269.346 216.302 269.503 216.439L269.012 217.078C268.844 217.297 268.721 217.547 268.649 217.813C268.578 218.08 268.559 218.358 268.595 218.631C268.631 218.905 268.72 219.169 268.858 219.408C268.996 219.647 269.179 219.856 269.398 220.024C269.617 220.193 269.866 220.316 270.133 220.388C270.399 220.459 270.677 220.478 270.951 220.442C271.224 220.406 271.488 220.317 271.727 220.179C271.966 220.041 272.176 219.858 272.344 219.639L275.103 216.049C275.44 215.607 275.59 215.049 275.517 214.497C275.445 213.945 275.157 213.444 274.717 213.103C274.564 212.986 274.396 212.89 274.216 212.82C274.242 212.82 274.267 212.82 274.292 212.82C274.845 212.744 275.346 212.453 275.684 212.009C276.022 211.565 276.171 211.004 276.096 210.451ZM257.165 208.408L257.206 207.639C257.341 207.87 257.52 208.072 257.732 208.235C257.813 208.296 257.898 208.352 257.986 208.401L257.023 209.06C257.105 208.851 257.153 208.631 257.165 208.408ZM271.331 206.524L271.736 209.541C271.541 209.143 271.226 208.816 270.834 208.608C270.443 208.399 269.996 208.32 269.557 208.38C269.778 208.247 269.972 208.074 270.13 207.869L271.314 206.332C271.315 206.394 271.32 206.458 271.328 206.524H271.331ZM266.568 198.368L267.096 198.807L266.547 199.181C266.607 198.914 266.614 198.637 266.566 198.368H266.568ZM267.007 205.031C266.955 204.709 266.827 204.403 266.636 204.138C266.796 204.08 266.949 204.001 267.09 203.905L268.748 202.767L267.007 205.031ZM268.373 208.965C268.155 208.783 267.903 208.647 267.631 208.564C267.359 208.482 267.073 208.454 266.791 208.484L266.836 207.919C267.063 208.199 267.359 208.416 267.696 208.547C268.032 208.678 268.396 208.719 268.753 208.667C268.616 208.751 268.489 208.851 268.376 208.965H268.373ZM264.157 201.005C263.923 201.354 263.799 201.766 263.801 202.186C263.803 202.606 263.931 203.016 264.168 203.363C264.176 203.376 264.187 203.388 264.196 203.401C264.044 203.458 263.899 203.531 263.765 203.621C263.86 203.324 263.889 203.011 263.849 202.702C263.814 202.428 263.725 202.165 263.588 201.925C263.451 201.686 263.268 201.477 263.05 201.308H263.043L264.157 201.005ZM262.055 206.057L262.867 204.999C262.855 205.065 262.847 205.131 262.841 205.198L262.683 207.141C262.384 206.871 262.014 206.692 261.617 206.625L262.056 206.057H262.055ZM258.242 214.929L258.482 214.355C258.649 213.95 258.685 213.503 258.585 213.077C258.633 213.049 258.681 213.021 258.728 212.989L262.461 210.426C262.485 210.409 262.506 210.391 262.529 210.373C262.579 210.576 262.659 210.77 262.765 210.949L262.101 211.405C261.89 211.973 261.52 212.469 261.037 212.833C260.553 213.198 259.975 213.416 259.371 213.463L258.242 214.929ZM268.134 212.36L268.25 212.846C268.065 212.763 267.869 212.707 267.668 212.679L268.134 212.36ZM272.571 212.859L272.411 212.182L272.38 212.053C272.608 212.333 272.903 212.551 273.238 212.686C273.009 212.706 272.784 212.764 272.574 212.856L272.571 212.859ZM259.866 202.008L258.725 203.494L257.346 205.289C257.34 205.297 257.334 205.305 257.329 205.314L257.403 203.887C257.403 203.85 257.403 203.814 257.403 203.777C257.468 203.757 257.533 203.735 257.597 203.709C258.004 203.538 258.348 203.243 258.579 202.866C258.809 202.489 258.916 202.049 258.884 201.608C259.173 201.821 259.512 201.958 259.869 202.005L259.866 202.008Z" fill="#EB9342"/>
<path opacity="0.5" d="M262.096 222.5L255.997 222.486C254.856 222.479 253.764 222.022 252.96 221.214C252.155 220.405 251.703 219.311 251.703 218.17L251.802 175.564C251.808 174.423 252.265 173.331 253.073 172.527C253.881 171.722 254.975 171.27 256.115 171.269L261.525 171.282C261.99 172.092 262.232 173.011 262.225 173.945L262.115 222.071C262.114 222.215 262.108 222.358 262.096 222.5Z" fill="#E58435"/>
<path d="M277.763 173.325L261.386 173.288L252.091 173.265C251.982 173.265 251.873 173.243 251.771 173.2C251.67 173.158 251.578 173.096 251.5 173.018C251.423 172.94 251.361 172.848 251.32 172.746C251.278 172.645 251.257 172.536 251.257 172.426L251.266 168.414C251.267 168.192 251.356 167.98 251.513 167.823C251.67 167.667 251.883 167.579 252.105 167.579L261.387 167.601L277.775 167.638C277.997 167.639 278.209 167.728 278.365 167.886C278.522 168.043 278.61 168.255 278.61 168.477L278.601 172.49C278.6 172.711 278.511 172.924 278.354 173.08C278.197 173.237 277.985 173.325 277.763 173.325Z" fill="#ABDDDA"/>
<path d="M261.386 173.288L252.091 173.265C251.982 173.265 251.873 173.243 251.771 173.2C251.67 173.158 251.578 173.096 251.5 173.018C251.423 172.94 251.361 172.848 251.32 172.746C251.278 172.645 251.257 172.536 251.257 172.426L251.266 168.414C251.267 168.192 251.356 167.98 251.513 167.823C251.67 167.667 251.883 167.579 252.105 167.579L261.387 167.601C261.608 167.603 261.82 167.692 261.976 167.849C262.132 168.006 262.22 168.218 262.22 168.44L262.21 172.452C262.209 172.672 262.122 172.882 261.968 173.038C261.814 173.194 261.605 173.284 261.386 173.288Z" fill="#91CECF"/>
<path d="M205.828 196.962L209.671 205.349L217.071 221.507C217.132 221.64 217.23 221.753 217.354 221.833C217.477 221.912 217.621 221.955 217.768 221.955H217.829C217.956 221.955 218.081 221.925 218.194 221.869C218.307 221.813 218.406 221.731 218.482 221.63C218.559 221.529 218.611 221.412 218.635 221.288C218.658 221.164 218.653 221.036 218.619 220.914L212.745 199.895L211.889 196.829L205.828 196.962Z" fill="#F14164"/>
<path d="M205.828 196.962L209.671 205.349L217.071 221.507C217.132 221.64 217.23 221.753 217.354 221.833C217.477 221.912 217.621 221.955 217.768 221.955H217.829C217.956 221.955 218.081 221.925 218.194 221.869C218.307 221.813 218.406 221.731 218.482 221.63C218.559 221.529 218.611 221.412 218.635 221.288C218.658 221.164 218.653 221.036 218.619 220.914L212.745 199.895L211.889 196.829L205.828 196.962Z" fill="black" fill-opacity="0.2"/>
<path d="M209.669 205.349C209.302 201.535 212.744 199.896 212.744 199.896L211.887 196.83L205.829 196.962L209.669 205.349Z" fill="#F14164"/>
<path d="M209.669 205.349C209.302 201.535 212.744 199.896 212.744 199.896L211.887 196.83L205.829 196.962L209.669 205.349Z" fill="black" fill-opacity="0.2"/>
<path d="M209.669 205.349C209.302 201.535 212.744 199.896 212.744 199.896L211.887 196.83L205.829 196.962L209.669 205.349Z" fill="black" fill-opacity="0.2"/>
<path d="M209.669 205.349C209.302 201.535 212.744 199.896 212.744 199.896L211.887 196.83L205.829 196.962L209.669 205.349Z" fill="black" fill-opacity="0.2"/>
<path d="M245.495 196.962L249.338 205.349L256.738 221.507C256.799 221.641 256.897 221.754 257.021 221.833C257.145 221.913 257.289 221.955 257.436 221.955H257.496C257.623 221.955 257.748 221.925 257.861 221.869C257.974 221.813 258.073 221.731 258.15 221.63C258.226 221.53 258.278 221.412 258.302 221.288C258.326 221.164 258.321 221.036 258.287 220.914L252.412 199.895L251.556 196.829L245.495 196.962Z" fill="#F14164"/>
<path d="M245.495 196.962L249.338 205.349L256.738 221.507C256.799 221.641 256.897 221.754 257.021 221.833C257.145 221.913 257.289 221.955 257.436 221.955H257.496C257.623 221.955 257.748 221.925 257.861 221.869C257.974 221.813 258.073 221.731 258.15 221.63C258.226 221.53 258.278 221.412 258.302 221.288C258.326 221.164 258.321 221.036 258.287 220.914L252.412 199.895L251.556 196.829L245.495 196.962Z" fill="black" fill-opacity="0.2"/>
<path d="M249.334 205.349C248.968 201.535 252.409 199.896 252.409 199.896L251.552 196.83L245.495 196.962L249.334 205.349Z" fill="#F14164"/>
<path d="M249.334 205.349C248.968 201.535 252.409 199.896 252.409 199.896L251.552 196.83L245.495 196.962L249.334 205.349Z" fill="black" fill-opacity="0.2"/>
<path d="M249.334 205.349C248.968 201.535 252.409 199.896 252.409 199.896L251.552 196.83L245.495 196.962L249.334 205.349Z" fill="black" fill-opacity="0.2"/>
<path d="M249.334 205.349C248.968 201.535 252.409 199.896 252.409 199.896L251.552 196.83L245.495 196.962L249.334 205.349Z" fill="black" fill-opacity="0.2"/>
<path d="M256.727 180.443H81.4948C80.6191 180.443 79.9092 181.153 79.9092 182.029V196.038C79.9092 196.913 80.6191 197.623 81.4948 197.623H256.727C257.603 197.623 258.313 196.913 258.313 196.038V182.029C258.313 181.153 257.603 180.443 256.727 180.443Z" fill="#F14164"/>
<path d="M256.727 180.443H81.4948C80.6191 180.443 79.9092 181.153 79.9092 182.029V196.038C79.9092 196.913 80.6191 197.623 81.4948 197.623H256.727C257.603 197.623 258.313 196.913 258.313 196.038V182.029C258.313 181.153 257.603 180.443 256.727 180.443Z" fill="black" fill-opacity="0.2"/>
<path d="M256.727 180.443H81.4948C80.6191 180.443 79.9092 181.153 79.9092 182.029V196.038C79.9092 196.913 80.6191 197.623 81.4948 197.623H256.727C257.603 197.623 258.313 196.913 258.313 196.038V182.029C258.313 181.153 257.603 180.443 256.727 180.443Z" fill="black" fill-opacity="0.2"/>
<path d="M88.2928 196.83L87.4362 199.896L81.5625 220.915C81.5284 221.037 81.523 221.165 81.5467 221.289C81.5704 221.413 81.6225 221.531 81.699 221.631C81.7754 221.732 81.8741 221.814 81.9874 221.87C82.1007 221.927 82.2255 221.956 82.352 221.956H82.4135C82.5604 221.956 82.7041 221.913 82.8277 221.834C82.9513 221.755 83.0495 221.641 83.1108 221.508L90.5098 205.35L94.3532 196.963L88.2928 196.83Z" fill="#F14164"/>
<path d="M88.2928 196.83L87.4362 199.896L81.5625 220.915C81.5284 221.037 81.523 221.165 81.5467 221.289C81.5704 221.413 81.6225 221.531 81.699 221.631C81.7754 221.732 81.8741 221.814 81.9874 221.87C82.1007 221.927 82.2255 221.956 82.352 221.956H82.4135C82.5604 221.956 82.7041 221.913 82.8277 221.834C82.9513 221.755 83.0495 221.641 83.1108 221.508L90.5098 205.35L94.3532 196.963L88.2928 196.83Z" fill="black" fill-opacity="0.2"/>
<path d="M119.092 196.83L118.236 199.896L112.361 220.915C112.327 221.037 112.322 221.165 112.346 221.289C112.37 221.414 112.422 221.531 112.498 221.631C112.575 221.732 112.674 221.814 112.787 221.87C112.9 221.926 113.025 221.956 113.152 221.956H113.212C113.359 221.956 113.503 221.914 113.627 221.834C113.751 221.755 113.849 221.642 113.91 221.508L121.306 205.35L125.149 196.963L119.092 196.83Z" fill="#F14164"/>
<path d="M119.092 196.83L118.236 199.896L112.361 220.915C112.327 221.037 112.322 221.165 112.346 221.289C112.37 221.414 112.422 221.531 112.498 221.631C112.575 221.732 112.674 221.814 112.787 221.87C112.9 221.926 113.025 221.956 113.152 221.956H113.212C113.359 221.956 113.503 221.914 113.627 221.834C113.751 221.755 113.849 221.642 113.91 221.508L121.306 205.35L125.149 196.963L119.092 196.83Z" fill="black" fill-opacity="0.2"/>
<path d="M144.957 130.151H79.353C78.3469 130.151 77.5312 130.967 77.5312 131.973V195.794C77.5312 196.8 78.3469 197.615 79.353 197.615H144.957C145.963 197.615 146.779 196.8 146.779 195.794V131.973C146.779 130.967 145.963 130.151 144.957 130.151Z" fill="#233862"/>
<path d="M149.157 131.942V186.123C149.157 187.111 148.443 187.914 147.571 187.914H81.4948C80.6229 187.914 79.9092 187.108 79.9092 186.123V131.942C79.9092 130.954 80.6229 130.151 81.4948 130.151H147.571C148.443 130.151 149.157 130.957 149.157 131.942Z" fill="#F14164"/>
<path d="M92.5003 185.026C92.5003 185.026 80.3465 184.057 79.9072 183.757V172.598C82.4713 170.173 87.505 167.413 87.505 167.413L92.5003 185.026Z" fill="#273F76"/>
<path d="M95.9697 143.184C95.9697 142.54 96.4178 142.019 96.969 142.019C97.5202 142.019 97.9683 142.54 97.9683 143.184C97.9683 143.827 97.5213 144.349 96.969 144.349C96.4167 144.349 95.9697 143.827 95.9697 143.184Z" fill="#273F76"/>
<path d="M135.937 143.184C135.937 142.54 136.385 142.019 136.936 142.019C137.487 142.019 137.935 142.54 137.935 143.184C137.935 143.827 137.488 144.349 136.936 144.349C136.383 144.349 135.937 143.827 135.937 143.184Z" fill="#273F76"/>
<path d="M95.9697 165.163C95.9697 164.519 96.4178 163.997 96.969 163.997C97.5202 163.997 97.9683 164.519 97.9683 165.163C97.9683 165.808 97.5213 166.327 96.969 166.327C96.4167 166.327 95.9697 165.806 95.9697 165.163Z" fill="#273F76"/>
<path d="M135.937 165.163C135.937 164.519 136.385 163.997 136.936 163.997C137.487 163.997 137.935 164.519 137.935 165.163C137.935 165.808 137.488 166.327 136.936 166.327C136.383 166.327 135.937 165.806 135.937 165.163Z" fill="#273F76"/>
<path d="M199.772 182.029V196.038C199.767 196.461 199.596 196.865 199.294 197.162C198.993 197.459 198.586 197.625 198.163 197.623H79.8148C79.3916 197.625 78.9848 197.459 78.6834 197.162C78.382 196.865 78.2104 196.461 78.2061 196.038V182.029C78.2104 181.606 78.382 181.202 78.6834 180.904C78.9848 180.607 79.3916 180.442 79.8148 180.443H198.163C198.586 180.442 198.993 180.607 199.294 180.904C199.596 181.202 199.767 181.606 199.772 182.029Z" fill="#F14164"/>
<path d="M199.772 182.029V196.038C199.767 196.461 199.596 196.865 199.294 197.162C198.993 197.459 198.586 197.625 198.163 197.623H79.8148C79.3916 197.625 78.9848 197.459 78.6834 197.162C78.382 196.865 78.2104 196.461 78.2061 196.038V182.029C78.2104 181.606 78.382 181.202 78.6834 180.904C78.9848 180.607 79.3916 180.442 79.8148 180.443H198.163C198.586 180.442 198.993 180.607 199.294 180.904C199.596 181.202 199.767 181.606 199.772 182.029Z" fill="black" fill-opacity="0.2"/>
<path d="M88.3207 159.275C88.3207 159.275 83.8723 172.204 86.2047 180.549H93.8914C93.8914 180.549 96.7322 165.331 88.3207 159.275Z" fill="#3358A0"/>
<path d="M88.3203 159.275C88.3203 159.275 103.804 157.115 112.33 159.275L118.739 180.549H93.8954C93.8954 180.549 96.7318 167.817 88.3203 159.275Z" fill="#507ED1"/>
<path d="M66.729 161.427V221.956H24.4882C21.7935 218.909 -0.191684 192.738 10.2129 161.427H66.729Z" fill="#F14164"/>
<path d="M34.515 161.427V221.956H24.4882C21.7935 218.909 -0.191682 192.738 10.2129 161.427H34.515Z" fill="#F14164"/>
<path d="M34.515 161.427V221.956H24.4882C21.7935 218.909 -0.191682 192.738 10.2129 161.427H34.515Z" fill="black" fill-opacity="0.2"/>
<path d="M66.7283 178.207H34.5176V178.423H66.7283V178.207Z" fill="#233862"/>
<path d="M66.7283 199.663H34.5176V199.879H66.7283V199.663Z" fill="#233862"/>
<path d="M118.479 134.384C118.424 134.109 114.258 139.351 114.125 139.786C112.9 143.803 115.351 147.15 116.825 146.504C117.771 146.089 118.317 147.727 118.317 147.727L126.669 138.451C126.669 138.451 121.994 131.726 118.479 134.384Z" fill="#2C3A64"/>
<path d="M120.028 134.355C120.028 134.355 118.503 130.124 113.97 132.244C113.97 132.244 115.518 131.975 116.577 132.387C116.577 132.387 112.893 132.043 110.967 136.12C109.04 140.198 114.054 145.825 113.679 147.515C113.303 149.205 109.694 151.196 112.032 154.998C114.37 158.799 128.087 158.512 128.911 162.175C128.911 162.175 130.302 153.541 125.718 152.043C125.718 152.043 127.955 152.779 128.927 154.443C128.927 154.443 127.76 150.851 125.093 150.777C122.732 150.71 119.522 147.929 119.393 147.223C119.265 146.517 120.028 134.355 120.028 134.355Z" fill="#2C3A64"/>
<path d="M122.377 161.404C116.035 162.769 115.929 153.009 116.328 152.996C117.046 152.462 118.136 150.251 118.422 146.803L118.718 146.887L123.678 148.326C123.678 148.326 123.427 149.906 123.292 151.401C123.188 152.57 123.158 153.689 123.375 153.967C123.763 154.057 124.069 161.041 122.377 161.404Z" fill="#FFB27D"/>
<path d="M123.679 148.327C123.679 148.327 123.425 149.905 123.292 151.402C120.475 151.072 119.205 148.37 118.718 146.888L123.679 148.327Z" fill="#ED985F"/>
<path d="M124.499 149.826C124.499 149.826 117.806 149.355 118.163 145.192C118.52 141.029 117.897 138.164 122.186 138.288C126.474 138.412 127.167 140.072 127.385 141.491C127.604 142.91 126.247 149.841 124.499 149.826Z" fill="#FFB27D"/>
<path d="M127.388 139.159C126.465 137.817 125.66 138.025 125.192 138.363C121.713 136.037 116.596 137.924 116.596 137.924C116.171 139.674 116.002 141.477 116.092 143.276C116.092 143.276 117.245 144.135 120.115 143.656C120.994 143.51 121.812 142.967 122.531 142.284C121.686 143.429 120.688 144.453 119.566 145.328C123.056 144.07 124.807 139.522 124.985 139.039C125.361 139.441 126.097 140.307 126.273 141.108C126.514 142.198 126.474 144.393 127.117 144.374C127.107 144.372 128.774 141.172 127.388 139.159Z" fill="#2C3A64"/>
<path d="M144.884 172.307L138.808 175.73L129.447 181.001L124.262 183.923C124.262 183.923 120.032 185.669 115.992 182.649C114.528 181.551 113.356 178.888 112.154 176.234C107.63 166.252 109.532 153.879 109.532 153.879C109.717 153.818 111.919 153.122 114.229 152.962C117.596 152.727 122.238 152.625 125.288 153.351C126.139 153.553 126.866 153.819 127.408 154.165C131.223 156.601 129.982 168.138 134.765 169.867C136.022 170.32 137.317 170.704 138.54 171.023C140.63 171.566 142.747 171.995 144.884 172.307Z" fill="#FFB27D"/>
<path d="M125.288 153.355C125.288 153.355 139.564 163.113 140.538 164.827C140.538 164.827 132.907 166.452 127.408 162.637C121.908 158.823 125.288 153.355 125.288 153.355Z" fill="#FFB27D"/>
<path d="M132.165 162.35C131.906 162.818 131.565 163.236 131.158 163.582C131.088 163.638 131.048 163.665 131.048 163.665L131.037 163.639L129.719 160.202L127.413 154.169C128.659 154.738 132.818 158.639 132.818 158.639C133.012 160.32 132.626 161.538 132.165 162.35Z" fill="#ABDDDA"/>
<path d="M138.809 175.73C138.695 175.943 138.523 176.12 138.313 176.239C135.39 177.849 135.085 180.861 129.448 181.006C128.25 181.037 126.812 180.937 125.049 180.667C121.498 180.118 118.474 181.406 115.992 182.654C114.529 181.556 113.089 179.84 111.887 177.185C107.362 167.204 109.91 154.053 109.91 154.053C110.097 153.991 111.916 153.127 114.227 152.967C114.227 152.967 121.289 158.374 123.307 157.508C125.325 156.643 125.284 153.355 125.284 153.355C126.135 153.557 126.862 153.823 127.403 154.169C131.219 156.606 129.977 168.142 134.76 169.872C136.017 170.324 137.312 170.709 138.535 171.027C139.131 173.115 139.315 174.831 138.809 175.73Z" fill="#ABDDDA"/>
<path d="M132.164 162.35C131.906 162.818 131.565 163.235 131.157 163.582L131.035 163.639L130.136 164.066C130.136 164.066 127.398 158.982 128.318 159.263C128.601 159.35 129.128 159.724 129.719 160.202C130.575 160.893 131.57 161.797 132.164 162.35Z" fill="#91CECF"/>
<path d="M137.935 163.667C138.6 163.412 153.72 164.023 153.72 164.023L141.361 166.672L137.935 163.667Z" fill="#FFB27D"/>
<path d="M233.566 179.767C233.566 179.767 226.4 188.617 224.16 189.177C222.074 189.7 206.021 181.051 203.887 179.894L203.653 179.768C203.653 179.768 119.028 201.606 116.974 201.233C115.197 200.904 105.91 186.389 104.771 181.322C104.702 181.034 104.665 180.739 104.661 180.443V180.435C104.661 180.106 104.738 179.87 104.894 179.733C106.947 177.937 125.449 161.175 132.456 163.963C139.463 166.751 166.678 159.131 173.77 160.194C180.863 161.257 233.566 179.767 233.566 179.767Z" fill="#B7591A"/>
<path d="M110.338 154.346C110.338 154.346 104.71 155.635 108.436 161.535C112.162 167.435 124.418 176.748 125.075 176.217C125.733 175.685 126.132 173.691 125.999 172.491C125.866 171.29 113.908 153.111 110.338 154.346Z" fill="#FFB27D"/>
<path d="M149.755 169.28C148.736 168.522 147.903 168.465 147.065 168.329C144.852 167.97 144.236 168.38 142.965 168.929C142.965 168.929 128.224 169.537 125.048 170.675L125.075 176.224C125.075 176.224 136.009 173.66 142.765 170.734C143.183 170.554 143.644 170.498 144.093 170.573C145.044 170.726 146.742 170.859 147.774 170.731C150.126 170.441 150.439 169.791 149.755 169.28Z" fill="#FFB27D"/>
<path d="M141.957 170.064C141.957 170.064 143.016 169.261 143.369 168.843C143.723 168.425 145.104 168.169 145.81 167.687C146.516 167.205 146.774 167.108 146.614 167.687C146.454 168.265 145.773 168.67 145.997 168.895C146.221 169.12 146.656 170.11 146.656 170.11L141.957 170.064Z" fill="#FFB27D"/>
<path d="M114.23 152.967C114.23 152.967 109.919 152.872 108.323 154.561C105.915 157.112 107.311 161.76 108.284 163.49C108.284 163.49 115.135 164.867 117.297 159.786L114.23 152.967Z" fill="#ABDDDA"/>
<path d="M203.652 179.775C203.652 179.775 119.027 201.613 116.973 201.24C115.196 200.911 105.909 186.396 104.77 181.328L104.66 180.45V180.441C104.807 180.498 114.763 184.474 124.266 183.931C133.83 183.387 197.806 178.116 203.652 179.775Z" fill="#D67330"/>
<path d="M203.884 179.905L203.649 179.779C203.738 179.798 203.819 179.842 203.884 179.905Z" fill="#D67330"/>
<path d="M233.566 179.775C233.566 179.775 226.4 188.625 224.16 189.185C222.074 189.708 203.206 181.596 201.072 180.439L202.4 180.097C202.82 179.988 203.652 179.775 203.652 179.775C203.652 179.775 218.257 179.211 222.255 179.838C226.253 180.465 233.566 179.775 233.566 179.775Z" fill="#91420C"/>
<path d="M292.434 221.846H1.12252C0.939976 221.846 0.791992 221.994 0.791992 222.177V222.29C0.791992 222.473 0.939976 222.621 1.12252 222.621H292.434C292.617 222.621 292.765 222.473 292.765 222.29V222.177C292.765 221.994 292.617 221.846 292.434 221.846Z" fill="#2E3552"/>
<path d="M119.815 144.261C119.815 144.261 124.81 140.457 128.104 143.183C128.104 143.183 129.901 139.843 126.024 137.317C126.024 137.317 120.143 136.219 115.942 142.396L119.815 144.261Z" fill="#C65447"/>
<path d="M118.624 142.321C118.805 142.326 118.984 142.28 119.141 142.189C119.297 142.098 119.426 141.965 119.511 141.805C121.62 137.921 125.633 137.652 125.633 137.652C122.808 137.662 120.086 138.719 117.994 140.617C117.848 140.748 117.746 140.92 117.699 141.11C117.652 141.3 117.664 141.499 117.732 141.683C117.799 141.866 117.921 142.025 118.08 142.139C118.239 142.253 118.428 142.316 118.624 142.321Z" fill="#B2443B"/>
<path d="M41.3374 155.582V159.63C41.3374 160.618 40.8158 161.419 40.1778 161.419H38.1166C37.4786 161.419 36.957 160.614 36.957 159.63V155.582C36.957 154.864 37.2359 154.239 37.6368 153.957C37.9201 153.756 38.0958 153.306 38.0958 152.825V152.146C38.0958 151.664 38.3527 151.268 38.6646 151.268H39.6298C39.9428 151.268 40.1975 151.662 40.1975 152.146V152.753C40.1975 153.282 40.3963 153.753 40.7005 153.991C41.0771 154.284 41.3374 154.889 41.3374 155.582Z" fill="#AFCDFB"/>
<path d="M38.1123 150.756H40.1823C40.2361 150.756 40.2878 150.777 40.3259 150.815C40.364 150.854 40.3854 150.905 40.3854 150.959V152.84C40.3854 152.894 40.364 152.946 40.3259 152.984C40.2878 153.022 40.2361 153.043 40.1823 153.043H38.1134C38.0866 153.043 38.06 153.038 38.0353 153.028C38.0105 153.017 37.988 153.002 37.969 152.983C37.95 152.965 37.935 152.942 37.9247 152.917C37.9145 152.892 37.9092 152.866 37.9092 152.839V150.959C37.9092 150.905 37.9306 150.854 37.9687 150.815C38.0068 150.777 38.0585 150.756 38.1123 150.756Z" fill="#F99746"/>
<path d="M41.3374 156.174H36.957V158.939H41.3374V156.174Z" fill="#F99746"/>
<path d="M59.7677 156.284H63.2212C64.1128 156.283 64.9675 155.928 65.5979 155.297C66.2282 154.667 66.5827 153.812 66.5836 152.92V149.467C66.5827 148.575 66.2282 147.721 65.5978 147.09C64.9674 146.46 64.1127 146.105 63.2212 146.104H59.7677C58.8762 146.105 58.0214 146.46 57.3911 147.09C56.7607 147.721 56.4061 148.575 56.4053 149.467V152.92C56.4061 153.812 56.7606 154.667 57.391 155.297C58.0213 155.928 58.8761 156.283 59.7677 156.284ZM63.2212 147.467C63.7514 147.468 64.2596 147.679 64.6345 148.054C65.0094 148.428 65.2203 148.937 65.2209 149.467V152.92C65.2206 153.451 65.0098 153.959 64.6349 154.334C64.26 154.71 63.7516 154.921 63.2212 154.921H59.7677C59.2372 154.921 58.7287 154.71 58.3536 154.334C57.9785 153.959 57.7675 153.451 57.7669 152.92V149.467C57.7675 148.936 57.9785 148.428 58.3536 148.053C58.7288 147.678 59.2373 147.467 59.7677 147.467H63.2212Z" fill="#AFCDFB"/>
<path d="M42.6465 143.395V156.597C42.6497 157.721 43.0978 158.798 43.8928 159.593C44.6879 160.388 45.7653 160.836 46.8896 160.839H57.3051C57.8623 160.839 58.4142 160.73 58.9291 160.517C59.444 160.304 59.9119 159.991 60.306 159.597C60.7 159.203 61.0126 158.735 61.2257 158.221C61.4389 157.706 61.5484 157.154 61.5481 156.597V143.395C61.5481 143.363 61.5481 143.332 61.5481 143.3H42.6476C42.6465 143.332 42.6465 143.363 42.6465 143.395Z" fill="#E9F3FE"/>
<path d="M60.9425 149.67C60.9425 149.69 60.9425 149.709 60.9425 149.729L60.8141 157.123C60.8141 158.55 59.1559 160.373 56.9707 160.373H47.2206C45.0365 160.373 43.3608 158.616 43.3608 157.189L43.251 149.73C43.251 149.711 43.251 149.691 43.251 149.671C43.251 149.671 50.0834 147.861 53.3535 149.171C55.1215 149.877 60.9425 149.67 60.9425 149.67Z" fill="#C65447"/>
<path d="M46.8346 160.812H57.5049C57.5806 160.812 57.6532 160.843 57.7067 160.896C57.7603 160.95 57.7904 161.022 57.7904 161.098C57.7904 161.174 57.7603 161.246 57.7067 161.3C57.6532 161.353 57.5806 161.383 57.5049 161.383H46.8324C46.7567 161.383 46.684 161.353 46.6305 161.3C46.577 161.246 46.5469 161.174 46.5469 161.098C46.5469 161.022 46.577 160.95 46.6305 160.896C46.684 160.843 46.7567 160.812 46.8324 160.812H46.8346Z" fill="#AFCDFB"/>
<path d="M47.0588 159.8C44.5639 158.592 43.3186 156.083 44.3717 153.431C44.4746 153.17 44.5972 152.917 44.7385 152.675L53.0434 158.21C51.7202 160.045 49.2143 160.846 47.0588 159.8Z" fill="#F99746"/>
<path d="M47.0978 159.708C44.6633 158.527 43.4488 156.084 44.4755 153.495C44.5782 153.236 44.7 152.985 44.8401 152.745L52.9474 158.148C51.6582 159.944 49.2061 160.73 47.0978 159.708Z" fill="#FFA766"/>
<path d="M48.8106 155.904L46.9439 158.528C46.9111 158.574 46.8891 158.626 46.8795 158.682C46.8699 158.737 46.8729 158.794 46.8883 158.848C46.9037 158.902 46.9312 158.952 46.9685 158.994C47.0059 159.036 47.0523 159.069 47.1042 159.09C47.4508 159.235 47.8094 159.349 48.1759 159.431C48.5796 159.517 48.99 159.568 49.4025 159.584C49.4576 159.586 49.5125 159.575 49.5628 159.552C49.6132 159.53 49.6577 159.496 49.6929 159.454C49.7281 159.411 49.7531 159.361 49.766 159.308C49.7789 159.254 49.7792 159.198 49.7671 159.144L49.0555 155.951C49.0501 155.925 49.0371 155.901 49.0181 155.882C48.9991 155.863 48.975 155.851 48.9488 155.846C48.9226 155.841 48.8955 155.844 48.8709 155.854C48.8463 155.864 48.8254 155.882 48.8106 155.904Z" fill="#F99746"/>
<path d="M48.4325 155.14L45.3699 153.099C45.2586 153.308 45.1592 153.522 45.0724 153.742C44.9235 154.126 44.8081 154.523 44.7275 154.928C44.7169 154.982 44.7187 155.038 44.733 155.091C44.7472 155.144 44.7735 155.193 44.8098 155.235C44.8461 155.276 44.8914 155.309 44.9422 155.33C44.9931 155.351 45.0481 155.361 45.1031 155.357L48.3678 155.161C48.3908 155.16 48.4132 155.152 48.4325 155.14Z" fill="#F99746"/>
<path d="M48.4387 155.476L45.2212 155.669C45.1652 155.672 45.1106 155.688 45.0616 155.716C45.0126 155.743 44.9704 155.781 44.9381 155.827C44.9058 155.873 44.8843 155.925 44.8751 155.981C44.866 156.036 44.8694 156.093 44.8852 156.147C44.9897 156.507 45.1264 156.858 45.2937 157.194C45.4796 157.563 45.6971 157.914 45.9438 158.245C45.9769 158.289 46.0197 158.325 46.0689 158.35C46.1181 158.375 46.1723 158.388 46.2274 158.389C46.2825 158.39 46.337 158.378 46.3868 158.354C46.4367 158.331 46.4804 158.296 46.5148 158.253L48.5517 155.694C48.5683 155.674 48.5786 155.649 48.5813 155.623C48.5841 155.597 48.5791 155.571 48.5671 155.548C48.555 155.525 48.5365 155.505 48.5136 155.493C48.4908 155.48 48.4648 155.474 48.4387 155.476Z" fill="#F99746"/>
<path d="M52.4917 157.844L49.3808 155.772C49.3612 155.789 49.347 155.811 49.3399 155.836C49.3329 155.861 49.3333 155.887 49.3413 155.911L50.2604 158.999C50.2763 159.053 50.3041 159.103 50.3418 159.144C50.3795 159.186 50.4261 159.219 50.4781 159.24C50.5301 159.261 50.5862 159.27 50.6423 159.266C50.6983 159.263 50.7528 159.247 50.8017 159.219C51.1294 159.035 51.4399 158.822 51.7296 158.583C52.0016 158.356 52.2563 158.109 52.4917 157.844Z" fill="#F99746"/>
<path d="M59.7491 156.048C58.1514 157.63 55.897 157.906 54.1488 156.387C53.9769 156.237 53.8165 156.075 53.6689 155.902L60.1478 151.04C61.1932 152.55 61.1295 154.684 59.7491 156.048Z" fill="#F99746"/>
<path d="M59.6903 155.996C58.131 157.541 55.9304 157.81 54.2294 156.326C54.0592 156.177 53.9003 156.017 53.7539 155.845L60.0746 151.099C61.1002 152.571 61.0409 154.659 59.6903 155.996Z" fill="#FFA766"/>
<path d="M57.2407 153.662L58.7451 155.8C58.7712 155.837 58.8053 155.868 58.845 155.89C58.8847 155.912 58.9289 155.925 58.9743 155.928C59.0197 155.931 59.0651 155.923 59.1072 155.906C59.1493 155.889 59.1869 155.862 59.2173 155.828C59.422 155.603 59.6057 155.359 59.7663 155.1C59.9415 154.815 60.0914 154.515 60.2144 154.203C60.2308 154.161 60.2375 154.117 60.2339 154.072C60.2303 154.027 60.2165 153.984 60.1936 153.946C60.1707 153.908 60.1392 153.875 60.1017 153.851C60.0642 153.826 60.0216 153.811 59.9772 153.806L57.3417 153.489C57.3208 153.487 57.2996 153.491 57.2809 153.501C57.2621 153.51 57.2464 153.525 57.2358 153.543C57.2251 153.561 57.2199 153.582 57.2208 153.603C57.2217 153.624 57.2286 153.644 57.2407 153.662Z" fill="#F99746"/>
<path d="M56.5552 153.742L54.168 155.535C54.2977 155.676 54.4351 155.81 54.5798 155.936C54.8341 156.153 55.1067 156.349 55.3946 156.52C55.433 156.542 55.4761 156.556 55.5206 156.559C55.5651 156.563 55.6098 156.556 55.6513 156.539C55.6928 156.523 55.7299 156.497 55.7598 156.464C55.7897 156.431 55.8117 156.391 55.8239 156.348L56.5541 153.798C56.5593 153.779 56.5597 153.76 56.5552 153.742Z" fill="#F99746"/>
<path d="M56.8132 153.83L56.0939 156.343C56.0813 156.387 56.0787 156.433 56.0863 156.478C56.094 156.523 56.1116 156.565 56.138 156.602C56.1644 156.639 56.1989 156.67 56.2388 156.692C56.2787 156.714 56.323 156.726 56.3684 156.729C56.6725 156.746 56.9776 156.736 57.2799 156.699C57.6121 156.654 57.9399 156.581 58.2594 156.479C58.3027 156.466 58.3423 156.443 58.3752 156.412C58.408 156.38 58.4332 156.342 58.4487 156.3C58.4643 156.257 58.4697 156.211 58.4647 156.166C58.4597 156.121 58.4442 156.078 58.4197 156.04L57.0119 153.79C56.9998 153.772 56.9827 153.758 56.9627 153.75C56.9426 153.742 56.9206 153.739 56.8994 153.744C56.8781 153.748 56.8586 153.758 56.8433 153.774C56.8279 153.789 56.8174 153.808 56.8132 153.83Z" fill="#F99746"/>
<path d="M59.7195 151.368L57.2949 153.193C57.303 153.212 57.3164 153.228 57.3335 153.24C57.3506 153.252 57.3708 153.259 57.3916 153.26L60.0018 153.389C60.0472 153.392 60.0926 153.384 60.1345 153.366C60.1765 153.348 60.214 153.322 60.2441 153.287C60.2743 153.253 60.2964 153.213 60.3088 153.169C60.3212 153.125 60.3236 153.079 60.3158 153.035C60.2633 152.735 60.1843 152.441 60.0797 152.156C59.9792 151.885 59.8588 151.621 59.7195 151.368Z" fill="#F99746"/>
<path d="M53.1338 159.677C54.1539 160.496 55.5287 159.438 56.0723 159.269C56.6159 159.099 57.3626 158.208 57.3626 158.208C57.3626 158.208 55.6232 157.839 54.3626 158.155C54.0157 158.232 53.7051 158.424 53.4819 158.7C53.2586 158.977 53.1359 159.321 53.1338 159.676V159.677Z" fill="#A8D29F"/>
<path d="M53.1338 159.672C53.1448 159.651 53.864 158.368 57.3626 158.204C57.3626 158.204 55.6232 157.835 54.3626 158.151C54.0157 158.227 53.7051 158.42 53.4819 158.696C53.2586 158.972 53.1359 159.316 53.1338 159.672Z" fill="#82B378"/>
<path d="M49.3364 156.719C49.7943 157.945 51.5162 157.74 52.0696 157.874C52.623 158.008 53.7168 157.624 53.7168 157.624C53.7168 157.624 52.4111 156.416 51.1659 156.042C50.8288 155.93 50.4637 155.936 50.1304 156.059C49.7972 156.182 49.5157 156.415 49.332 156.719H49.3364Z" fill="#A8D29F"/>
<path d="M49.3359 156.719C49.3568 156.707 50.6306 155.973 53.7207 157.624C53.7207 157.624 52.415 156.416 51.1698 156.042C50.8327 155.93 50.4676 155.936 50.1344 156.059C49.8011 156.182 49.5196 156.415 49.3359 156.719Z" fill="#82B378"/>
<path opacity="0.4" d="M42.6465 143.395V156.597C42.6497 157.721 43.0978 158.798 43.8928 159.593C44.6879 160.388 45.7653 160.836 46.8896 160.839H50.3903V143.3H42.6476C42.6465 143.332 42.6465 143.363 42.6465 143.395Z" fill="#AFCDFB"/>
<path opacity="0.5" d="M56.2793 143.3V160.84H57.306C57.6442 160.84 57.9811 160.8 58.3097 160.72V143.3H56.2793Z" fill="#F5FAFF"/>
<path opacity="0.2" d="M59.528 143.3C59.528 143.3 60.3384 140.435 58.1762 139.591C53.4752 137.757 56.4269 135.386 53.1249 134.277C49.8229 133.168 46.186 136.82 48.7073 139.346C49.9745 140.615 43.6615 141.597 43.3672 143.299L59.528 143.3Z" fill="#F5FAFF"/>
</svg>
