<svg width="40" height="40" viewBox="0 0 40 40" fill="none" xmlns="http://www.w3.org/2000/svg">
<g id="carbon:chart-average">
<path id="Vector" d="M28.75 30C24.25 30 22.4625 24.78 20.7337 19.7325C19.0962 14.9475 17.4 10 13.75 10C12.8977 10.0501 12.0797 10.3528 11.4001 10.8695C10.7204 11.3862 10.21 12.0934 9.93375 12.9013L7.5625 12.105C7.62625 11.9175 9.15125 7.5 13.75 7.5C19.1875 7.5 21.265 13.5687 23.1 18.9225C24.6112 23.3337 26.0375 27.5 28.75 27.5C29.6023 27.4499 30.4203 27.1472 31.0999 26.6305C31.7796 26.1138 32.29 25.4066 32.5662 24.5988L34.9362 25.395C34.8737 25.5825 33.3488 30 28.75 30Z" fill="white"/>
<path id="Vector_2" d="M5 35V21.25H7.5V18.75H5V2.5H2.5V35C2.5 35.663 2.76339 36.2989 3.23223 36.7678C3.70107 37.2366 4.33696 37.5 5 37.5H37.5V35H5Z" fill="white"/>
<path id="Vector_3" d="M10 18.75H12.5V21.25H10V18.75ZM15 18.75H17.5V21.25H15V18.75ZM25 18.75H27.5V21.25H25V18.75ZM30 18.75H32.5V21.25H30V18.75ZM35 18.75H37.5V21.25H35V18.75Z" fill="white"/>
</g>
</svg>
