<svg width="36" height="36" viewBox="0 0 36 36" fill="none" xmlns="http://www.w3.org/2000/svg">
<g id="fontisto:blood-test" clip-path="url(#clip0_3290_12624)">
<path id="Vector" d="M26.0324 30.1965L29.9564 29.9775L30.1859 26.055L22.7189 18.588L18.5684 22.731L26.0324 30.1965Z" fill="white"/>
<path id="Vector_2" d="M15.3537 2.41042L13.0242 4.73992L10.0002 1.71592C9.4646 1.13795 8.81791 0.673955 8.09883 0.351702C7.37975 0.0294496 6.60305 -0.144441 5.81521 -0.159565C5.02736 -0.17469 4.24457 -0.0307371 3.51365 0.26368C2.78273 0.558096 2.11871 0.996927 1.56131 1.55392C1.00392 2.11091 0.564608 2.77461 0.269662 3.50531C-0.0252844 4.23602 -0.169804 5.01871 -0.155251 5.80657C-0.140697 6.59442 0.0326304 7.37124 0.354362 8.09056C0.676093 8.80987 1.13962 9.4569 1.7172 9.99292L1.7202 9.99592L4.7457 13.0199L2.4162 15.3494L5.3667 18.2999L7.8612 15.8039L25.1592 33.1004L30.6387 32.7899L33.8427 35.9939L36.0177 33.8189L32.8137 30.6149L33.1242 25.1354L15.8277 7.83892L18.3237 5.34292L15.3537 2.41042ZM30.8037 30.8324L25.9047 31.1114L9.2367 14.4434L14.4162 9.26392L31.0842 25.9319L30.8037 30.8324Z" fill="white"/>
</g>
<defs>
<clipPath id="clip0_3290_12624">
<rect width="36" height="36" fill="white"/>
</clipPath>
</defs>
</svg>
