<svg width="40" height="40" viewBox="0 0 40 40" fill="none" xmlns="http://www.w3.org/2000/svg">
<g id="mdi:blood-outline">
<path id="Vector" d="M20 6.28333L18.75 7.68333C18.75 7.68333 16.6167 10.1 14.4667 13.2333C12.3167 16.3667 10 20.1167 10 23.7167C10 26.3688 11.0536 28.9124 12.9289 30.7877C14.8043 32.6631 17.3478 33.7167 20 33.7167C22.6522 33.7167 25.1957 32.6631 27.0711 30.7877C28.9464 28.9124 30 26.3688 30 23.7167C30 20.1167 27.6833 16.3667 25.5333 13.2333C24.2072 11.307 22.7773 9.45431 21.25 7.68333L20 6.28333ZM20 11.5C20.7333 12.3667 21.4 13.0833 22.8 15.1167C24.8167 18.05 26.6667 21.7833 26.6667 23.7167C26.6667 27.4167 23.7 30.3833 20 30.3833C16.3 30.3833 13.3333 27.4167 13.3333 23.7167C13.3333 21.7833 15.1833 18.05 17.2 15.1167C18.6 13.0833 19.2667 12.3667 20 11.5Z" fill="white"/>
</g>
</svg>
