<svg width="40" height="40" viewBox="0 0 40 40" fill="none" xmlns="http://www.w3.org/2000/svg">
<g id="uil:heart-medical">
<path id="Vector" d="M23.3325 18.3331H21.6658V16.6665C21.6658 16.2244 21.4902 15.8005 21.1777 15.4879C20.8651 15.1754 20.4412 14.9998 19.9992 14.9998C19.5571 14.9998 19.1332 15.1754 18.8206 15.4879C18.5081 15.8005 18.3325 16.2244 18.3325 16.6665V18.3331H16.6658C16.2238 18.3331 15.7999 18.5087 15.4873 18.8213C15.1748 19.1338 14.9992 19.5578 14.9992 19.9998C14.9992 20.4418 15.1748 20.8657 15.4873 21.1783C15.7999 21.4909 16.2238 21.6665 16.6658 21.6665H18.3325V23.3331C18.3325 23.7751 18.5081 24.1991 18.8206 24.5116C19.1332 24.8242 19.5571 24.9998 19.9992 24.9998C20.4412 24.9998 20.8651 24.8242 21.1777 24.5116C21.4902 24.1991 21.6658 23.7751 21.6658 23.3331V21.6665H23.3325C23.7745 21.6665 24.1984 21.4909 24.511 21.1783C24.8236 20.8657 24.9992 20.4418 24.9992 19.9998C24.9992 19.5578 24.8236 19.1338 24.511 18.8213C24.1984 18.5087 23.7745 18.3331 23.3325 18.3331ZM33.5992 8.33312C31.822 6.57429 29.4747 5.50857 26.9809 5.32826C24.487 5.14794 22.0109 5.86491 19.9992 7.34979C17.8786 5.77252 15.2391 5.05731 12.6124 5.34818C9.98557 5.63906 7.56656 6.91442 5.84245 8.91743C4.11833 10.9204 3.21719 13.5023 3.32049 16.1431C3.42379 18.784 4.52385 21.2876 6.39916 23.1498L16.3992 33.2331C17.3367 34.1695 18.6075 34.6954 19.9325 34.6954C21.2575 34.6954 22.5283 34.1695 23.4658 33.2331L33.4658 23.1498C34.4507 22.1875 35.2357 21.0401 35.7757 19.7735C36.3158 18.5069 36.6001 17.146 36.6125 15.7692C36.6249 14.3923 36.3651 13.0265 35.8479 11.7504C35.3308 10.4743 34.5666 9.31294 33.5992 8.33312ZM31.2492 20.7665L21.2492 30.7665C21.0942 30.9227 20.9099 31.0467 20.7068 31.1313C20.5037 31.2159 20.2858 31.2595 20.0658 31.2595C19.8458 31.2595 19.628 31.2159 19.4249 31.1313C19.2218 31.0467 19.0374 30.9227 18.8825 30.7665L8.88249 20.7665C7.57542 19.4304 6.84351 17.6356 6.84351 15.7665C6.84351 13.8973 7.57542 12.1025 8.88249 10.7665C10.2144 9.45143 12.0108 8.71407 13.8825 8.71407C15.7542 8.71407 17.5506 9.45143 18.8825 10.7665C19.0374 10.9227 19.2218 11.0467 19.4249 11.1313C19.628 11.2159 19.8458 11.2595 20.0658 11.2595C20.2858 11.2595 20.5037 11.2159 20.7068 11.1313C20.9099 11.0467 21.0942 10.9227 21.2492 10.7665C22.5811 9.45143 24.3774 8.71407 26.2492 8.71407C28.1209 8.71407 29.9172 9.45143 31.2492 10.7665C32.5663 12.104 33.3045 13.9059 33.3045 15.7831C33.3045 17.6603 32.5663 19.4622 31.2492 20.7998V20.7665Z" fill="white"/>
</g>
</svg>
