<svg width="40" height="40" viewBox="0 0 40 40" fill="none" xmlns="http://www.w3.org/2000/svg">
<g id="healthicons:blood-bag-outline">
<path id="Vector" fill-rule="evenodd" clip-rule="evenodd" d="M14.9987 33.3333H19.1654V36.6667H20.832V33.3333H24.9987V31.6667H28.332C29.2161 31.6667 30.0639 31.3155 30.6891 30.6903C31.3142 30.0652 31.6654 29.2174 31.6654 28.3333V8.42832C31.6654 7.54427 31.3142 6.69642 30.6891 6.0713C30.0639 5.44618 29.2161 5.09499 28.332 5.09499H23.332L22.3887 4.12499C22.0781 3.80546 21.7065 3.55147 21.296 3.37803C20.8855 3.2046 20.4443 3.11523 19.9987 3.11523C19.5531 3.11523 19.1119 3.2046 18.7014 3.37803C18.2909 3.55147 17.9193 3.80546 17.6087 4.12499L16.6654 5.09499H11.6654C10.7813 5.09499 9.93346 5.44618 9.30834 6.0713C8.68322 6.69642 8.33203 7.54427 8.33203 8.42832V28.3333C8.33203 29.2174 8.68322 30.0652 9.30834 30.6903C9.93346 31.3155 10.7813 31.6667 11.6654 31.6667H14.9987V33.3333ZM22.137 6.25666C22.2923 6.41644 22.4781 6.54346 22.6834 6.6302C22.8886 6.71694 23.1092 6.76164 23.332 6.76166H28.332C28.7741 6.76166 29.198 6.93725 29.5105 7.24981C29.8231 7.56237 29.9987 7.9863 29.9987 8.42832V22.95C29.7536 22.7593 29.496 22.585 29.2279 22.4283C27.707 21.5433 25.5079 21.0833 22.9087 22.6167C20.7687 23.8792 18.7562 24.2208 16.567 24.2667C15.592 24.2875 14.5937 24.25 13.5245 24.2092C13.3773 24.2035 13.2301 24.1979 13.0829 24.1925C12.0555 24.1479 11.027 24.1309 9.9987 24.1417V8.42916C9.9987 7.98713 10.1743 7.56321 10.4869 7.25065C10.7994 6.93809 11.2233 6.76249 11.6654 6.76249H16.6654C16.8882 6.76247 17.1088 6.71777 17.314 6.63103C17.5193 6.5443 17.7051 6.41728 17.8604 6.25749L18.8037 5.28749C18.959 5.12773 19.1448 5.00073 19.3501 4.91401C19.5553 4.82729 19.7759 4.78261 19.9987 4.78261C20.2215 4.78261 20.4421 4.82729 20.6473 4.91401C20.8526 5.00073 21.0384 5.12773 21.1937 5.28749L22.137 6.25666ZM9.9987 25.8092V28.3333C9.9987 28.7754 10.1743 29.1993 10.4869 29.5118C10.7994 29.8244 11.2233 30 11.6654 30H28.332C28.7741 30 29.198 29.8244 29.5105 29.5118C29.8231 29.1993 29.9987 28.7754 29.9987 28.3333V25.275C29.5535 24.7111 29.0079 24.2342 28.3895 23.8683C27.3112 23.2408 25.7612 22.8683 23.7562 24.0517C21.2912 25.505 18.9704 25.8825 16.602 25.9325C15.5737 25.9542 14.5237 25.9142 13.4604 25.8742L13.0212 25.8575C12.0143 25.8139 11.0065 25.7978 9.9987 25.8092Z" fill="white"/>
</g>
</svg>
